<?xml version="1.0" encoding="UTF-8"?>
<svg version="1.1" xmlns="http://www.w3.org/2000/svg" width="1024" height="1024">
<path d="M0 0 C0.886875 0.4021875 1.77375 0.804375 2.6875 1.21875 C10.93638584 5.34319292 18.86875224 11.20445051 24 19 C24 19.66 24 20.32 24 21 C25.23234375 20.79503906 26.4646875 20.59007812 27.734375 20.37890625 C29.40621054 20.10652855 31.07808784 19.83440705 32.75 19.5625 C33.55566406 19.42779297 34.36132812 19.29308594 35.19140625 19.15429688 C67.91971356 13.87138113 100.1236133 17.90430798 132 26 C133.33321785 26.33379493 134.66650697 26.66730611 136 27 C136.60585938 26.27554687 137.21171875 25.55109375 137.8359375 24.8046875 C146.5548777 14.74437188 158.20350916 5.93197079 172.03955078 4.83886719 C191.28505402 4.46398309 191.28505402 4.46398309 199 8 C199.886875 8.4021875 200.77375 8.804375 201.6875 9.21875 C216.40609395 16.57804698 224.75249577 27.66114147 230 43 C232.86346081 53.04759778 232.2372157 66.49541983 228 76 C227.61585938 76.66128906 227.23171875 77.32257813 226.8359375 78.00390625 C225.85198974 79.9459878 225.85198974 79.9459878 226.109375 81.98828125 C227.32165882 84.72655392 229.03646979 86.17033134 231.25 88.1875 C238.37767476 95.11152691 244.18050216 102.96820733 250 111 C250.45407227 111.62535645 250.90814453 112.25071289 251.37597656 112.89501953 C260.19056673 125.18799801 268.2661301 138.75091081 273.16796875 153.09375 C275.87725202 162.63378206 275.87725202 162.63378206 281.67285156 170.24560547 C285.90563368 172.12095997 290.45756508 172.40895915 295 173 C305.53560271 177.15636761 312.9694068 184.03650176 317.9921875 194.1171875 C320.62185303 201.63925401 321.29240081 209.12299881 321.22705078 217.03955078 C321.22734283 217.98710739 321.22763489 218.934664 321.22793579 219.91093445 C321.22655571 223.00582421 321.21105739 226.10046542 321.1953125 229.1953125 C321.19157766 231.35578276 321.18873292 233.51625473 321.18673706 235.67672729 C321.17913766 241.33525349 321.1595212 246.99367537 321.1373291 252.65216064 C321.11679076 258.43736358 321.10771832 264.22258354 321.09765625 270.0078125 C321.07627156 281.33859463 321.04111983 292.66927228 321 304 C308.13 304.33 295.26 304.66 282 305 C280.88625 308.196875 279.7725 311.39375 278.625 314.6875 C268.03669307 344.14994372 252.34275448 370.89062942 230.50585938 393.44287109 C229.44358117 394.54131636 228.38821763 395.64646921 227.33789062 396.75634766 C217.98421678 406.62649795 208.0639417 415.10360035 197 423 C196.38189453 423.44682129 195.76378906 423.89364258 195.12695312 424.35400391 C179.40932523 435.63024998 162.0168477 444.08134158 144 451 C143.85304688 452.45019531 143.85304688 452.45019531 143.703125 453.9296875 C141.98659671 468.87532171 137.15462484 483.20409444 125 493 C110.79461457 502.94137429 95.98597809 506.08904483 78.9140625 503.5390625 C76.47958287 502.86938364 74.29472883 502.05175071 72 501 C71.113125 500.5978125 70.22625 500.195625 69.3125 499.78125 C55.24069225 492.74534613 47.40927835 482.56624759 41.6640625 468.2265625 C41 466 41 466 41 462 C40.27731934 461.9575415 39.55463867 461.91508301 38.81005859 461.87133789 C31.22941931 461.34414276 24.01849499 460.1712952 16.625 458.4375 C15.49940674 458.17356445 14.37381348 457.90962891 13.21411133 457.63769531 C-23.70573662 448.64489884 -58.12490529 429.95731207 -85.44287109 403.50585938 C-86.54131636 402.44358117 -87.64646921 401.38821763 -88.75634766 400.33789062 C-98.62649795 390.98421678 -107.10360035 381.0639417 -115 370 C-115.67023193 369.0728418 -115.67023193 369.0728418 -116.35400391 368.12695312 C-128.44944556 351.26747259 -136.96108874 332.75093146 -144.12133789 313.34570312 C-144.41129639 312.57162109 -144.70125488 311.79753906 -145 311 C-145.29084473 310.10394043 -145.58168945 309.20788086 -145.88134766 308.28466797 C-146.8881746 305.55939371 -146.8881746 305.55939371 -150.67578125 304.6640625 C-152.21799551 304.30304722 -153.76390122 303.9575638 -155.3125 303.625 C-168.4504835 300.36924673 -178.40996569 294.7297798 -188 285 C-188.57363281 284.43667969 -189.14726562 283.87335938 -189.73828125 283.29296875 C-202.79278586 269.42888246 -204.91118592 249.97730061 -204.3828125 231.86328125 C-203.38481805 212.49653994 -195.87725838 196.46149677 -182 182.875 C-175.03934544 176.98704905 -165.76492861 171.26729055 -156.5390625 170.453125 C-149.89593743 169.88250995 -149.89593743 169.88250995 -144 167 C-139.61757433 160.76409971 -137.51149243 153.18534041 -135.08984375 146.03027344 C-133.56842804 141.80002886 -131.64596191 137.88101401 -129.5 133.9375 C-129.13382568 133.26211182 -128.76765137 132.58672363 -128.39038086 131.89086914 C-114.35241317 106.61390561 -93.84010285 80.60408247 -70 64 C-70.23976563 62.80117188 -70.23976563 62.80117188 -70.484375 61.578125 C-72.00266638 51.042103 -72.50231583 38.82323453 -68 29 C-67.5978125 28.113125 -67.195625 27.22625 -66.78125 26.3125 C-59.42195302 11.59390605 -48.33885853 3.24750423 -33 -2 C-23.00134322 -4.84951314 -9.42512679 -4.31984978 0 0 Z M32 41 C31.96261719 42.11117187 31.92523437 43.22234375 31.88671875 44.3671875 C31.22498806 60.56591737 27.64003882 73.81550049 16.1953125 86 C3.81939916 97.27485343 -10.76088487 99.64150032 -26.77441406 99.13183594 C-38.80496924 98.41918787 -49.57757165 91.15696499 -58 83 C-62.125508 84.66221924 -65.06782666 87.61874193 -68.25 90.625 C-68.8284668 91.16697021 -69.40693359 91.70894043 -70.00292969 92.26733398 C-71.6743207 93.83899275 -73.3381783 95.41823457 -75 97 C-75.763125 97.72058594 -76.52625 98.44117188 -77.3125 99.18359375 C-95.7944368 117.10660101 -111.14870615 140.82085582 -120 165 C-120 165.66 -120 166.32 -120 167 C-118.99582031 167.15855469 -117.99164063 167.31710937 -116.95703125 167.48046875 C-99.24652928 170.43258192 -84.9194514 176.04250202 -74 191 C-66.49330574 204.14158943 -64.95123834 218.12330753 -64.4375 232.9375 C-64.39431641 234.09830078 -64.35113281 235.25910156 -64.30664062 236.45507812 C-64.20115158 239.30328232 -64.09903445 242.15156529 -64 245 C-64.66 245 -65.32 245 -66 245 C-66 245.66 -66 246.32 -66 247 C-96.03 247.33 -126.06 247.66 -157 248 C-156.51571646 255.97697799 -156.51571646 255.97697799 -153 262 C-152.34 262 -151.68 262 -151 262 C-151 262.66 -151 263.32 -151 264 C-150.34 264 -149.68 264 -149 264 C-149 264.66 -149 265.32 -149 266 C-147.68 266.33 -146.36 266.66 -145 267 C-145 267.66 -145 268.32 -145 269 C-142.79290017 269.65003625 -140.58426108 270.29484745 -138.375 270.9375 C-136.53035156 271.47697266 -136.53035156 271.47697266 -134.6484375 272.02734375 C-120.75144379 275.7322168 -108.4365097 273.61942785 -95 269 C-95 268.34 -95 267.68 -95 267 C-94.45472656 266.82984375 -93.90945313 266.6596875 -93.34765625 266.484375 C-89.23650155 265.16318341 -85.37169431 263.73127619 -81.5 261.8125 C-76.83656953 259.64939204 -73.09235188 259.67667607 -68 260 C-68 260.66 -68 261.32 -68 262 C-67.34 262 -66.68 262 -66 262 C-66 273.55 -66 285.1 -66 297 C-67.98 297.33 -69.96 297.66 -72 298 C-74.28228073 298.75803351 -76.55256053 299.5527508 -78.8125 300.375 C-92.90390558 305.24124844 -107.17923853 306.49730751 -122 307 C-121.41003295 312.61830156 -119.38216298 317.23182224 -117.0625 322.3125 C-116.66208496 323.19188232 -116.26166992 324.07126465 -115.84912109 324.97729492 C-93.39065536 373.31219761 -51.87655537 411.42233265 -2 430 C18.99367966 437.73532828 18.99367966 437.73532828 41 440 C41.42410156 439.02160156 41.84820313 438.04320312 42.28515625 437.03515625 C49.10399698 421.64462005 57.82630417 410.3599069 74 404 C79.89882547 402.22973338 85.23076075 401.64417841 91.375 401.6875 C92.21353516 401.69313965 93.05207031 401.6987793 93.91601562 401.70458984 C107.50681018 401.97123131 119.02354015 407.52139698 128.984375 416.765625 C132.31424292 420.45687393 134.7057778 424.60948849 137 429 C142.25099657 428.39634213 146.54511637 426.71255742 151.3125 424.5625 C152.49066284 424.03233276 152.49066284 424.03233276 153.69262695 423.49145508 C201.13345627 401.63402446 238.49800649 360.46204057 257.32861328 311.98632812 C258.21623286 309.36026527 258.6804586 306.74893147 259 304 C258.40832031 304.13277344 257.81664062 304.26554687 257.20703125 304.40234375 C256.41683594 304.57894531 255.62664062 304.75554687 254.8125 304.9375 C253.64654297 305.19853516 253.64654297 305.19853516 252.45703125 305.46484375 C251.64621094 305.64144531 250.83539062 305.81804687 250 306 C249.22640137 306.17184814 248.45280273 306.34369629 247.65576172 306.52075195 C243.22503694 307.32030267 238.80406455 307.22593267 234.3125 307.25 C232.89807617 307.2809375 232.89807617 307.2809375 231.45507812 307.3125 C219.87938846 307.3761464 209.15062498 304.01276615 200.734375 295.78515625 C198.74858536 293.57504593 196.86305951 291.31379971 195 289 C193.7625 287.63875 193.7625 287.63875 192.5 286.25 C190.71186776 283.56780164 190.75057882 282.15933499 191 279 C190.67 278.01 190.34 277.02 190 276 C188.96847118 263.08244595 188.77498191 250.22209515 197.3515625 239.8046875 C216.1496118 219.22483258 248.17932419 219.38043107 274 217 C272.62721909 213.62465725 271.4223063 212.3367265 268.125 210.8125 C267.10792969 210.32716797 267.10792969 210.32716797 266.0703125 209.83203125 C249.11936943 203.01967111 228.30177233 209.32385992 212 215 C211.17193848 215.36561035 210.34387695 215.7312207 209.49072266 216.10791016 C206.82801353 217.06159955 204.80535886 217.16030622 202 217 C200.99225922 207.78442698 200.69087049 198.57138177 200.4375 189.3125 C200.39418922 187.82095454 200.35057152 186.32941795 200.30664062 184.83789062 C200.20089527 181.22535571 200.09928034 177.61271906 200 174 C219.0135974 170.818798 237.66988025 168.14331096 257 168 C246.49927285 141.344308 231.6589688 118.76169626 212 98 C207.74658118 99.63186228 203.8049432 101.63454915 199.79296875 103.78125 C193.11253404 106.69634878 186.82115793 107.36323842 179.625 107.3125 C178.78646484 107.30686035 177.94792969 107.3012207 177.08398438 107.29541016 C163.51217695 107.02914121 151.9019154 101.49604018 142 92.1953125 C134.63077989 84.10644199 129.20412978 72.45874391 128.68359375 61.453125 C128.64169922 60.60878906 128.59980469 59.76445312 128.55664062 58.89453125 C128.51732422 58.02183594 128.47800781 57.14914062 128.4375 56.25 C128.39431641 55.36183594 128.35113281 54.47367187 128.30664062 53.55859375 C128.20086385 51.37254037 128.09877454 49.18637911 128 47 C120.04574208 44.17848964 112.10331897 42.31534212 103.8125 40.8125 C102.89903809 40.64588867 101.98557617 40.47927734 101.04443359 40.30761719 C78.23686138 36.30859372 54.73234883 36.78473002 32 41 Z M-145 202 C-145 202.66 -145 203.32 -145 204 C-146.65 204.66 -148.3 205.32 -150 206 C-150 206.66 -150 207.32 -150 208 C-150.99 208.33 -151.98 208.66 -153 209 C-154.32 212.63 -155.64 216.26 -157 220 C-142.15 220 -127.3 220 -112 220 C-112.76114525 214.3993299 -112.76114525 214.3993299 -114 209 C-114.66 209 -115.32 209 -116 209 C-116.66 207.68 -117.32 206.36 -118 205 C-118.66 205 -119.32 205 -120 205 C-120.495 203.515 -120.495 203.515 -121 202 C-123.65770226 201.00394346 -126.18563657 200.87191671 -129.00390625 200.8671875 C-129.74447266 200.86589844 -130.48503906 200.86460937 -131.24804688 200.86328125 C-132.01181641 200.86714844 -132.77558594 200.87101563 -133.5625 200.875 C-134.33013672 200.87113281 -135.09777344 200.86726562 -135.88867188 200.86328125 C-139.17927139 200.869019 -141.85758907 200.95252969 -145 202 Z M256.875 247.1875 C255.70324219 247.38279297 255.70324219 247.38279297 254.5078125 247.58203125 C248.7139356 248.65137095 244.59282007 250.17264994 240 254 C237.03960304 258.44059544 237.10241902 262.79707298 238 268 C240.08485768 270.94182372 242.79222286 272.39611143 246 274 C257.06856463 274.97809464 265.45207583 274.33603056 275 268 C276.22784809 266.99440206 276.22784809 266.99440206 276.11352539 264.95874023 C276.10828857 264.08419189 276.10305176 263.20964355 276.09765625 262.30859375 C276.09443359 261.36435547 276.09121094 260.42011719 276.08789062 259.44726562 C276.07951172 258.45404297 276.07113281 257.46082031 276.0625 256.4375 C276.05798828 255.44041016 276.05347656 254.44332031 276.04882812 253.41601562 C276.03700007 250.94395151 276.02051849 248.47200482 276 246 C269.50633809 245.85477162 263.28436996 246.11927167 256.875 247.1875 Z " fill="#004E8A" transform="translate(519,270)"/>
<path d="M0 0 C14.52 0 29.04 0 44 0 C45.87085984 3.74171968 46.25782521 5.00603044 46.31884766 8.95214844 C46.33871735 9.93286316 46.35858704 10.91357788 46.37905884 11.92401123 C46.39061005 12.97518127 46.40216125 14.02635132 46.4140625 15.109375 C46.43342865 16.19132141 46.4527948 17.27326782 46.4727478 18.38800049 C46.53250237 21.84192026 46.57891297 25.29587344 46.625 28.75 C46.66318353 31.09246241 46.70223548 33.43491084 46.7421875 35.77734375 C46.83820056 41.51810499 46.92326027 47.25895053 47 53 C48.01320313 52.3800415 49.02640625 51.76008301 50.0703125 51.12133789 C51.42175016 50.30073837 52.77331968 49.48035599 54.125 48.66015625 C54.79015625 48.25236938 55.4553125 47.84458252 56.140625 47.42443848 C70.12306383 38.96386351 85.79887539 37.97281419 101.76171875 40.625 C115.36999735 44.60964628 124.55314604 54.41953458 131.1875 66.5 C141.0533821 87.12866256 141.92511815 114.40830408 135.3125 136.0625 C129.33955718 152.47719322 119.74290696 165.87901917 104 174 C89.91551817 180.46695926 72.38632572 181.75585172 57.4375 177.25 C52.79407338 175.49302777 48.35046895 173.38849276 44 171 C43.34 172.65 42.68 174.3 42 176 C28.14 176 14.28 176 0 176 C0 117.92 0 59.84 0 0 Z M46 83 C46 101.15 46 119.3 46 138 C51.27773505 140.11109402 54.77251254 140.36637745 60.3125 140.375 C61.12912109 140.39949219 61.94574219 140.42398438 62.78710938 140.44921875 C69.78625458 140.4826808 74.77384679 138.6151826 80.20703125 134.2109375 C80.73683594 133.60507812 81.26664063 132.99921875 81.8125 132.375 C82.35519531 131.78460937 82.89789062 131.19421875 83.45703125 130.5859375 C87.74244348 123.40380359 88.48403506 115.70185979 88.375 107.5 C88.38660156 106.62730469 88.39820313 105.75460937 88.41015625 104.85546875 C88.37710147 97.41814324 87.33536635 89.62077898 82.6875 83.5625 C77.66543922 78.77402345 73.24733628 77.55421962 66.375 77.5 C64.43753906 77.45359375 64.43753906 77.45359375 62.4609375 77.40625 C56.54462437 77.99738261 56.54462437 77.99738261 46 83 Z " fill="#010101" transform="translate(866,399)"/>
<path d="M0 0 C14.870625 -0.061875 29.74125 -0.12375 45.0625 -0.1875 C49.72898682 -0.21481201 54.39547363 -0.24212402 59.20336914 -0.27026367 C64.97546387 -0.28381348 64.97546387 -0.28381348 67.69187927 -0.28633118 C69.5579087 -0.29088771 71.42393024 -0.3013324 73.28990173 -0.31672668 C95.37952425 -0.4895908 115.22380287 2.1176371 132.06640625 17.94140625 C142.64310709 29.24911017 145.35798161 43.47648379 145.21875 58.49609375 C144.19065681 74.96394364 138.26199417 89.43371582 126.1875 100.75 C112.74411439 112.26710864 96.95364793 118.41697742 79.2734375 118.1953125 C77.96289902 118.19106766 77.96289902 118.19106766 76.62588501 118.18673706 C73.87544186 118.17567303 71.12534226 118.15059581 68.375 118.125 C66.49349433 118.11495234 64.61198349 118.10582964 62.73046875 118.09765625 C58.15351643 118.07577912 53.57681615 118.04134719 49 118 C49.00666183 118.61974197 49.01332367 119.23948395 49.02018738 119.87800598 C49.08646509 126.3177879 49.13176909 132.75747322 49.16479492 139.19750977 C49.17989816 141.60217218 49.20038208 144.00680698 49.22631836 146.41137695 C49.26263351 149.86416431 49.279711 153.31658804 49.29296875 156.76953125 C49.30845261 157.84773636 49.32393646 158.92594147 49.33988953 160.03681946 C49.34011612 161.03763046 49.34034271 162.03844147 49.34057617 163.06958008 C49.34723801 163.95116287 49.35389984 164.83274567 49.36076355 165.74104309 C48.92030821 168.4989981 48.20791263 169.33785308 46 171 C31.45008591 175.84997136 15.33695609 172 0 172 C0 115.24 0 58.48 0 0 Z M48 37 C48 51.85 48 66.7 48 82 C69.7828951 82.95454544 69.7828951 82.95454544 88.55859375 73.64453125 C93.40135745 68.11931847 93.59381757 62.27255839 93.4140625 55.1640625 C92.60380942 48.97250598 89.81885842 45.47056638 85.0625 41.625 C79.7986087 38.83191482 75.23531875 37.74959593 69.2890625 37.5859375 C68.16709473 37.55032715 67.04512695 37.5147168 65.88916016 37.47802734 C63.77840088 37.42702881 63.77840088 37.42702881 61.625 37.375 C57.12875 37.25125 52.6325 37.1275 48 37 Z " fill="#000000" transform="translate(19,404)"/>
<path d="M0 0 C0.99429016 0.00031723 0.99429016 0.00031723 2.00866699 0.00064087 C16.30942324 0.04619155 28.96171838 1.75674052 41.375 9.375 C42.06851563 9.79265625 42.76203125 10.2103125 43.4765625 10.640625 C55.17378037 18.49898759 60.96594552 31.80341698 64.1875 45.0625 C66.22842193 56.02385599 65.63195085 67.2734057 65.375 78.375 C62.12373227 80.00063386 58.54962025 79.5040896 54.97802734 79.48852539 C53.67548759 79.48874443 53.67548759 79.48874443 52.34663391 79.4889679 C49.46804328 79.48826961 46.58951686 79.4804811 43.7109375 79.47265625 C41.71839432 79.47079177 39.72585069 79.46936801 37.73330688 79.46836853 C32.48240906 79.46454569 27.23153878 79.45471737 21.98065186 79.44366455 C16.62512586 79.43344543 11.26959543 79.42886983 5.9140625 79.42382812 C-4.59897045 79.41309491 -15.11198294 79.39602127 -25.625 79.375 C-25.20033503 81.14895508 -24.7597591 82.91910631 -24.3125 84.6875 C-24.06886719 85.67363281 -23.82523438 86.65976562 -23.57421875 87.67578125 C-22.60988133 90.41799178 -21.7228822 91.46516326 -19.625 93.375 C-19.625 94.035 -19.625 94.695 -19.625 95.375 C-18.965 95.375 -18.305 95.375 -17.625 95.375 C-17.625 96.035 -17.625 96.695 -17.625 97.375 C-16.305 97.705 -14.985 98.035 -13.625 98.375 C-13.625 99.035 -13.625 99.695 -13.625 100.375 C-12.41263672 100.55675781 -12.41263672 100.55675781 -11.17578125 100.7421875 C-10.10714844 100.90976562 -9.03851563 101.07734375 -7.9375 101.25 C-6.88175781 101.41242188 -5.82601562 101.57484375 -4.73828125 101.7421875 C-1.625 102.375 -1.625 102.375 0.86328125 103.42578125 C9.14568361 106.55583378 19.16422313 104.31330461 27.4375 102.12890625 C30.40321699 101.36775814 33.34990297 100.83866815 36.375 100.375 C36.375 99.715 36.375 99.055 36.375 98.375 C39.21926113 97.01977467 42.07674436 95.69500572 44.9375 94.375 C45.73736328 93.9934375 46.53722656 93.611875 47.36132812 93.21875 C52.22080049 90.99727692 55.91704009 89.81304789 61.375 90.375 C62.035 90.705 62.695 91.035 63.375 91.375 C64.0078125 93.44140625 64.0078125 93.44140625 64.5 95.9375 C64.66757812 96.76378906 64.83515625 97.59007812 65.0078125 98.44140625 C65.12898437 99.07949219 65.25015625 99.71757813 65.375 100.375 C65.045 100.375 64.715 100.375 64.375 100.375 C64.045 110.275 63.715 120.175 63.375 130.375 C60.260625 131.468125 57.14625 132.56125 53.9375 133.6875 C52.52513062 134.19470581 52.52513062 134.19470581 51.08422852 134.7121582 C37.46483229 139.36390585 23.8436002 140.88557598 9.53564453 140.76611328 C7.24321516 140.74995217 4.95253485 140.76612224 2.66015625 140.78515625 C-18.91851106 140.81531743 -40.39449608 135.81726044 -56.41015625 120.5859375 C-57.14105469 119.85632813 -57.87195313 119.12671875 -58.625 118.375 C-59.48931641 117.52808594 -59.48931641 117.52808594 -60.37109375 116.6640625 C-73.40948308 102.77902451 -75.53648993 83.36272275 -75.0078125 65.23828125 C-73.9662136 45.02536677 -65.69688036 29.32814665 -51.55859375 15.04296875 C-46.01810154 10.26359466 -40.80365658 7.36663933 -33.8125 5.1875 C-33.06935547 4.94064453 -32.32621094 4.69378906 -31.56054688 4.43945312 C-20.992156 1.02589018 -11.10953513 -0.0146435 0 0 Z M-13.625 33.375 C-13.625 34.035 -13.625 34.695 -13.625 35.375 C-15.275 36.035 -16.925 36.695 -18.625 37.375 C-18.625 38.035 -18.625 38.695 -18.625 39.375 C-19.615 39.705 -20.605 40.035 -21.625 40.375 C-22.945 44.005 -24.265 47.635 -25.625 51.375 C-10.775 51.375 4.075 51.375 19.375 51.375 C18.61385475 45.7743299 18.61385475 45.7743299 17.375 40.375 C16.715 40.375 16.055 40.375 15.375 40.375 C14.715 39.055 14.055 37.735 13.375 36.375 C12.715 36.375 12.055 36.375 11.375 36.375 C10.88 34.89 10.88 34.89 10.375 33.375 C7.71729774 32.37894346 5.18936343 32.24691671 2.37109375 32.2421875 C1.63052734 32.24089844 0.88996094 32.23960937 0.12695312 32.23828125 C-0.63681641 32.24214844 -1.40058594 32.24601562 -2.1875 32.25 C-2.95513672 32.24613281 -3.72277344 32.24226563 -4.51367188 32.23828125 C-7.80427139 32.244019 -10.48258907 32.32752969 -13.625 33.375 Z " fill="#010101" transform="translate(241.625,438.625)"/>
<path d="M0 0 C15.51 0 31.02 0 47 0 C47 43.23 47 86.46 47 131 C72.41 131 97.82 131 124 131 C124.9415891 142.29906923 125 153.66176577 125 165 C83.75 165 42.5 165 0 165 C0 110.55 0 56.1 0 0 Z " fill="#000000" transform="translate(583,405)"/>
<path d="M0 0 C0.66 0.66 1.32 1.32 2 2 C1.73101166 3.67825331 1.384585 5.34440848 1 7 C-0.01764057 21.7557883 3.49620443 34.80488809 13.125 46.1875 C21.93092224 55.49076668 33.10432211 61.31753946 45.9453125 62.203125 C60.07431356 62.41141494 71.54159488 58.14149837 83 50 C84.67262717 51.61886415 86.33795537 53.2452729 88 54.875 C88.928125 55.77992188 89.85625 56.68484375 90.8125 57.6171875 C93 60 93 60 93 62 C93.66 62 94.32 62 95 62 C98 65.46153846 98 65.46153846 98 68 C98.66 68 99.32 68 100 68 C112.56816364 82.53964029 133 111.22724319 133 131 C131.998479 131.07516846 130.99695801 131.15033691 129.96508789 131.2277832 C126.16036454 131.51564274 122.35659157 131.81479593 118.55297852 132.11694336 C116.92332566 132.24490649 115.29344597 132.37002058 113.66333008 132.49194336 C103.42413072 133.2601204 93.42760254 134.46271318 83.34155273 136.40307617 C80 137 80 137 77 137 C77 146.57 77 156.14 77 166 C85.0478173 163.41364267 85.0478173 163.41364267 93.09472656 160.82446289 C94.09987305 160.5021167 95.10501953 160.17977051 96.140625 159.84765625 C97.68024902 159.3527771 97.68024902 159.3527771 99.25097656 158.84790039 C111.52625581 155.06175076 127.44849776 155.13120457 139.51953125 159.67578125 C143.34969367 161.72054513 146.23346493 163.97461681 148 168 C148.4224808 170.65834613 148.69507125 173.32460521 149 176 C148.01418945 176.09498779 147.02837891 176.18997559 146.01269531 176.2878418 C107.16759825 178.43031263 107.16759825 178.43031263 74.62109375 196.9140625 C66.97455499 206.75322322 67.06269535 218.04234233 68 230 C69.95398419 239.75875531 74.94344935 247.159847 83.0625 252.8125 C95.44615835 260.19214946 107.96689113 260.00525677 121.546875 256.93359375 C125.53353462 255.85575252 129.24779756 254.45855135 133.01171875 252.76953125 C135 252 135 252 138 252 C134.70743326 263.05695285 131.26958827 273.70023062 126 284 C125.60119629 284.79196777 125.20239258 285.58393555 124.79150391 286.39990234 C114.10988711 307.55599152 101.34114896 325.85036841 85 343 C84.27425781 343.77859375 83.54851562 344.5571875 82.80078125 345.359375 C63.03233887 365.96825024 35.66108406 382.18663681 9 392 C8.34 392 7.68 392 7 392 C6.74347656 391.39414062 6.48695313 390.78828125 6.22265625 390.1640625 C0.69359421 378.06342167 -8.18166192 369.11883842 -20.5234375 363.94140625 C-34.36453487 359.13610832 -47.76754494 360.14019936 -61.0625 366.125 C-73.35122241 372.67898528 -81.33265058 383.01479505 -85.4375 396.1875 C-85.96388073 398.12350024 -86.48566068 400.06076596 -87 402 C-95.10229485 401.53813264 -102.70892069 400.40637919 -110.5625 398.375 C-111.60043701 398.10921143 -112.63837402 397.84342285 -113.70776367 397.56958008 C-141.03898408 390.36413369 -169.54770041 377.80089177 -191 359 C-191 358.34 -191 357.68 -191 357 C-191.61875 356.690625 -192.2375 356.38125 -192.875 356.0625 C-194.25 355.375 -195.625 354.6875 -197 354 C-197 353.34 -197 352.68 -197 352 C-197.88836548 351.5973291 -197.88836548 351.5973291 -198.79467773 351.18652344 C-202.47555114 349.2061133 -205.13856966 346.19900314 -208.0625 343.25 C-208.72717285 342.5811377 -209.3918457 341.91227539 -210.07666016 341.22314453 C-216.27943495 334.88004222 -221.77430824 328.15928105 -227 321 C-227.77859375 319.94296875 -228.5571875 318.8859375 -229.359375 317.796875 C-241.6155799 300.63818814 -253.13917167 280.59223638 -258 260 C-257.1843457 259.92483154 -256.36869141 259.84966309 -255.52832031 259.7722168 C-252.44114025 259.48320327 -249.35490548 259.18579078 -246.26904297 258.88305664 C-244.30105439 258.69244493 -242.33217169 258.51113689 -240.36328125 258.33007812 C-229.96346436 257.30065463 -220.23960557 255.28239495 -210.375 251.8125 C-205.20224719 250 -205.20224719 250 -203 250 C-203 239.77 -203 229.54 -203 219 C-208.07169127 220.66909944 -208.07169127 220.66909944 -212.76953125 222.83984375 C-213.42646973 223.17943115 -214.0834082 223.51901855 -214.76025391 223.86889648 C-215.43749512 224.22153564 -216.11473633 224.5741748 -216.8125 224.9375 C-232.68623202 233.03023961 -250.7842943 236.33309574 -268.3125 231.375 C-277.76660853 227.88933256 -283.59401227 222.32540579 -288.3125 213.5625 C-289 211 -289 211 -289 203 C-259.96 203 -230.92 203 -201 203 C-201.56487459 172.01435513 -201.56487459 172.01435513 -216.1875 146 C-227.32395596 135.8450622 -241.63144019 133.40418816 -256 131 C-255.47699053 124.91184292 -253.55814004 120.08075826 -251 114.5625 C-250.59845703 113.68650146 -250.19691406 112.81050293 -249.78320312 111.90795898 C-243.67266338 98.78245288 -236.44584925 86.74219041 -228 75 C-227.47019531 74.22140625 -226.94039063 73.4428125 -226.39453125 72.640625 C-225.31467534 71.05725856 -224.16682754 69.52041165 -223 68 C-222.34 68 -221.68 68 -221 68 C-220.72800781 67.41089844 -220.45601563 66.82179688 -220.17578125 66.21484375 C-216.65570262 59.58399796 -210.41998477 54.30310637 -205.1875 49 C-204.61217529 48.41162354 -204.03685059 47.82324707 -203.4440918 47.21704102 C-202.00156758 45.77153065 -200.50476761 44.38059797 -199 43 C-198.34 43 -197.68 43 -197 43 C-197 42.34 -197 41.68 -197 41 C-193.53846154 38 -193.53846154 38 -191 38 C-191 37.34 -191 36.68 -191 36 C-187.56883995 36.57186001 -186.14958413 37.59858892 -183.875 40.1875 C-175.80090311 48.58939142 -164.64316669 53.40391954 -153.0546875 54.203125 C-137.93509806 54.42601821 -125.37937619 49.98389853 -114.328125 39.5234375 C-108.31170788 33.0022874 -104.11464607 25.62124938 -102 17 C-101.81308594 16.27167969 -101.62617187 15.54335938 -101.43359375 14.79296875 C-100.83133081 10.91352727 -100.89479804 7.1062264 -100.9375 3.1875 C-100.94426758 2.00510742 -100.94426758 2.00510742 -100.95117188 0.79882812 C-100.96288688 -1.13414761 -100.98082002 -3.06708393 -101 -5 C-69.51005207 -13.43037976 -30.57583167 -10.9799871 0 0 Z M-98 -2 C-98.03738281 -0.88882812 -98.07476563 0.22234375 -98.11328125 1.3671875 C-98.77501194 17.56591737 -102.35996118 30.81550049 -113.8046875 43 C-126.18060084 54.27485343 -140.76088487 56.64150032 -156.77441406 56.13183594 C-168.80496924 55.41918787 -179.57757165 48.15696499 -188 40 C-192.125508 41.66221924 -195.06782666 44.61874193 -198.25 47.625 C-198.8284668 48.16697021 -199.40693359 48.70894043 -200.00292969 49.26733398 C-201.6743207 50.83899275 -203.3381783 52.41823457 -205 54 C-205.763125 54.72058594 -206.52625 55.44117188 -207.3125 56.18359375 C-225.7944368 74.10660101 -241.14870615 97.82085582 -250 122 C-250 122.66 -250 123.32 -250 124 C-248.99582031 124.15855469 -247.99164063 124.31710937 -246.95703125 124.48046875 C-229.24652928 127.43258192 -214.9194514 133.04250202 -204 148 C-196.49330574 161.14158943 -194.95123834 175.12330753 -194.4375 189.9375 C-194.39431641 191.09830078 -194.35113281 192.25910156 -194.30664062 193.45507812 C-194.20115158 196.30328232 -194.09903445 199.15156529 -194 202 C-194.66 202 -195.32 202 -196 202 C-196 202.66 -196 203.32 -196 204 C-226.03 204.33 -256.06 204.66 -287 205 C-286.51571646 212.97697799 -286.51571646 212.97697799 -283 219 C-282.34 219 -281.68 219 -281 219 C-281 219.66 -281 220.32 -281 221 C-280.34 221 -279.68 221 -279 221 C-279 221.66 -279 222.32 -279 223 C-277.68 223.33 -276.36 223.66 -275 224 C-275 224.66 -275 225.32 -275 226 C-272.79290017 226.65003625 -270.58426108 227.29484745 -268.375 227.9375 C-266.53035156 228.47697266 -266.53035156 228.47697266 -264.6484375 229.02734375 C-250.75144379 232.7322168 -238.4365097 230.61942785 -225 226 C-225 225.34 -225 224.68 -225 224 C-224.45472656 223.82984375 -223.90945313 223.6596875 -223.34765625 223.484375 C-219.23650155 222.16318341 -215.37169431 220.73127619 -211.5 218.8125 C-206.83656953 216.64939204 -203.09235188 216.67667607 -198 217 C-198 217.66 -198 218.32 -198 219 C-197.34 219 -196.68 219 -196 219 C-196 230.55 -196 242.1 -196 254 C-197.98 254.33 -199.96 254.66 -202 255 C-204.28228073 255.75803351 -206.55256053 256.5527508 -208.8125 257.375 C-222.90390558 262.24124844 -237.17923853 263.49730751 -252 264 C-251.41003295 269.61830156 -249.38216298 274.23182224 -247.0625 279.3125 C-246.66208496 280.19188232 -246.26166992 281.07126465 -245.84912109 281.97729492 C-223.39065536 330.31219761 -181.87655537 368.42233265 -132 387 C-111.00632034 394.73532828 -111.00632034 394.73532828 -89 397 C-88.57589844 396.02160156 -88.15179687 395.04320312 -87.71484375 394.03515625 C-80.89600302 378.64462005 -72.17369583 367.3599069 -56 361 C-50.10117453 359.22973338 -44.76923925 358.64417841 -38.625 358.6875 C-37.78646484 358.69313965 -36.94792969 358.6987793 -36.08398438 358.70458984 C-22.49318982 358.97123131 -10.97645985 364.52139698 -1.015625 373.765625 C2.31424292 377.45687393 4.7057778 381.60948849 7 386 C12.25099657 385.39634213 16.54511637 383.71255742 21.3125 381.5625 C22.49066284 381.03233276 22.49066284 381.03233276 23.69262695 380.49145508 C71.13345627 358.63402446 108.49800649 317.46204057 127.32861328 268.98632812 C128.21623286 266.36026527 128.6804586 263.74893147 129 261 C128.40832031 261.13277344 127.81664062 261.26554687 127.20703125 261.40234375 C126.41683594 261.57894531 125.62664062 261.75554687 124.8125 261.9375 C123.64654297 262.19853516 123.64654297 262.19853516 122.45703125 262.46484375 C121.64621094 262.64144531 120.83539062 262.81804687 120 263 C119.22640137 263.17184814 118.45280273 263.34369629 117.65576172 263.52075195 C113.22503694 264.32030267 108.80406455 264.22593267 104.3125 264.25 C102.89807617 264.2809375 102.89807617 264.2809375 101.45507812 264.3125 C89.87938846 264.3761464 79.15062498 261.01276615 70.734375 252.78515625 C68.74858536 250.57504593 66.86305951 248.31379971 65 246 C63.7625 244.63875 63.7625 244.63875 62.5 243.25 C60.71186776 240.56780164 60.75057882 239.15933499 61 236 C60.67 235.01 60.34 234.02 60 233 C58.96847118 220.08244595 58.77498191 207.22209515 67.3515625 196.8046875 C86.1496118 176.22483258 118.17932419 176.38043107 144 174 C142.62721909 170.62465725 141.4223063 169.3367265 138.125 167.8125 C137.10792969 167.32716797 137.10792969 167.32716797 136.0703125 166.83203125 C119.11936943 160.01967111 98.30177233 166.32385992 82 172 C81.17193848 172.36561035 80.34387695 172.7312207 79.49072266 173.10791016 C76.82801353 174.06159955 74.80535886 174.16030622 72 174 C70.99225922 164.78442698 70.69087049 155.57138177 70.4375 146.3125 C70.39418922 144.82095454 70.35057152 143.32941795 70.30664062 141.83789062 C70.20089527 138.22535571 70.09928034 134.61271906 70 131 C89.0135974 127.818798 107.66988025 125.14331096 127 125 C116.49927285 98.344308 101.6589688 75.76169626 82 55 C77.74658118 56.63186228 73.8049432 58.63454915 69.79296875 60.78125 C63.11253404 63.69634878 56.82115793 64.36323842 49.625 64.3125 C48.78646484 64.30686035 47.94792969 64.3012207 47.08398438 64.29541016 C33.51217695 64.02914121 21.9019154 58.49604018 12 49.1953125 C4.63077989 41.10644199 -0.79587022 29.45874391 -1.31640625 18.453125 C-1.35830078 17.60878906 -1.40019531 16.76445312 -1.44335938 15.89453125 C-1.48267578 15.02183594 -1.52199219 14.14914062 -1.5625 13.25 C-1.60568359 12.36183594 -1.64886719 11.47367187 -1.69335938 10.55859375 C-1.79913615 8.37254037 -1.90122546 6.18637911 -2 4 C-9.95425792 1.17848964 -17.89668103 -0.68465788 -26.1875 -2.1875 C-27.10096191 -2.35411133 -28.01442383 -2.52072266 -28.95556641 -2.69238281 C-51.76313862 -6.69140628 -75.26765117 -6.21526998 -98 -2 Z " fill="#F8F9FA" transform="translate(649,313)"/>
<path d="M0 0 C0 13.2 0 26.4 0 40 C-0.66 40 -1.32 40 -2 40 C-2 40.66 -2 41.32 -2 42 C-8.28905056 43.20428628 -14.58558873 43.49900983 -20.5625 40.875 C-23.49664411 39.8217175 -25.73404611 40.1589475 -28.7734375 40.6484375 C-31.11835535 41.01868769 -33.4474981 41.23478555 -35.8125 41.4375 C-39.52624089 41.79544635 -43.15672563 42.35148017 -46.82421875 43.03515625 C-48.28541138 43.30598022 -48.28541138 43.30598022 -49.77612305 43.58227539 C-50.51000244 43.72012451 -51.24388184 43.85797363 -52 44 C-51.99777939 44.97861496 -51.99555878 45.95722992 -51.99327087 46.96549988 C-51.97299342 56.19096301 -51.95800564 65.41642161 -51.94818783 74.64190197 C-51.94297072 79.38473121 -51.9358943 84.12754245 -51.92456055 88.87036133 C-51.91369008 93.44798777 -51.90771433 98.02559689 -51.90512276 102.60323524 C-51.90327602 104.34911687 -51.89966982 106.09499756 -51.89426994 107.84087181 C-51.88700435 110.28740863 -51.88601139 112.73387404 -51.88647461 115.18041992 C-51.88287933 115.90115189 -51.87928406 116.62188385 -51.87557983 117.36445618 C-51.88309759 121.03725009 -52.12472758 124.4284886 -53 128 C-58.96313166 128.02464574 -64.92623395 128.042834 -70.8894043 128.05493164 C-72.91968298 128.05997278 -74.94995802 128.06680557 -76.98022461 128.07543945 C-79.89177347 128.08751467 -82.8032745 128.09323034 -85.71484375 128.09765625 C-87.08514992 128.10539818 -87.08514992 128.10539818 -88.48313904 128.11329651 C-90.65575427 128.11349168 -92.82827296 128.06211805 -95 128 C-96 127 -96 127 -96.12304783 124.8935461 C-96.12212604 123.95792623 -96.12120424 123.02230635 -96.12025452 122.05833435 C-96.12162918 120.98836212 -96.12300385 119.91838989 -96.12442017 118.81599426 C-96.12082489 117.63204575 -96.11722961 116.44809723 -96.11352539 115.22827148 C-96.11367142 113.989422 -96.11381744 112.75057251 -96.1139679 111.47418213 C-96.11338892 108.06730167 -96.10835959 104.66048116 -96.10139394 101.25361133 C-96.09515993 97.69683174 -96.09455656 94.14005142 -96.09336853 90.58326721 C-96.09025535 83.84363418 -96.08204215 77.10401729 -96.07201904 70.36439139 C-96.06085748 62.69341602 -96.05534735 55.02243989 -96.05032361 47.35145843 C-96.03985952 31.567628 -96.02151421 15.78381982 -96 0 C-81.81 0 -67.62 0 -53 0 C-51.99740493 3.00778521 -51.69685358 5.53820647 -51.4375 8.6875 C-51.35371094 9.68136719 -51.26992188 10.67523438 -51.18359375 11.69921875 C-51.12300781 12.45847656 -51.06242188 13.21773438 -51 14 C-49.35 13.34 -47.7 12.68 -46 12 C-46 11.34 -46 10.68 -46 10 C-42.12963993 6.91715737 -37.99213851 4.46801299 -33 4 C-33 3.34 -33 2.68 -33 2 C-22.32407222 -2.52066799 -11.27286913 -0.75152461 0 0 Z " fill="#010101" transform="translate(568,446)"/>
<path d="M0 0 C0.886875 0.4021875 1.77375 0.804375 2.6875 1.21875 C10.93638584 5.34319292 18.86875224 11.20445051 24 19 C24 19.66 24 20.32 24 21 C25.23234375 20.79503906 26.4646875 20.59007812 27.734375 20.37890625 C29.40621054 20.10652855 31.07808784 19.83440705 32.75 19.5625 C33.55566406 19.42779297 34.36132812 19.29308594 35.19140625 19.15429688 C67.91971356 13.87138113 100.1236133 17.90430798 132 26 C133.33321785 26.33379493 134.66650697 26.66730611 136 27 C136.60585938 26.27554687 137.21171875 25.55109375 137.8359375 24.8046875 C146.5548777 14.74437188 158.20350916 5.93197079 172.03955078 4.83886719 C191.28505402 4.46398309 191.28505402 4.46398309 199 8 C199.886875 8.4021875 200.77375 8.804375 201.6875 9.21875 C216.40609395 16.57804698 224.75249577 27.66114147 230 43 C232.86346081 53.04759778 232.2372157 66.49541983 228 76 C227.61585938 76.66128906 227.23171875 77.32257813 226.8359375 78.00390625 C225.85198974 79.9459878 225.85198974 79.9459878 226.109375 81.98828125 C227.32165882 84.72655392 229.03646979 86.17033134 231.25 88.1875 C238.37767476 95.11152691 244.18050216 102.96820733 250 111 C250.45407227 111.62535645 250.90814453 112.25071289 251.37597656 112.89501953 C260.19056673 125.18799801 268.2661301 138.75091081 273.16796875 153.09375 C275.87725202 162.63378206 275.87725202 162.63378206 281.67285156 170.24560547 C285.90563368 172.12095997 290.45756508 172.40895915 295 173 C305.53560271 177.15636761 312.9694068 184.03650176 317.9921875 194.1171875 C320.62185303 201.63925401 321.29240081 209.12299881 321.22705078 217.03955078 C321.22734283 217.98710739 321.22763489 218.934664 321.22793579 219.91093445 C321.22655571 223.00582421 321.21105739 226.10046542 321.1953125 229.1953125 C321.19157766 231.35578276 321.18873292 233.51625473 321.18673706 235.67672729 C321.17913766 241.33525349 321.1595212 246.99367537 321.1373291 252.65216064 C321.11679076 258.43736358 321.10771832 264.22258354 321.09765625 270.0078125 C321.07627156 281.33859463 321.04111983 292.66927228 321 304 C308.13 304.33 295.26 304.66 282 305 C280.88625 308.196875 279.7725 311.39375 278.625 314.6875 C268.03669307 344.14994372 252.34275448 370.89062942 230.50585938 393.44287109 C229.44358117 394.54131636 228.38821763 395.64646921 227.33789062 396.75634766 C217.98421678 406.62649795 208.0639417 415.10360035 197 423 C196.38189453 423.44682129 195.76378906 423.89364258 195.12695312 424.35400391 C179.40932523 435.63024998 162.0168477 444.08134158 144 451 C143.85304688 452.45019531 143.85304688 452.45019531 143.703125 453.9296875 C141.98659671 468.87532171 137.15462484 483.20409444 125 493 C110.79461457 502.94137429 95.98597809 506.08904483 78.9140625 503.5390625 C76.47958287 502.86938364 74.29472883 502.05175071 72 501 C71.113125 500.5978125 70.22625 500.195625 69.3125 499.78125 C55.24069225 492.74534613 47.40927835 482.56624759 41.6640625 468.2265625 C41 466 41 466 41 462 C40.27731934 461.9575415 39.55463867 461.91508301 38.81005859 461.87133789 C31.22941931 461.34414276 24.01849499 460.1712952 16.625 458.4375 C15.49940674 458.17356445 14.37381348 457.90962891 13.21411133 457.63769531 C-23.70573662 448.64489884 -58.12490529 429.95731207 -85.44287109 403.50585938 C-86.54131636 402.44358117 -87.64646921 401.38821763 -88.75634766 400.33789062 C-98.62649795 390.98421678 -107.10360035 381.0639417 -115 370 C-115.67023193 369.0728418 -115.67023193 369.0728418 -116.35400391 368.12695312 C-128.44944556 351.26747259 -136.96108874 332.75093146 -144.12133789 313.34570312 C-144.41129639 312.57162109 -144.70125488 311.79753906 -145 311 C-145.29084473 310.10394043 -145.58168945 309.20788086 -145.88134766 308.28466797 C-146.8881746 305.55939371 -146.8881746 305.55939371 -150.67578125 304.6640625 C-152.21799551 304.30304722 -153.76390122 303.9575638 -155.3125 303.625 C-168.4504835 300.36924673 -178.40996569 294.7297798 -188 285 C-188.57363281 284.43667969 -189.14726562 283.87335938 -189.73828125 283.29296875 C-202.79278586 269.42888246 -204.91118592 249.97730061 -204.3828125 231.86328125 C-203.38481805 212.49653994 -195.87725838 196.46149677 -182 182.875 C-175.03934544 176.98704905 -165.76492861 171.26729055 -156.5390625 170.453125 C-149.89593743 169.88250995 -149.89593743 169.88250995 -144 167 C-139.61757433 160.76409971 -137.51149243 153.18534041 -135.08984375 146.03027344 C-133.56842804 141.80002886 -131.64596191 137.88101401 -129.5 133.9375 C-129.13382568 133.26211182 -128.76765137 132.58672363 -128.39038086 131.89086914 C-114.35241317 106.61390561 -93.84010285 80.60408247 -70 64 C-70.23976563 62.80117188 -70.23976563 62.80117188 -70.484375 61.578125 C-72.00266638 51.042103 -72.50231583 38.82323453 -68 29 C-67.5978125 28.113125 -67.195625 27.22625 -66.78125 26.3125 C-59.42195302 11.59390605 -48.33885853 3.24750423 -33 -2 C-23.00134322 -4.84951314 -9.42512679 -4.31984978 0 0 Z M-57 16 C-66.63637122 27.40518888 -70.00080767 40.27144719 -69 55 C-68.23378248 58.7553568 -67.22245267 62.36902451 -66 66 C-66.52464844 66.21785156 -67.04929687 66.43570313 -67.58984375 66.66015625 C-70.92417012 68.5137607 -73.69405679 70.94896234 -76.5625 73.4375 C-77.18020264 73.97173584 -77.79790527 74.50597168 -78.43432617 75.05639648 C-87.86359565 83.29439562 -96.26544407 92.14249777 -104 102 C-105.16789062 103.42505859 -105.16789062 103.42505859 -106.359375 104.87890625 C-120.13793138 122.05822097 -142 152.15223716 -142 175 C-143.918125 175.1546875 -143.918125 175.1546875 -145.875 175.3125 C-161.16703839 177.09895308 -174.73157633 184.56398299 -185 196 C-191.06802034 204.03961617 -194.57783569 212.27028912 -197 222 C-197.26151855 222.91881958 -197.26151855 222.91881958 -197.52832031 223.85620117 C-201.0082091 239.67240378 -198.31294016 259.53063972 -190.5390625 273.6953125 C-183.860562 283.69611274 -175.52582478 290.49279263 -164.8125 295.6875 C-164.16780762 296.00082275 -163.52311523 296.31414551 -162.85888672 296.63696289 C-158.48185163 298.63834396 -154.8385662 299.26224706 -150 299.625 C-146.78515625 300.28125 -146.78515625 300.28125 -144 302 C-141.32572388 306.5351318 -140.24439832 311.8056054 -138.85546875 316.83984375 C-132.52232141 339.29962809 -118.80993785 361.09919755 -104 379 C-103.52949219 379.57202148 -103.05898438 380.14404297 -102.57421875 380.73339844 C-92.70436901 392.6670624 -82.21378942 403.41661516 -70 413 C-69.04996094 413.77859375 -68.09992188 414.5571875 -67.12109375 415.359375 C-36.36327375 440.02848223 3.61398367 456.82473435 43 460 C43.04125 461.0725 43.0825 462.145 43.125 463.25 C44.66250591 475.00984249 52.62946562 484.6293715 61.4140625 492.03515625 C72.45247031 500.28768018 84.42649838 502.85514615 98 502 C112.55519591 499.5451396 124.08925219 491.90801786 132.875 480.125 C138.10830622 472.21332715 141.18929088 463.19681565 141.0625 453.6875 C141.04166667 452.125 141.02083333 450.5625 141 449 C141.58265625 448.84724609 142.1653125 448.69449219 142.765625 448.53710938 C149.87958198 446.55168899 156.3664965 443.72407629 163 440.5 C164.0921582 439.97100098 165.18431641 439.44200195 166.30957031 438.89697266 C180.92190611 431.70646968 194.44735046 423.38523049 207 413 C207.85803223 412.29423828 207.85803223 412.29423828 208.73339844 411.57421875 C220.6670624 401.70436901 231.41661516 391.21378942 241 379 C241.77859375 378.04996094 242.5571875 377.09992188 243.359375 376.12109375 C258.7296648 356.95718147 281 324.42869254 281 299 C292.55 299 304.1 299 316 299 C316.09059887 287.06429574 316.1638876 275.12882226 316.20724869 263.19285107 C316.22806652 257.64967698 316.25627779 252.10675166 316.30175781 246.5637207 C316.34542293 241.20798125 316.3691807 235.85248012 316.37950897 230.49657631 C316.38686336 228.45976323 316.40122426 226.42296225 316.42292023 224.38625145 C316.56356941 210.62763626 316.31070707 199.05010181 307.04296875 188.00390625 C300.57955088 181.6640719 291.34595468 177.1597583 282.20703125 176.9296875 C281.47871094 176.95289063 280.75039063 176.97609375 280 177 C279.87625 176.42636719 279.7525 175.85273438 279.625 175.26171875 C270.92076229 139.41113969 248.09333817 108.15568387 223 82 C223.34933594 81.04738281 223.69867187 80.09476562 224.05859375 79.11328125 C224.51841666 77.84642221 224.97804162 76.5794913 225.4375 75.3125 C225.66759766 74.68666016 225.89769531 74.06082031 226.13476562 73.41601562 C231.00873193 59.9243118 229.71137384 46.90273186 223.875 33.9375 C217.32734951 21.62400802 206.60579066 13.16444882 193.54296875 8.7265625 C180.05472122 4.87277749 166.78558859 6.93436732 154.484375 13.41796875 C147.5720547 17.81968215 142.12852372 23.69146197 137 30 C136.47494873 29.83918945 135.94989746 29.67837891 135.40893555 29.51269531 C101.67272596 19.34869707 65.69726385 16.25433625 30.83203125 22.34375 C27 23 27 23 23 23 C21.61328125 21.53125 21.61328125 21.53125 20.3125 19.5 C12.99725856 9.17474649 2.03016525 1.46110041 -10.59765625 -0.75390625 C-28.97937722 -2.63691181 -44.22380931 2.53668645 -57 16 Z " fill="#FDFDFD" transform="translate(519,270)"/>
<path d="M0 0 C14.52 0 29.04 0 44 0 C45.87085984 3.74171968 46.25782521 5.00603044 46.31884766 8.95214844 C46.33871735 9.93286316 46.35858704 10.91357788 46.37905884 11.92401123 C46.39061005 12.97518127 46.40216125 14.02635132 46.4140625 15.109375 C46.43342865 16.19132141 46.4527948 17.27326782 46.4727478 18.38800049 C46.53250237 21.84192026 46.57891297 25.29587344 46.625 28.75 C46.66318353 31.09246241 46.70223548 33.43491084 46.7421875 35.77734375 C46.83820056 41.51810499 46.92326027 47.25895053 47 53 C48.01320313 52.3800415 49.02640625 51.76008301 50.0703125 51.12133789 C51.42175016 50.30073837 52.77331968 49.48035599 54.125 48.66015625 C54.79015625 48.25236938 55.4553125 47.84458252 56.140625 47.42443848 C70.12306383 38.96386351 85.79887539 37.97281419 101.76171875 40.625 C115.36999735 44.60964628 124.55314604 54.41953458 131.1875 66.5 C141.0533821 87.12866256 141.92511815 114.40830408 135.3125 136.0625 C129.33955718 152.47719322 119.74290696 165.87901917 104 174 C89.91551817 180.46695926 72.38632572 181.75585172 57.4375 177.25 C52.79407338 175.49302777 48.35046895 173.38849276 44 171 C43.34 172.65 42.68 174.3 42 176 C28.14 176 14.28 176 0 176 C0 117.92 0 59.84 0 0 Z M6 3 C6 58.11 6 113.22 6 170 C17.88 170 29.76 170 42 170 C42.495 167.03 42.495 167.03 43 164 C43.87140625 164.40992188 44.7428125 164.81984375 45.640625 165.2421875 C53.39459813 168.74993725 60.43131105 171.28594259 69 172 C70.08796875 172.09410156 71.1759375 172.18820312 72.296875 172.28515625 C87.29504123 172.94684005 101.150833 167.80808853 112.390625 157.890625 C125.34021284 144.7648523 131.29491293 125.99449064 131.375 107.8125 C130.80305238 88.59505985 127.63150132 68.87712529 113.1875 55 C103.47059434 46.87072794 90.51025414 43.88757215 78 45 C65.45853792 46.65363926 54.79621215 52.16303028 45 60 C44.67 41.19 44.34 22.38 44 3 C31.46 3 18.92 3 6 3 Z " fill="#F9F9F9" transform="translate(866,399)"/>
<path d="M0 0 C0.99429016 0.00031723 0.99429016 0.00031723 2.00866699 0.00064087 C16.30942324 0.04619155 28.96171838 1.75674052 41.375 9.375 C42.06851563 9.79265625 42.76203125 10.2103125 43.4765625 10.640625 C55.17378037 18.49898759 60.96594552 31.80341698 64.1875 45.0625 C66.22842193 56.02385599 65.63195085 67.2734057 65.375 78.375 C62.12373227 80.00063386 58.54962025 79.5040896 54.97802734 79.48852539 C53.67548759 79.48874443 53.67548759 79.48874443 52.34663391 79.4889679 C49.46804328 79.48826961 46.58951686 79.4804811 43.7109375 79.47265625 C41.71839432 79.47079177 39.72585069 79.46936801 37.73330688 79.46836853 C32.48240906 79.46454569 27.23153878 79.45471737 21.98065186 79.44366455 C16.62512586 79.43344543 11.26959543 79.42886983 5.9140625 79.42382812 C-4.59897045 79.41309491 -15.11198294 79.39602127 -25.625 79.375 C-25.20033503 81.14895508 -24.7597591 82.91910631 -24.3125 84.6875 C-24.06886719 85.67363281 -23.82523438 86.65976562 -23.57421875 87.67578125 C-22.60988133 90.41799178 -21.7228822 91.46516326 -19.625 93.375 C-19.625 94.035 -19.625 94.695 -19.625 95.375 C-18.965 95.375 -18.305 95.375 -17.625 95.375 C-17.625 96.035 -17.625 96.695 -17.625 97.375 C-16.305 97.705 -14.985 98.035 -13.625 98.375 C-13.625 99.035 -13.625 99.695 -13.625 100.375 C-12.41263672 100.55675781 -12.41263672 100.55675781 -11.17578125 100.7421875 C-10.10714844 100.90976562 -9.03851563 101.07734375 -7.9375 101.25 C-6.88175781 101.41242188 -5.82601562 101.57484375 -4.73828125 101.7421875 C-1.625 102.375 -1.625 102.375 0.86328125 103.42578125 C9.14568361 106.55583378 19.16422313 104.31330461 27.4375 102.12890625 C30.40321699 101.36775814 33.34990297 100.83866815 36.375 100.375 C36.375 99.715 36.375 99.055 36.375 98.375 C39.21926113 97.01977467 42.07674436 95.69500572 44.9375 94.375 C45.73736328 93.9934375 46.53722656 93.611875 47.36132812 93.21875 C52.22080049 90.99727692 55.91704009 89.81304789 61.375 90.375 C62.035 90.705 62.695 91.035 63.375 91.375 C64.0078125 93.44140625 64.0078125 93.44140625 64.5 95.9375 C64.66757812 96.76378906 64.83515625 97.59007812 65.0078125 98.44140625 C65.12898437 99.07949219 65.25015625 99.71757813 65.375 100.375 C65.045 100.375 64.715 100.375 64.375 100.375 C64.045 110.275 63.715 120.175 63.375 130.375 C60.260625 131.468125 57.14625 132.56125 53.9375 133.6875 C52.52513062 134.19470581 52.52513062 134.19470581 51.08422852 134.7121582 C37.46483229 139.36390585 23.8436002 140.88557598 9.53564453 140.76611328 C7.24321516 140.74995217 4.95253485 140.76612224 2.66015625 140.78515625 C-18.91851106 140.81531743 -40.39449608 135.81726044 -56.41015625 120.5859375 C-57.14105469 119.85632813 -57.87195313 119.12671875 -58.625 118.375 C-59.48931641 117.52808594 -59.48931641 117.52808594 -60.37109375 116.6640625 C-73.40948308 102.77902451 -75.53648993 83.36272275 -75.0078125 65.23828125 C-73.9662136 45.02536677 -65.69688036 29.32814665 -51.55859375 15.04296875 C-46.01810154 10.26359466 -40.80365658 7.36663933 -33.8125 5.1875 C-33.06935547 4.94064453 -32.32621094 4.69378906 -31.56054688 4.43945312 C-20.992156 1.02589018 -11.10953513 -0.0146435 0 0 Z M-52.625 26.375 C-65.52066626 42.97760865 -68.1834914 60.81070597 -66.625 81.375 C-64.59984161 96.89472341 -57.55757701 110.72423122 -45.0234375 120.37890625 C-30.65112539 129.96735079 -14.73278863 133.6212523 2.375 134.375 C3.80779297 134.45427734 3.80779297 134.45427734 5.26953125 134.53515625 C23.40992463 135.07075195 41.59693628 131.08622549 58.375 124.375 C58.375 114.145 58.375 103.915 58.375 93.375 C53.36804627 93.375 52.64383698 93.48882694 48.8125 96.0625 C36.76449268 103.64629032 25.04283817 106.73405227 10.9375 106.6875 C9.47860352 106.71166992 9.47860352 106.71166992 7.99023438 106.73632812 C-2.4396732 106.74329533 -11.6587864 104.34925214 -19.625 97.375 C-25.08649846 91.25764473 -26.40323501 85.52147162 -28.625 77.375 C0.745 77.375 30.115 77.375 60.375 77.375 C60.57001252 45.47210103 60.57001252 45.47210103 44.71875 19.5625 C31.80229117 7.50713842 14.10877797 4.59238429 -3.0625 5.0703125 C-21.49967895 6.03523406 -40.16309381 12.19344009 -52.625 26.375 Z " fill="#F8F8F8" transform="translate(241.625,438.625)"/>
<path d="M0 0 C14.870625 -0.061875 29.74125 -0.12375 45.0625 -0.1875 C49.72898682 -0.21481201 54.39547363 -0.24212402 59.20336914 -0.27026367 C64.97546387 -0.28381348 64.97546387 -0.28381348 67.69187927 -0.28633118 C69.5579087 -0.29088771 71.42393024 -0.3013324 73.28990173 -0.31672668 C95.37952425 -0.4895908 115.22380287 2.1176371 132.06640625 17.94140625 C142.64310709 29.24911017 145.35798161 43.47648379 145.21875 58.49609375 C144.19065681 74.96394364 138.26199417 89.43371582 126.1875 100.75 C112.74411439 112.26710864 96.95364793 118.41697742 79.2734375 118.1953125 C77.96289902 118.19106766 77.96289902 118.19106766 76.62588501 118.18673706 C73.87544186 118.17567303 71.12534226 118.15059581 68.375 118.125 C66.49349433 118.11495234 64.61198349 118.10582964 62.73046875 118.09765625 C58.15351643 118.07577912 53.57681615 118.04134719 49 118 C49.00666183 118.61974197 49.01332367 119.23948395 49.02018738 119.87800598 C49.08646509 126.3177879 49.13176909 132.75747322 49.16479492 139.19750977 C49.17989816 141.60217218 49.20038208 144.00680698 49.22631836 146.41137695 C49.26263351 149.86416431 49.279711 153.31658804 49.29296875 156.76953125 C49.30845261 157.84773636 49.32393646 158.92594147 49.33988953 160.03681946 C49.34011612 161.03763046 49.34034271 162.03844147 49.34057617 163.06958008 C49.34723801 163.95116287 49.35389984 164.83274567 49.36076355 165.74104309 C48.92030821 168.4989981 48.20791263 169.33785308 46 171 C31.45008591 175.84997136 15.33695609 172 0 172 C0 115.24 0 58.48 0 0 Z M6 5 C6 57.8 6 110.6 6 165 C19.2 165 32.4 165 46 165 C46 147.84 46 130.68 46 113 C50.785 113.04125 55.57 113.0825 60.5 113.125 C83.91991185 113.16994718 104.3480229 111.21271483 122.37890625 94.83984375 C133.35371316 83.36523539 137.52964582 68.47867476 137.3515625 52.88525391 C136.88984792 39.60775339 132.33536082 28.14308391 122.58203125 18.94921875 C113.25840158 11.91065414 102.46224876 7.88955327 91 6 C89.02 5.67 87.04 5.34 85 5 C58.93 5 32.86 5 6 5 Z " fill="#F6F6F6" transform="translate(19,404)"/>
<path d="M0 0 C15.51 0 31.02 0 47 0 C47 43.23 47 86.46 47 131 C72.41 131 97.82 131 124 131 C124.9415891 142.29906923 125 153.66176577 125 165 C83.75 165 42.5 165 0 165 C0 110.55 0 56.1 0 0 Z M4 4 C4 56.8 4 109.6 4 164 C41.62 164 79.24 164 118 164 C118 153.77 118 143.54 118 133 C93.58 133 69.16 133 44 133 C44 90.43 44 47.86 44 4 C30.8 4 17.6 4 4 4 Z " fill="#EDEDED" transform="translate(583,405)"/>
<path d="M0 0 C0 13.2 0 26.4 0 40 C-0.66 40 -1.32 40 -2 40 C-2 40.66 -2 41.32 -2 42 C-8.28905056 43.20428628 -14.58558873 43.49900983 -20.5625 40.875 C-23.49664411 39.8217175 -25.73404611 40.1589475 -28.7734375 40.6484375 C-31.11835535 41.01868769 -33.4474981 41.23478555 -35.8125 41.4375 C-39.52624089 41.79544635 -43.15672563 42.35148017 -46.82421875 43.03515625 C-48.28541138 43.30598022 -48.28541138 43.30598022 -49.77612305 43.58227539 C-50.51000244 43.72012451 -51.24388184 43.85797363 -52 44 C-51.99777939 44.97861496 -51.99555878 45.95722992 -51.99327087 46.96549988 C-51.97299342 56.19096301 -51.95800564 65.41642161 -51.94818783 74.64190197 C-51.94297072 79.38473121 -51.9358943 84.12754245 -51.92456055 88.87036133 C-51.91369008 93.44798777 -51.90771433 98.02559689 -51.90512276 102.60323524 C-51.90327602 104.34911687 -51.89966982 106.09499756 -51.89426994 107.84087181 C-51.88700435 110.28740863 -51.88601139 112.73387404 -51.88647461 115.18041992 C-51.88287933 115.90115189 -51.87928406 116.62188385 -51.87557983 117.36445618 C-51.88309759 121.03725009 -52.12472758 124.4284886 -53 128 C-58.96313166 128.02464574 -64.92623395 128.042834 -70.8894043 128.05493164 C-72.91968298 128.05997278 -74.94995802 128.06680557 -76.98022461 128.07543945 C-79.89177347 128.08751467 -82.8032745 128.09323034 -85.71484375 128.09765625 C-87.08514992 128.10539818 -87.08514992 128.10539818 -88.48313904 128.11329651 C-90.65575427 128.11349168 -92.82827296 128.06211805 -95 128 C-96 127 -96 127 -96.12304783 124.8935461 C-96.12212604 123.95792623 -96.12120424 123.02230635 -96.12025452 122.05833435 C-96.12162918 120.98836212 -96.12300385 119.91838989 -96.12442017 118.81599426 C-96.12082489 117.63204575 -96.11722961 116.44809723 -96.11352539 115.22827148 C-96.11367142 113.989422 -96.11381744 112.75057251 -96.1139679 111.47418213 C-96.11338892 108.06730167 -96.10835959 104.66048116 -96.10139394 101.25361133 C-96.09515993 97.69683174 -96.09455656 94.14005142 -96.09336853 90.58326721 C-96.09025535 83.84363418 -96.08204215 77.10401729 -96.07201904 70.36439139 C-96.06085748 62.69341602 -96.05534735 55.02243989 -96.05032361 47.35145843 C-96.03985952 31.567628 -96.02151421 15.78381982 -96 0 C-81.81 0 -67.62 0 -53 0 C-51.99740493 3.00778521 -51.69685358 5.53820647 -51.4375 8.6875 C-51.35371094 9.68136719 -51.26992188 10.67523438 -51.18359375 11.69921875 C-51.12300781 12.45847656 -51.06242188 13.21773438 -51 14 C-49.35 13.34 -47.7 12.68 -46 12 C-46 11.34 -46 10.68 -46 10 C-42.12963993 6.91715737 -37.99213851 4.46801299 -33 4 C-33 3.34 -33 2.68 -33 2 C-22.32407222 -2.52066799 -11.27286913 -0.75152461 0 0 Z M-92 2 C-92 41.93 -92 81.86 -92 123 C-79.46 123 -66.92 123 -54 123 C-54 96.27 -54 69.54 -54 42 C-44.02230865 39.86192328 -35.99097658 38.57019737 -26.0625 38.75 C-24.31356445 38.75773437 -24.31356445 38.75773437 -22.52929688 38.765625 C-16.84320306 38.81740502 -11.6734648 39.18950503 -6 40 C-6 27.46 -6 14.92 -6 2 C-26.32297705 2 -38.48113088 6.76396858 -54 19 C-54 13.39 -54 7.78 -54 2 C-66.54 2 -79.08 2 -92 2 Z " fill="#F1F1F1" transform="translate(568,446)"/>
<path d="M0 0 C14.52 0 29.04 0 44 0 C44.495 1.98 44.495 1.98 45 4 C25.695 3.505 25.695 3.505 6 3 C6 58.11 6 113.22 6 170 C18.21 170 30.42 170 43 170 C42.505 172.97 42.505 172.97 42 176 C28.14 176 14.28 176 0 176 C0 117.92 0 59.84 0 0 Z " fill="#F1F1F1" transform="translate(866,399)"/>
<path d="M0 0 C0.66 0 1.32 0 2 0 C2.33 0.66 2.66 1.32 3 2 C5.27286001 2.65277964 7.57011289 3.22131362 9.875 3.75 C21.64461019 6.68925335 31.8030136 11.91285279 38.53125 22.3828125 C43.26028534 31.15352339 44.30831751 40.19483753 44.22705078 50.03955078 C44.22734283 50.98710739 44.22763489 51.934664 44.22793579 52.91093445 C44.22655571 56.00582421 44.21105739 59.10046542 44.1953125 62.1953125 C44.19157766 64.35578276 44.18873292 66.51625473 44.18673706 68.67672729 C44.17913766 74.33525349 44.1595212 79.99367537 44.1373291 85.65216064 C44.11679076 91.43736358 44.10771832 97.22258354 44.09765625 103.0078125 C44.07627156 114.33859463 44.04111983 125.66927228 44 137 C30.47 137.33 16.94 137.66 3 138 C3.33 136.02 3.66 134.04 4 132 C15.55 132 27.1 132 39 132 C38.9595782 120.06407053 38.90236008 108.12853901 38.81609726 96.19285107 C38.77669633 90.64979609 38.74447162 85.10689823 38.72900391 79.5637207 C38.71378873 74.2077975 38.67925693 68.85230644 38.63169098 63.49657631 C38.61692724 61.45983971 38.60896188 59.42304139 38.60811615 57.38625145 C38.59726009 44.3434891 38.52061166 32.35798164 29.80078125 21.77734375 C24.63927013 16.68301065 19.16033213 14.13954975 12.09375 12.671875 C3.59714076 10.90719462 3.59714076 10.90719462 1.375 7.53125 C0.62905584 4.97782576 0.16695895 2.65110583 0 0 Z " fill="#F4F5F7" transform="translate(796,437)"/>
<path d="M0 0 C6.09502912 3.84807578 9.62687443 8.93921511 11.77075195 15.73266602 C12.95814984 21.04789074 12.84556307 26.39015603 12.8125 31.8125 C12.8424707 33.545 12.8424707 33.545 12.87304688 35.3125 C12.86777661 44.65140592 11.1210904 54.38468231 5.06640625 61.8671875 C-3.50343504 69.82348357 -13.01399073 70.18110431 -24.0859375 69.84375 C-28.16944233 69.68873724 -30.43798393 68.83317202 -34.625 67.4375 C-34.625 46.6475 -34.625 25.8575 -34.625 4.4375 C-24.46588628 -0.64205686 -11.32968927 -5.1578741 0 0 Z M-32.625 7.4375 C-32.625 25.5875 -32.625 43.7375 -32.625 62.4375 C-27.34726495 64.54859402 -23.85248746 64.80387745 -18.3125 64.8125 C-17.49587891 64.83699219 -16.67925781 64.86148438 -15.83789062 64.88671875 C-8.83874542 64.9201808 -3.85115321 63.0526826 1.58203125 58.6484375 C2.11183594 58.04257812 2.64164063 57.43671875 3.1875 56.8125 C3.73019531 56.22210937 4.27289062 55.63171875 4.83203125 55.0234375 C9.11744348 47.84130359 9.85903506 40.13935979 9.75 31.9375 C9.76160156 31.06480469 9.77320313 30.19210937 9.78515625 29.29296875 C9.75210147 21.85564324 8.71036635 14.05827898 4.0625 8 C-0.95956078 3.21152345 -5.37766372 1.99171962 -12.25 1.9375 C-14.18746094 1.89109375 -14.18746094 1.89109375 -16.1640625 1.84375 C-22.08037563 2.43488261 -22.08037563 2.43488261 -32.625 7.4375 Z " fill="#F5F5F5" transform="translate(944.625,474.5625)"/>
<path d="M0 0 C0.14513802 4.24964127 0.23402037 8.49864635 0.3125 12.75 C0.35439453 13.9565625 0.39628906 15.163125 0.43945312 16.40625 C0.45556641 17.56640625 0.47167969 18.7265625 0.48828125 19.921875 C0.51446533 20.99018555 0.54064941 22.05849609 0.56762695 23.15917969 C0 26 0 26 -2.3972168 28.30297852 C-4.60852257 29.74475569 -6.74831605 31.04575967 -9.125 32.1875 C-9.78757812 32.51105469 -10.45015625 32.83460938 -11.1328125 33.16796875 C-15.50858278 35.11784128 -19.54053112 35.25212219 -24.25 35.3125 C-24.98863281 35.34150391 -25.72726562 35.37050781 -26.48828125 35.40039062 C-32.14305777 35.46521611 -35.33455473 34.20526774 -40 31 C-43.60117999 27.03870201 -44.30863736 23.38909963 -44.2109375 18.0546875 C-43.73329493 13.40209504 -41.58834978 10.61704977 -38.4375 7.3125 C-28.23777253 -0.44924383 -12.22178805 -0.18146563 0 0 Z M-22.125 5.1875 C-23.29675781 5.38279297 -23.29675781 5.38279297 -24.4921875 5.58203125 C-30.2860644 6.65137095 -34.40717993 8.17264994 -39 12 C-41.96039696 16.44059544 -41.89758098 20.79707298 -41 26 C-38.91514232 28.94182372 -36.20777714 30.39611143 -33 32 C-21.93143537 32.97809464 -13.54792417 32.33603056 -4 26 C-2.77215191 24.99440206 -2.77215191 24.99440206 -2.88647461 22.95874023 C-2.89171143 22.08419189 -2.89694824 21.20964355 -2.90234375 20.30859375 C-2.90556641 19.36435547 -2.90878906 18.42011719 -2.91210938 17.44726562 C-2.92048828 16.45404297 -2.92886719 15.46082031 -2.9375 14.4375 C-2.94201172 13.44041016 -2.94652344 12.44332031 -2.95117188 11.41601562 C-2.96299993 8.94395151 -2.97948151 6.47200482 -3 4 C-9.49366191 3.85477162 -15.71563004 4.11927167 -22.125 5.1875 Z " fill="#EAECF0" transform="translate(798,512)"/>
<path d="M0 0 C5.86812906 3.7095882 8.72158873 8.59498331 10.83203125 15.03125 C11.3125 17.375 11.3125 17.375 11.3125 23.375 C-5.5175 23.375 -22.3475 23.375 -39.6875 23.375 C-38.52357241 12.89965167 -36.40306873 8.30794845 -28.62890625 1.6015625 C-21.18369354 -3.10225398 -8.04815701 -3.69322693 0 0 Z M-24.6875 2.375 C-24.6875 3.035 -24.6875 3.695 -24.6875 4.375 C-26.3375 5.035 -27.9875 5.695 -29.6875 6.375 C-29.6875 7.035 -29.6875 7.695 -29.6875 8.375 C-30.6775 8.705 -31.6675 9.035 -32.6875 9.375 C-34.0075 13.005 -35.3275 16.635 -36.6875 20.375 C-21.8375 20.375 -6.9875 20.375 8.3125 20.375 C7.55135475 14.7743299 7.55135475 14.7743299 6.3125 9.375 C5.6525 9.375 4.9925 9.375 4.3125 9.375 C3.6525 8.055 2.9925 6.735 2.3125 5.375 C1.6525 5.375 0.9925 5.375 0.3125 5.375 C-0.1825 3.89 -0.1825 3.89 -0.6875 2.375 C-3.34520226 1.37894346 -5.87313657 1.24691671 -8.69140625 1.2421875 C-9.43197266 1.24089844 -10.17253906 1.23960937 -10.93554688 1.23828125 C-11.69931641 1.24214844 -12.46308594 1.24601562 -13.25 1.25 C-14.01763672 1.24613281 -14.78527344 1.24226563 -15.57617188 1.23828125 C-18.86677139 1.244019 -21.54508907 1.32752969 -24.6875 2.375 Z " fill="#F7F7F7" transform="translate(252.6875,469.625)"/>
<path d="M0 0 C5.86812906 3.7095882 8.72158873 8.59498331 10.83203125 15.03125 C11.3125 17.375 11.3125 17.375 11.3125 23.375 C-5.5175 23.375 -22.3475 23.375 -39.6875 23.375 C-38.42167581 13.24840646 -36.50804425 8.45765997 -28.8828125 1.8203125 C-21.41648447 -3.09524154 -8.17825498 -3.75292772 0 0 Z M-24.6875 2.375 C-24.6875 3.035 -24.6875 3.695 -24.6875 4.375 C-26.3375 5.035 -27.9875 5.695 -29.6875 6.375 C-29.6875 7.035 -29.6875 7.695 -29.6875 8.375 C-30.6775 8.705 -31.6675 9.035 -32.6875 9.375 C-34.0075 13.005 -35.3275 16.635 -36.6875 20.375 C-21.8375 20.375 -6.9875 20.375 8.3125 20.375 C7.55135475 14.7743299 7.55135475 14.7743299 6.3125 9.375 C5.6525 9.375 4.9925 9.375 4.3125 9.375 C3.6525 8.055 2.9925 6.735 2.3125 5.375 C1.6525 5.375 0.9925 5.375 0.3125 5.375 C-0.1825 3.89 -0.1825 3.89 -0.6875 2.375 C-3.34520226 1.37894346 -5.87313657 1.24691671 -8.69140625 1.2421875 C-9.43197266 1.24089844 -10.17253906 1.23960937 -10.93554688 1.23828125 C-11.69931641 1.24214844 -12.46308594 1.24601562 -13.25 1.25 C-14.01763672 1.24613281 -14.78527344 1.24226563 -15.57617188 1.23828125 C-18.86677139 1.244019 -21.54508907 1.32752969 -24.6875 2.375 Z " fill="#F7F8F9" transform="translate(398.6875,469.625)"/>
<path d="M0 0 C6.8371875 -0.12375 6.8371875 -0.12375 13.8125 -0.25 C15.22635986 -0.28641602 16.64021973 -0.32283203 18.09692383 -0.36035156 C27.27913895 -0.44011301 35.4455272 0.31942464 42.7890625 6.25390625 C43.39492187 7.01574219 44.00078125 7.77757812 44.625 8.5625 C45.25664063 9.32691406 45.88828125 10.09132813 46.5390625 10.87890625 C50.2164982 16.21807092 49.5187292 22.78965878 49 29 C47.24957493 35.5260413 43.96614462 40.62192548 38.078125 44.15234375 C32.23577833 47.23824491 27.23102914 48.12905701 20.60546875 48.09765625 C19.52160889 48.09515869 18.43774902 48.09266113 17.32104492 48.09008789 C15.27494019 48.07643188 15.27494019 48.07643188 13.1875 48.0625 C6.6596875 48.0315625 6.6596875 48.0315625 0 48 C0 32.16 0 16.32 0 0 Z M2 2 C2 16.85 2 31.7 2 47 C23.7828951 47.95454544 23.7828951 47.95454544 42.55859375 38.64453125 C47.40135745 33.11931847 47.59381757 27.27255839 47.4140625 20.1640625 C46.60380942 13.97250598 43.81885842 10.47056638 39.0625 6.625 C33.7986087 3.83191482 29.23531875 2.74959593 23.2890625 2.5859375 C22.16709473 2.55032715 21.04512695 2.5147168 19.88916016 2.47802734 C17.77840088 2.42702881 17.77840088 2.42702881 15.625 2.375 C11.12875 2.25125 6.6325 2.1275 2 2 Z " fill="#DDDDDD" transform="translate(65,439)"/>
<path d="M0 0 C0.33 0 0.66 0 1 0 C1 14.52 1 29.04 1 44 C7.1565625 43.5978125 7.1565625 43.5978125 13.4375 43.1875 C15.35067017 43.07184692 15.35067017 43.07184692 17.30249023 42.95385742 C26.83318382 42.27388981 35.19575062 41.12826125 42 34 C46.145801 27.50491177 45.28040974 20.48797866 45 13 C45.99 13 46.98 13 48 13 C48.54920101 22.8703626 48.02869421 29.96413224 41.75 37.8125 C34.95386168 43.21851912 28.47255035 45.14025887 19.82421875 45.09765625 C18.25933716 45.09390991 18.25933716 45.09390991 16.6628418 45.09008789 C14.69504761 45.07643188 14.69504761 45.07643188 12.6875 45.0625 C8.500625 45.041875 4.31375 45.02125 0 45 C0 30.15 0 15.3 0 0 Z " fill="#EFEFEF" transform="translate(66,442)"/>
<path d="M0 0 C1.70884005 1.62339805 3.37446717 3.29319053 5 5 C5 5.66 5 6.32 5 7 C5.66 7 6.32 7 7 7 C7 7.66 7 8.32 7 9 C8.32 9.33 9.64 9.66 11 10 C11 10.66 11 11.32 11 12 C11.80824219 12.12117187 12.61648437 12.24234375 13.44921875 12.3671875 C14.51785156 12.53476562 15.58648437 12.70234375 16.6875 12.875 C17.74324219 13.03742187 18.79898438 13.19984375 19.88671875 13.3671875 C23 14 23 14 25.4921875 15.0703125 C29.53230808 16.56805191 33.49348627 16.03566522 37.74609375 15.875 C41.1830366 16.00703142 43.80571851 16.76661228 47 18 C47 18.33 47 18.66 47 19 C43.37515827 19.08837761 39.75059983 19.14084706 36.125 19.1875 C35.11179688 19.21263672 34.09859375 19.23777344 33.0546875 19.26367188 C21.43391728 19.37541005 11.886391 16.51632794 3.328125 8.41796875 C0.56929338 5.35690557 0 4.24514392 0 0 Z " fill="#F0F0F0" transform="translate(217,527)"/>
<path d="M0 0 C1.70884005 1.62339805 3.37446717 3.29319053 5 5 C5 5.66 5 6.32 5 7 C5.66 7 6.32 7 7 7 C7 7.66 7 8.32 7 9 C8.32 9.33 9.64 9.66 11 10 C11 10.66 11 11.32 11 12 C11.80824219 12.12117187 12.61648438 12.24234375 13.44921875 12.3671875 C14.51785156 12.53476562 15.58648437 12.70234375 16.6875 12.875 C17.74324219 13.03742187 18.79898437 13.19984375 19.88671875 13.3671875 C23 14 23 14 25.48828125 15.0703125 C28.63634964 16.23553843 31.15593049 16.12501194 34.5 16 C38.92564334 15.83455539 41.98123683 16.08059073 46 18 C46 18.33 46 18.66 46 19 C16.97811134 20.07015899 16.97811134 20.07015899 5.58984375 10.51171875 C3.43645598 8.46414856 1.59064971 6.51852871 0 4 C0 2.68 0 1.36 0 0 Z " fill="#F2F3F6" transform="translate(363,527)"/>
<path d="M0 0 C4.77271129 3.00269915 8.02052802 6.77266463 9.625 12.25 C9.851875 13.28125 10.07875 14.3125 10.3125 15.375 C9.3225 15.375 8.3325 15.375 7.3125 15.375 C6.9825 13.395 6.6525 11.415 6.3125 9.375 C5.6525 9.375 4.9925 9.375 4.3125 9.375 C3.09182132 7.86521321 1.87422727 6.35116333 0.7265625 4.78515625 C-1.50196086 2.56278903 -3.90163741 2.41395801 -6.97753906 2.26147461 C-7.79448242 2.26671143 -8.61142578 2.27194824 -9.453125 2.27734375 C-10.34257812 2.28056641 -11.23203125 2.28378906 -12.1484375 2.28710938 C-13.06882812 2.29548828 -13.98921875 2.30386719 -14.9375 2.3125 C-16.34128906 2.31926758 -16.34128906 2.31926758 -17.7734375 2.32617188 C-20.07819041 2.33793082 -22.38281227 2.35436574 -24.6875 2.375 C-24.3575 1.385 -24.0275 0.395 -23.6875 -0.625 C-16.93256302 -2.87664566 -6.49670672 -3.01097369 0 0 Z " fill="#EFF1F4" transform="translate(398.6875,469.625)"/>
<path d="M0 0 C4.77271129 3.00269915 8.02052802 6.77266463 9.625 12.25 C9.851875 13.28125 10.07875 14.3125 10.3125 15.375 C9.3225 15.375 8.3325 15.375 7.3125 15.375 C6.9825 13.395 6.6525 11.415 6.3125 9.375 C5.6525 9.375 4.9925 9.375 4.3125 9.375 C3.09182132 7.86521321 1.87422727 6.35116333 0.7265625 4.78515625 C-1.50196086 2.56278903 -3.90163741 2.41395801 -6.97753906 2.26147461 C-7.79448242 2.26671143 -8.61142578 2.27194824 -9.453125 2.27734375 C-10.34257812 2.28056641 -11.23203125 2.28378906 -12.1484375 2.28710938 C-13.06882813 2.29548828 -13.98921875 2.30386719 -14.9375 2.3125 C-16.34128906 2.31926758 -16.34128906 2.31926758 -17.7734375 2.32617188 C-20.07819041 2.33793082 -22.38281227 2.35436574 -24.6875 2.375 C-24.3575 1.385 -24.0275 0.395 -23.6875 -0.625 C-16.93256302 -2.87664566 -6.49670672 -3.01097369 0 0 Z " fill="#EFEFEF" transform="translate(252.6875,469.625)"/>
<path d="M0 0 C1.85044922 0.02030273 1.85044922 0.02030273 3.73828125 0.04101562 C6.74266604 0.07595033 9.74608409 0.12499855 12.75 0.1875 C12.75 0.5175 12.75 0.8475 12.75 1.1875 C9.95841216 1.50071737 7.16673836 1.81312914 4.375 2.125 C3.54734131 2.2178125 2.71968262 2.310625 1.86694336 2.40625 C-2.31525604 2.87244355 -6.4959497 3.31264591 -10.6875 3.6875 C-15.93248537 4.19094537 -21.08252241 5.17561751 -26.25 6.1875 C-26.25 5.1975 -26.25 4.2075 -26.25 3.1875 C-17.36219761 0.46905837 -9.26046594 -0.1960685 0 0 Z " fill="#EDEDED" transform="translate(542.25,483.8125)"/>
<path d="M0 0 C-3.00993864 2.27495363 -6.05139529 4.49927694 -9.125 6.6875 C-10.42824219 7.62142578 -10.42824219 7.62142578 -11.7578125 8.57421875 C-14 10 -14 10 -16 10 C-15.34 8.68 -14.68 7.36 -14 6 C-13.34 6 -12.68 6 -12 6 C-12 5.34 -12 4.68 -12 4 C-10.390625 2.67578125 -10.390625 2.67578125 -8.25 1.3125 C-7.55390625 0.85488281 -6.8578125 0.39726562 -6.140625 -0.07421875 C-3.60909275 -1.16906025 -2.53899138 -0.9435441 0 0 Z " fill="#ECECEC" transform="translate(534,452)"/>
<path d="M0 0 C6.11697615 9.17546423 6.17341201 21.34479545 6 32 C5.67 32 5.34 32 5 32 C4.91959473 31.40050537 4.83918945 30.80101074 4.75634766 30.18334961 C4.38453257 27.43398653 4.00482696 24.68576722 3.625 21.9375 C3.43550781 20.52307617 3.43550781 20.52307617 3.2421875 19.08007812 C2.67269022 14.99393517 2.0957918 11.02063187 0.8984375 7.06640625 C0 4 0 4 0 0 Z " fill="#FEFEFE" transform="translate(303,469)"/>
<path d="M0 0 C8.91 0 17.82 0 27 0 C27 0.33 27 0.66 27 1 C18.09 1.99 18.09 1.99 9 3 C9 2.34 9 1.68 9 1 C6.03 1 3.06 1 0 1 C0 0.67 0 0.34 0 0 Z " fill="#DBDBDB" transform="translate(528,484)"/>
<path d="M0 0 C0 0.33 0 0.66 0 1 C-7.59 1 -15.18 1 -23 1 C-23 0.67 -23 0.34 -23 0 C-14.75682537 -1.52434239 -8.08081844 -2.5078402 0 0 Z " fill="#E1E1E1" transform="translate(264,545)"/>
<path d="M0 0 C-6.93 0 -13.86 0 -21 0 C-21 -0.33 -21 -0.66 -21 -1 C-18.91835982 -1.36398622 -16.83459438 -1.71583287 -14.75 -2.0625 C-13.00976562 -2.35833984 -13.00976562 -2.35833984 -11.234375 -2.66015625 C-6.38897287 -3.16927459 -4.38864904 -2.19432452 0 0 Z " fill="#E8EAEF" transform="translate(409,546)"/>
<path d="" fill="#FEFEFE" transform="translate(0,0)"/>
</svg>
