<?xml version="1.0" encoding="UTF-8"?>
<svg version="1.1" xmlns="http://www.w3.org/2000/svg" width="2000" height="2000">
<path d="M0 0 C1.09119141 0.00563965 2.18238281 0.0112793 3.30664062 0.01708984 C32.4316861 0.45198482 58.45011863 12.48534898 78.75 33.3125 C93.75 50.62675524 93.75 50.62675524 93.75 58.3125 C94.9560791 58.29678955 96.1621582 58.2810791 97.40478516 58.26489258 C121.37704145 57.98097016 144.9684236 57.92833843 168.75 61.3125 C169.97638184 61.48410645 171.20276367 61.65571289 172.46630859 61.83251953 C205.83570074 66.63637259 238.94170208 74.83102376 269.50708008 89.30200195 C270.38904053 89.71023193 271.27100098 90.11846191 272.1796875 90.5390625 C272.94522949 90.90596191 273.71077148 91.27286133 274.49951172 91.65087891 C277.29037113 92.47136372 278.98975443 92.15544055 281.75 91.3125 C283.52667852 89.76601099 283.52667852 89.76601099 285 87.75 C300.30260769 69.4129733 323.3836739 60.05436038 346.75 57.3125 C376.17953438 55.23110979 403.9506957 62.20451163 426.75 81.3125 C427.25515137 81.73402344 427.76030273 82.15554688 428.28076172 82.58984375 C449.18432295 100.23970316 460.43833186 124.57690084 463.375 151.5625 C465.31921067 177.01725817 460.27915435 199.59253598 446.36865234 221.20166016 C444.1810785 224.6972928 444.1810785 224.6972928 444.140625 228.69140625 C446.55446635 232.6226867 449.05656078 236.48049736 451.625 240.3125 C458.48892814 250.69780403 464.80424867 261.37552518 470.75 272.3125 C471.31811401 273.31120117 471.31811401 273.31120117 471.89770508 274.33007812 C472.75 276.3125 472.75 276.3125 472.75 280.3125 C473.74 280.6425 474.73 280.9725 475.75 281.3125 C477.27709961 283.82739258 477.27709961 283.82739258 478.90234375 287.20703125 C479.19872742 287.81790588 479.49511108 288.42878052 479.80047607 289.0581665 C480.77424848 291.07518055 481.7316512 293.09943684 482.6875 295.125 C483.35709389 296.52860446 484.02677253 297.93216848 484.6965332 299.33569336 C489.10093393 308.61219596 493.34856224 317.95536605 497.4375 327.375 C497.91759521 328.47110596 498.39769043 329.56721191 498.89233398 330.6965332 C503.40466006 341.28589817 507.56345668 352.02828109 507 363.6875 C506.97292969 364.80898438 506.97292969 364.80898438 506.9453125 365.953125 C506.89949053 367.74018188 506.82783796 369.52655118 506.75 371.3125 C508.02875 371.126875 509.3075 370.94125 510.625 370.75 C539.8487167 367.90594294 572.01376209 376.6589302 594.75 395.3125 C598.16893633 398.22716843 601.4792354 401.23313987 604.75 404.3125 C605.67232422 405.13814453 605.67232422 405.13814453 606.61328125 405.98046875 C618.47414987 417.02334643 626.87116847 433.05445429 632.0625 448.25 C632.29283936 448.91604248 632.52317871 449.58208496 632.76049805 450.26831055 C637.86546552 466.16396156 638.2115246 481.72231671 638.18359375 498.26171875 C638.18816546 500.65151618 638.19347395 503.04131231 638.19947815 505.43110657 C638.20836045 510.4125405 638.20604006 515.39381366 638.19604492 520.37524414 C638.18453083 526.72979856 638.20482979 533.08379927 638.23396206 539.43828106 C638.252379 544.36364711 638.25202114 549.28888158 638.24632454 554.21427345 C638.24617216 556.55642285 638.25214647 558.89858165 638.26461601 561.24069786 C638.3951186 589.75074111 638.3951186 589.75074111 631.83714294 597.60282898 C625.67327978 603.5558746 618.46389473 606.07680526 610 606.5 C602.07075095 606.35095397 594.83558057 604.6165639 588.75 599.3125 C584.87843448 594.65975385 582.52985421 590.09286764 580.75 584.3125 C580.27804199 584.61430176 579.80608398 584.91610352 579.31982422 585.22705078 C552.04756467 602.56049803 525.10803367 610.07975548 492.75 606.3125 C492.63398437 607.47652344 492.51796875 608.64054687 492.3984375 609.83984375 C491.8676681 614.02631035 490.80199569 617.90955162 489.375 621.875 C489.11734863 622.59260498 488.85969727 623.31020996 488.59423828 624.04956055 C472.24383312 667.97096409 442.1451573 707.9740467 410.75 742.3125 C409.79144717 743.37610431 408.83312664 744.439918 407.875 745.50390625 C402.55163259 751.3819516 397.14717258 756.93481817 391.15625 762.1484375 C388.68437013 764.37152427 386.41727059 766.71811588 384.125 769.125 C379.28405123 774.05060765 373.95863965 778.08750024 368.37060547 782.11450195 C365.44852509 784.23000759 362.80270784 786.25954509 360.25 788.82421875 C357.12012385 791.93942361 353.69410942 794.31893149 350.0625 796.8125 C348.53318583 797.87664433 347.00456196 798.94178125 345.4765625 800.0078125 C344.69313477 800.5534082 343.90970703 801.09900391 343.10253906 801.66113281 C339.35052916 804.29485998 335.64558246 806.99246731 331.9375 809.6875 C280.57915228 846.87202238 280.57915228 846.87202238 262.3125 846.4375 C261.58095703 846.42847656 260.84941406 846.41945313 260.09570312 846.41015625 C258.31365702 846.38686153 256.53178241 846.3510019 254.75 846.3125 C254.90984375 847.32570313 255.0696875 848.33890625 255.234375 849.3828125 C258.46794811 874.02655906 250.93006858 900.07827212 236.66015625 920.26953125 C234.45378824 923.05841234 232.15754517 925.69543745 229.75 928.3125 C229.30140625 928.80347168 228.8528125 929.29444336 228.390625 929.80029297 C212.15260238 947.3821904 188.09070827 962.23690875 163.55297852 963.47363281 C159.80603359 963.51958465 156.0597148 963.55915993 152.3125 963.5625 C151.63670898 963.56317474 150.96091797 963.56384949 150.26464844 963.56454468 C140.42731528 963.54890341 131.22306953 963.22819136 121.75 960.3125 C120.01556641 959.78462891 120.01556641 959.78462891 118.24609375 959.24609375 C106.05678182 955.19190987 94.44445112 949.85958041 84.75 941.3125 C83.78191406 940.46429687 82.81382812 939.61609375 81.81640625 938.7421875 C64.10950699 922.99530771 50.46838663 903.24365498 46.75 879.3125 C46.54296354 875.29599273 46.55772919 871.32882361 46.75 867.3125 C45.49960938 867.34472656 44.24921875 867.37695312 42.9609375 867.41015625 C4.94050145 867.35827651 -34.76397793 850.79573869 -68.25 834.3125 C-69.1682959 833.86293945 -70.0865918 833.41337891 -71.03271484 832.95019531 C-90.57583919 823.29493996 -109.32764145 811.86037898 -126.61474609 798.56689453 C-128.23938952 797.32063924 -129.87741255 796.09419924 -131.51953125 794.87109375 C-144.19492924 785.36597762 -155.94847626 774.75788069 -167.50634766 763.93847656 C-169.40655476 762.16651082 -171.31810881 760.40727705 -173.23046875 758.6484375 C-181.3067447 751.19260587 -189.02524066 743.6081745 -196.25 735.3125 C-196.73952148 734.75175781 -197.22904297 734.19101563 -197.73339844 733.61328125 C-204.38797338 725.96706071 -210.86373722 718.18421219 -217.25 710.3125 C-218.68710706 708.5621773 -220.12461537 706.81218398 -221.5625 705.0625 C-222.29855469 704.15886719 -223.03460937 703.25523437 -223.79296875 702.32421875 C-225.09131345 700.73276603 -226.39100941 699.14236856 -227.70166016 697.56103516 C-246.34291402 675.06950643 -246.34291402 675.06950643 -245.49609375 664.078125 C-245.37427734 663.20414063 -245.37427734 663.20414063 -245.25 662.3125 C-246.24 661.9825 -247.23 661.6525 -248.25 661.3125 C-249.54892948 659.09758015 -250.66393815 656.9427877 -251.75 654.625 C-252.45236161 653.17020411 -253.1555332 651.71579909 -253.859375 650.26171875 C-254.23900391 649.47071777 -254.61863281 648.6797168 -255.00976562 647.86474609 C-256.33824037 645.13091244 -257.70343839 642.41790953 -259.078125 639.70703125 C-259.56216797 638.75078857 -260.04621094 637.7945459 -260.54492188 636.80932617 C-261.49208257 634.93995516 -262.44120061 633.07157418 -263.39257812 631.2043457 C-271.93841636 614.2292882 -271.93841636 614.2292882 -271.25 606.3125 C-272.02859375 606.35890625 -272.8071875 606.4053125 -273.609375 606.453125 C-299.56017636 607.29024762 -326.8028974 597.50817629 -346.25 580.3125 C-347.08015625 579.60222656 -347.9103125 578.89195312 -348.765625 578.16015625 C-371.70912275 558.13737984 -384.9870075 530.87454726 -387.12109375 500.54589844 C-389.1145238 466.00821271 -381.46503332 433.66006741 -358.6875 407 C-357.55071787 405.76245763 -356.40496612 404.5330892 -355.25 403.3125 C-354.6828125 402.68214844 -354.115625 402.05179688 -353.53125 401.40234375 C-337.13893704 383.93341702 -311.85894384 372.43384623 -287.91796875 371.3203125 C-287.36753906 371.31773437 -286.81710937 371.31515625 -286.25 371.3125 C-286.12109375 370.28954834 -285.9921875 369.26659668 -285.859375 368.21264648 C-284.90486914 362.10357953 -283.03862573 356.28294631 -281.25 350.375 C-281.05092041 349.71421448 -280.85184082 349.05342896 -280.64672852 348.37261963 C-274.61394055 328.42756963 -267.23101481 309.11936252 -258.25 290.3125 C-257.77578613 289.31492676 -257.30157227 288.31735352 -256.81298828 287.28955078 C-246.72292065 266.20972588 -235.34713437 245.98689717 -221.25 227.3125 C-220.75677246 226.65088867 -220.26354492 225.98927734 -219.75537109 225.30761719 C-209.59670909 211.68982296 -198.69893717 198.85928046 -187.25 186.3125 C-186.34365826 185.31258315 -185.43741289 184.31257893 -184.53125 183.3125 C-174.39194826 172.15087983 -163.79571817 162.13100501 -152.08984375 152.625 C-150.26082896 151.13562345 -148.43981493 149.63633959 -146.62890625 148.125 C-136.02753979 139.30365495 -124.877189 131.31742161 -113.4375 123.625 C-112.65431396 123.09543701 -111.87112793 122.56587402 -111.06420898 122.02026367 C-110.33532471 121.53533447 -109.60644043 121.05040527 -108.85546875 120.55078125 C-108.20731201 120.11805908 -107.55915527 119.68533691 -106.89135742 119.23950195 C-105.25 118.3125 -105.25 118.3125 -103.25 118.3125 C-103.26571045 117.60867188 -103.2814209 116.90484375 -103.29760742 116.1796875 C-103.91459995 84.27310352 -98.27813566 56.14723393 -75.69018555 32.34765625 C-55.3115263 11.56246308 -29.29445947 -0.16050502 0 0 Z M104.75 91.3125 C104.71261719 92.53582031 104.67523437 93.75914062 104.63671875 95.01953125 C103.56280783 124.56243608 97.86962938 151.69526146 77.75 174.3125 C77.06421875 175.15296875 76.3784375 175.9934375 75.671875 176.859375 C60.54221531 194.90289508 37.72244496 204.39622289 14.75 207.3125 C-11.28643126 209.07686973 -33.730927 203.77128438 -56.66015625 191.59765625 C-59.0667282 190.16433021 -59.0667282 190.16433021 -61.25 190.3125 C-61.25 189.3225 -61.25 188.3325 -61.25 187.3125 C-63.23769706 185.40900431 -63.23769706 185.40900431 -65.8125 183.5625 C-73.46303276 177.83333392 -79.18895094 171.42723463 -84.5625 163.5625 C-85.08650391 162.80839844 -85.61050781 162.05429687 -86.15039062 161.27734375 C-88.21102705 158.306439 -90.24439612 155.32090581 -92.25 152.3125 C-97.1518333 153.66958849 -100.89116865 155.88038578 -104.9375 158.875 C-105.54762939 159.31900146 -106.15775879 159.76300293 -106.78637695 160.22045898 C-112.44662705 164.37751693 -117.86686694 168.80422458 -123.25 173.3125 C-125.20637244 174.9190575 -127.16468905 176.5232506 -129.125 178.125 C-129.98867188 178.83269531 -130.85234375 179.54039062 -131.7421875 180.26953125 C-133.48235233 181.68714216 -135.2621669 183.0569053 -137.0703125 184.38671875 C-137.78960938 185.02222656 -138.50890625 185.65773438 -139.25 186.3125 C-139.25 187.3025 -139.25 188.2925 -139.25 189.3125 C-140.05566406 189.46460938 -140.86132812 189.61671875 -141.69140625 189.7734375 C-146.94516386 192.04564441 -150.25337712 195.85645967 -154.1875 199.9375 C-154.96029297 200.71996094 -155.73308594 201.50242187 -156.52929688 202.30859375 C-161.2868624 207.15865632 -165.83037605 212.15431454 -170.25 217.3125 C-171.13924101 218.33340468 -172.02855805 219.35424315 -172.91796875 220.375 C-201.72122125 253.95646648 -225.56507715 293.33107602 -240.41943359 335.05371094 C-241.45436441 337.86828469 -242.60899871 340.62238862 -243.77685547 343.38378906 C-247.68758779 352.67329741 -250.52480856 362.15985035 -250.25 372.3125 C-249.61199463 372.5077124 -248.97398926 372.7029248 -248.31665039 372.90405273 C-236.55024604 376.54797198 -225.22371828 380.25389904 -214.51782227 386.42944336 C-211.78726986 388.00351004 -209.5440836 389.2601734 -206.41796875 389.81640625 C-205.34482422 390.06197266 -205.34482422 390.06197266 -204.25 390.3125 C-203.29296875 392.0234375 -203.29296875 392.0234375 -202.25 394.3125 C-200.38628273 396.24126355 -198.5069605 398.09506732 -196.5625 399.9375 C-178.00920167 418.11598422 -169.44920747 442.98650298 -166.25 468.3125 C-166.11851562 469.34117187 -165.98703125 470.36984375 -165.8515625 471.4296875 C-165.56946445 474.0600612 -165.38229259 476.67053908 -165.25 479.3125 C-165.18554688 480.40433594 -165.12109375 481.49617188 -165.0546875 482.62109375 C-164.8319772 489.16135285 -164.71756154 494.30428071 -169.25 499.3125 C-175.49691358 505.43595679 -175.49691358 505.43595679 -179.25 507.3125 C-179.25 507.9725 -179.25 508.6325 -179.25 509.3125 C-229.08 509.6425 -278.91 509.9725 -330.25 510.3125 C-328.50960087 524.23569307 -321.13665669 533.6225181 -310.546875 542.60546875 C-293.21147136 555.80514038 -272.83071615 558.25955 -251.65234375 555.9140625 C-243.09511684 554.28108487 -235.68484147 550.34959445 -228.07128906 546.28173828 C-225.54706539 544.93841818 -222.99494034 543.65372017 -220.4375 542.375 C-219.68855469 541.99472656 -218.93960938 541.61445312 -218.16796875 541.22265625 C-211.64256989 538.12608204 -202.60207975 538.104683 -195.66015625 540.03125 C-189.51194752 542.95784456 -184.84708194 547.62561605 -181.984375 553.80859375 C-180.20632906 559.87097378 -179.9928605 566.79695945 -182.1328125 572.78125 C-186.55121483 580.38909507 -194.07779526 585.19747191 -201.6875 589.1875 C-202.48647705 589.60950684 -203.2854541 590.03151367 -204.10864258 590.46630859 C-214.34917561 595.65729029 -225.28921925 598.99429214 -236.25 602.3125 C-236.63145717 607.38520269 -235.39739041 610.92453382 -233.171875 615.37890625 C-232.68797806 616.37997154 -232.68797806 616.37997154 -232.19430542 617.40126038 C-231.14247582 619.56578593 -230.07249577 621.7206482 -229 623.875 C-228.26472736 625.36958767 -227.52953909 626.86421684 -226.79443359 628.35888672 C-210.28562515 661.73299482 -189.64197932 691.47440956 -164.46484375 718.87890625 C-162.59889854 720.92914235 -160.79229264 723.0108992 -159 725.125 C-151.08904064 734.19275059 -142.440782 742.67567332 -132.9921875 750.125 C-130.55807512 752.06674207 -128.21321333 754.08279048 -125.87475586 756.13769531 C-83.37268644 793.19997807 -9.16431888 835.63931775 48.75 834.3125 C48.985979 833.70889648 49.22195801 833.10529297 49.46508789 832.48339844 C61.17582037 802.71140784 77.49281653 778.19968691 107.3125 764.5625 C133.34158577 753.4904735 161.98282888 752.83053957 188.375 763 C200.47916276 768.15043153 211.92916769 774.48798401 221.75 783.3125 C222.4203125 783.89 223.090625 784.4675 223.78125 785.0625 C230.39806494 791.1541709 234.97670335 798.76636944 239.75 806.3125 C240.32621094 807.21871094 240.90242188 808.12492187 241.49609375 809.05859375 C242.59318062 810.80212275 243.67437661 812.55564847 244.75 814.3125 C249.22290679 813.62170358 253.22452903 812.0492696 257.375 810.3125 C258.49152954 809.84565796 258.49152954 809.84565796 259.63061523 809.36938477 C288.02564304 797.36077142 314.43568185 781.80479659 338.671875 762.7265625 C340.87248861 761.00070056 343.08173249 759.31211917 345.328125 757.6484375 C345.92125488 757.2052417 346.51438477 756.7620459 347.12548828 756.30541992 C348.77042344 755.0780311 350.42020872 753.85715003 352.0703125 752.63671875 C354.71538021 750.34252736 356.03878638 748.31993233 357.75 745.3125 C359.75 744.3125 361.75 743.3125 363.75 742.3125 C369.23510157 737.75258302 369.23510157 737.75258302 371.75 731.3125 C372.48734375 731.23902344 373.2246875 731.16554688 373.984375 731.08984375 C377.50699828 730.09972789 378.65655701 728.65675362 381 725.875 C382.16789062 724.51375 382.16789062 724.51375 383.359375 723.125 C384.14828125 722.196875 384.9371875 721.26875 385.75 720.3125 C387.24535892 718.66244877 388.74527681 717.01651621 390.25 715.375 C394.45287222 710.69469307 398.48746251 705.90428272 402.41015625 700.98681641 C403.36374472 699.79517834 404.32265565 698.60779112 405.28515625 697.42333984 C423.78191261 674.62488512 437.9600563 649.47080624 450.75 623.125 C451.56029663 621.45981323 451.56029663 621.45981323 452.38696289 619.76098633 C458.86181462 607.58625572 458.86181462 607.58625572 460.75 594.3125 C458.81039451 592.44889786 457.05816554 591.01850014 454.875 589.5 C453.67276429 588.61774974 452.47094529 587.73493136 451.26953125 586.8515625 C450.37161865 586.20429199 450.37161865 586.20429199 449.45556641 585.54394531 C425.48685904 568.23816805 411.17980024 543.27212675 405.5 514.5 C400.1349056 480.89223887 406.23516242 446.47637174 425.75 418.3125 C435.59895304 405.12789441 446.80675064 394.60057835 461.36328125 386.8046875 C462.14251953 386.37857178 462.92175781 385.95245605 463.72460938 385.51342773 C465.25668651 384.68547252 466.80358386 383.88425092 468.36523438 383.11352539 C470.43966812 381.99114604 472.09371209 380.9928931 473.75 379.3125 C474.28759217 376.07660865 474.29930948 374.42502781 473.75 371.3125 C473.55893677 370.13385376 473.55893677 370.13385376 473.36401367 368.93139648 C472.87760941 366.28742534 472.30029018 363.68002278 471.6875 361.0625 C471.46271973 360.09940918 471.23793945 359.13631836 471.00634766 358.14404297 C461.68303978 319.61990757 441.04182765 282.11819648 417.75 250.3125 C412.17613702 251.55936636 407.33697888 253.25402945 402.1875 255.6875 C377.64821647 266.86283021 348.91275407 267.91865229 323.44921875 259.1796875 C320.47148205 258.01331074 317.62089192 256.72041686 314.75 255.3125 C313.70585938 254.80976562 312.66171875 254.30703125 311.5859375 253.7890625 C287.77597043 241.68518903 269.54968036 221.20860102 261.17578125 195.7265625 C254.42139523 173.80508623 254.42238229 150.11863492 261.29101562 128.21826172 C261.90609693 125.99107455 261.90609693 125.99107455 261.75 122.3125 C211.28581704 101.28305269 159.51890675 90.38902946 104.75 91.3125 Z M-318.25 438.3125 C-327.51773418 449.66836448 -327.51773418 449.66836448 -331.25 463.3125 C-294.29 463.3125 -257.33 463.3125 -219.25 463.3125 C-221.61372755 449.13013472 -229.95214201 436.46644813 -241.5 427.9375 C-264.94825967 413.3905129 -299.19700398 419.16595408 -318.25 438.3125 Z M476.6796875 438.0234375 C468.72504518 447.45951118 462.2536152 457.38428279 458.75 469.3125 C458.50765625 470.10269531 458.2653125 470.89289063 458.015625 471.70703125 C453.14527684 491.02388509 457.94178749 510.51368927 467.75 527.3125 C469.56094843 530.19743521 471.48237958 532.77437664 473.75 535.3125 C474.31976562 535.97378906 474.88953125 536.63507813 475.4765625 537.31640625 C485.69850878 548.40069779 500.37611289 554.66962812 515.34375 555.515625 C532.28422433 555.71891069 548.24762878 552.67100842 560.99975586 540.73583984 C573.41391106 528.42763505 582.83830744 511.95260433 583.0793457 494.07250977 C583.07378662 493.34733154 583.06822754 492.62215332 583.0625 491.875 C583.05758545 491.10148193 583.0526709 490.32796387 583.04760742 489.53100586 C582.8026517 477.15132051 580.88294895 465.22110592 574.75 454.3125 C574.25757813 453.40113281 573.76515625 452.48976563 573.2578125 451.55078125 C565.47258043 438.196687 552.6387767 428.39176808 537.8828125 423.8203125 C517.67380869 419.00864493 492.07266821 423.04093627 476.6796875 438.0234375 Z " fill="#2766AE" transform="translate(980.25,531.6875)"/>
<path d="M0 0 C6.02261789 4.37481107 9.2942641 9.80446672 11 17 C11.71720578 24.07272556 11.46603434 31.2224018 11.390625 38.3203125 C11.38315469 40.39109753 11.3774655 42.46188967 11.37347412 44.53268433 C11.35828002 49.95462937 11.31905226 55.3761385 11.2746582 60.7979126 C11.23357069 66.3417776 11.21543442 71.88571377 11.1953125 77.4296875 C11.15255164 88.28664873 11.08437636 99.14328796 11 110 C11.60473145 109.60619141 12.20946289 109.21238281 12.83251953 108.80664062 C15.58780419 107.02359216 18.35604154 105.26173151 21.125 103.5 C22.55199219 102.56994141 22.55199219 102.56994141 24.0078125 101.62109375 C24.9359375 101.03457031 25.8640625 100.44804688 26.8203125 99.84375 C27.66867676 99.29912109 28.51704102 98.75449219 29.39111328 98.19335938 C32.4470326 96.79551793 34.6768292 96.77930411 38 97 C38.495 95.515 38.495 95.515 39 94 C40.65136719 93.23217773 40.65136719 93.23217773 42.796875 92.68359375 C43.58336426 92.47758545 44.36985352 92.27157715 45.18017578 92.05932617 C46.45223877 91.75152222 46.45223877 91.75152222 47.75 91.4375 C49.05880127 91.1132605 49.05880127 91.1132605 50.39404297 90.7824707 C52.92515068 90.16826707 55.46069855 89.57926827 58 89 C59.08023437 88.74734375 60.16046875 88.4946875 61.2734375 88.234375 C91.16937259 82.500908 118.93919795 90.72369949 144 107 C146.04316467 108.6997465 147.8105642 110.40219089 149.56640625 112.390625 C151.09279232 114.10417012 152.72156297 115.48984448 154.5 116.9375 C160.57244815 122.05687333 165.75080917 128.30430537 170 135 C170 136.32 170 137.64 170 139 C170.99 139 171.98 139 173 139 C181.42926476 155.56469894 187.09916536 171.41160541 189 190 C189.11085938 191.05316406 189.22171875 192.10632813 189.3359375 193.19140625 C192.43232727 227.29353688 183.29641526 257.47509475 161.60742188 284.09521484 C142.54721213 306.68144759 115.51622936 321.07595034 86 324 C57.343446 325.88665222 31.29441634 319.17417517 6 306 C6 305.01 6 304.02 6 303 C5.27167969 302.9175 4.54335937 302.835 3.79296875 302.75 C0.37205627 301.83137735 -1.13157278 300.4334117 -3.6875 298 C-7.16571037 294.72425262 -10.68683852 291.54907515 -14.3125 288.4375 C-18.36403718 284.79430672 -21.82583343 281.05779802 -24 276 C-24 275.01 -24 274.02 -24 273 C-24.99 273 -25.98 273 -27 273 C-41.61648465 246.66798573 -46.31945688 224.65590018 -46.2746582 194.80004883 C-46.27901821 192.84818326 -46.28420558 190.8963194 -46.29014587 188.94445801 C-46.30339603 183.70346582 -46.30413128 178.46254633 -46.30158257 173.22154069 C-46.30050514 168.8322018 -46.30541484 164.44287716 -46.310188 160.05354136 C-46.32123064 149.70389603 -46.32174765 139.35428702 -46.31567383 129.00463867 C-46.30961234 118.34115625 -46.32201202 107.67780504 -46.3432439 97.01434499 C-46.36085375 87.8309253 -46.36686297 78.64754746 -46.36360615 69.46411151 C-46.36179516 63.99067931 -46.36441303 58.51734116 -46.37832069 53.04392433 C-46.39088744 47.90799989 -46.38896588 42.77228142 -46.37590981 37.63636017 C-46.37354351 35.754205 -46.37628061 33.87203534 -46.38453293 31.98989677 C-46.39499563 29.41818119 -46.38690433 26.84715778 -46.3742218 24.27546692 C-46.38159609 23.53383625 -46.38897037 22.79220559 -46.39656812 22.02810127 C-46.31986919 14.62025771 -43.72644397 9.0951028 -38.8125 3.640625 C-28.36214216 -5.81875063 -12.07159226 -7.27750732 0 0 Z M29 155 C28.39671875 155.49757813 27.7934375 155.99515625 27.171875 156.5078125 C14.96915752 167.44628447 9.6786183 184.78487059 8.796875 200.65625 C8.57080073 219.19433989 12.63206848 235.13009906 24 250 C24.50273438 250.7528125 25.00546875 251.505625 25.5234375 252.28125 C26.25433594 253.13203125 26.25433594 253.13203125 27 254 C27.99 254 28.98 254 30 254 C30.27199219 254.60070313 30.54398438 255.20140625 30.82421875 255.8203125 C35.34687351 264.20450305 45.88811326 267.90620519 54.39453125 270.8203125 C70.8326905 274.90826103 89.86495912 272.41405695 104.375 263.8203125 C119.02257666 253.66291559 129.97238769 238.43734192 133.53125 220.8125 C136.24730324 198.72193364 132.86300009 177.89474508 119 160 C118.37351562 159.16339844 117.74703125 158.32679688 117.1015625 157.46484375 C110.81474046 150.09126623 101.94114666 145.39634923 93 142 C92.19691406 141.6803125 91.39382813 141.360625 90.56640625 141.03125 C69.17752297 133.82376359 45.55190948 140.56519522 29 155 Z " fill="#FFFFFF" transform="translate(1739,815)"/>
<path d="M0 0 C1.4174652 0.00052168 2.83493113 -0.00000784 4.25239563 -0.00151062 C7.20979774 -0.00142165 10.16692311 0.0088351 13.12426758 0.02709961 C16.82609611 0.04951605 20.5275167 0.05018271 24.22939396 0.04384804 C68.07412259 -0.0128444 111.03108947 1.3091243 144.6796875 32.953125 C166.70059487 55.87003173 174.53472288 87.04683866 174.140625 118.08984375 C173.29151731 146.91731355 160.66754948 173.76670187 139.98828125 193.69921875 C111.59656099 219.09940304 73.23421471 220.56049446 37.11328125 220.42578125 C34.76367283 220.42075691 32.41406337 220.41619565 30.06445312 220.41210938 C24.35153956 220.40117618 18.63866534 220.38451194 12.92578125 220.36328125 C12.93244308 221.4376796 12.93910492 222.51207794 12.94596863 223.61903381 C13.00684789 233.75624455 13.05178664 243.89341807 13.08121777 254.0307703 C13.09685738 259.2421895 13.11806465 264.45346082 13.15209961 269.66479492 C13.18475365 274.69631334 13.20264708 279.72768973 13.21041298 284.75930595 C13.21594562 286.67660189 13.22674955 288.59389027 13.24297142 290.51112556 C13.26482601 293.20167822 13.26774482 295.8916479 13.26635742 298.58227539 C13.27714325 299.37062271 13.28792908 300.15897003 13.29904175 300.97120667 C13.25409742 309.05394247 10.33271552 314.6212726 4.89453125 320.56640625 C-2.22110777 327.06083869 -10.87001373 327.99884428 -20.171875 327.765625 C-29.04726325 326.85054493 -35.20419457 322.02653807 -40.734375 315.29296875 C-45.65514038 308.2059189 -45.22157046 300.61066387 -45.21466064 292.28244019 C-45.21763177 291.16280353 -45.22060289 290.04316687 -45.22366405 288.88960183 C-45.23233929 285.1358663 -45.23385831 281.38216272 -45.23535156 277.62841797 C-45.23998058 274.9376765 -45.24498496 272.24693791 -45.25039673 269.55619812 C-45.26395902 262.24399908 -45.27000158 254.93180553 -45.27440739 247.619596 C-45.27717356 243.05013889 -45.28141161 238.48068387 -45.28591156 233.91122818 C-45.29810183 221.24935222 -45.30840139 208.58747794 -45.31178665 195.92559624 C-45.31200622 195.11573261 -45.31222578 194.30586899 -45.312452 193.47146405 C-45.31267028 192.65970746 -45.31288856 191.84795088 -45.31311345 191.01159561 C-45.31355691 189.36677988 -45.31400347 187.72196416 -45.31445312 186.07714844 C-45.31467455 185.26127011 -45.31489598 184.44539178 -45.31512412 183.60478987 C-45.31906993 170.39243925 -45.33651839 157.18014385 -45.35981265 143.96781455 C-45.38355837 130.38933546 -45.39598998 116.81088403 -45.39715457 103.23238385 C-45.39806956 95.61406833 -45.4037773 87.99582477 -45.42197418 80.37752914 C-45.43741875 73.888835 -45.44247008 67.40023505 -45.43423608 60.91152601 C-45.43034481 57.60468137 -45.4328357 54.29806467 -45.44529343 50.99123573 C-45.45803998 47.39600393 -45.45212087 43.80125314 -45.44171143 40.20602417 C-45.44976783 39.1750602 -45.45782423 38.14409624 -45.46612477 37.08189094 C-45.39388403 26.35924638 -43.78474268 16.25738908 -36.07421875 8.36328125 C-35.5946875 7.87085938 -35.11515625 7.3784375 -34.62109375 6.87109375 C-25.64521583 -0.79013539 -11.08126607 -0.07798934 0 0 Z M11.92578125 55.36328125 C11.82807924 56.79041745 11.7994643 58.22235555 11.79879761 59.65283203 C11.79597778 60.57831848 11.79315796 61.50380493 11.79025269 62.45733643 C11.79227692 63.48075134 11.79430115 64.50416626 11.79638672 65.55859375 C11.7946344 66.63002625 11.79288208 67.70145874 11.79107666 68.80535889 C11.78665572 72.36634922 11.78959699 75.92729036 11.79296875 79.48828125 C11.79229578 81.95068369 11.79132581 84.41308607 11.79006958 86.87548828 C11.78859228 92.04395173 11.7907482 97.21239793 11.79541016 102.38085938 C11.80110745 109.02268852 11.79782862 115.66447727 11.79183769 122.30630493 C11.78823295 127.39331367 11.78937026 132.48031275 11.79196548 137.56732178 C11.792635 140.01706955 11.7918055 142.46681818 11.78948593 144.91656494 C11.78696083 148.33372335 11.79079799 151.75081532 11.79638672 155.16796875 C11.79436249 156.19138367 11.79233826 157.21479858 11.79025269 158.26922607 C11.79307251 159.19471252 11.79589233 160.12019897 11.79879761 161.07373047 C11.79936315 162.28716629 11.79936315 162.28716629 11.79994011 163.52511597 C11.72474288 165.38129619 11.72474288 165.38129619 12.92578125 166.36328125 C14.62028409 166.47785897 16.31953902 166.52290671 18.01782227 166.5402832 C19.10728653 166.55311844 20.19675079 166.56595367 21.31922913 166.57917786 C23.10640602 166.59025826 23.10640602 166.59025826 24.9296875 166.6015625 C26.15550034 166.60963425 27.38131317 166.61770599 28.64427185 166.62602234 C31.25461401 166.6398963 33.86497456 166.65060352 36.4753418 166.65844727 C40.41939787 166.67150467 44.36281404 166.71932024 48.30664062 166.76367188 C69.25295329 166.89370029 87.89674353 165.63915692 103.92578125 150.5546875 C113.40013696 140.17360634 116.58098263 126.99389438 117.92578125 113.36328125 C117.99925781 112.64527344 118.07273437 111.92726563 118.1484375 111.1875 C118.867958 96.57810557 112.06519992 81.37473716 102.86328125 70.32421875 C90.07900103 57.38528998 72.74246881 54.45889656 55.28662109 54.23388672 C53.31999732 54.22740864 51.35334908 54.22644775 49.38671875 54.23046875 C48.33924469 54.22951202 47.29177063 54.2285553 46.21255493 54.22756958 C44.0227248 54.2268946 41.83289259 54.22870082 39.64306641 54.23291016 C36.27502048 54.23832265 32.90710464 54.23291453 29.5390625 54.2265625 C27.40494762 54.22722234 25.27083282 54.22850156 23.13671875 54.23046875 C22.12644623 54.22844452 21.11617371 54.22642029 20.07528687 54.22433472 C18.68716293 54.22906296 18.68716293 54.22906296 17.27099609 54.23388672 C16.04502213 54.23508011 16.04502213 54.23508011 14.79428101 54.23629761 C12.91133416 54.15855002 12.91133416 54.15855002 11.92578125 55.36328125 Z " fill="#FFFFFF" transform="translate(112.07421875,809.63671875)"/>
<path d="M0 0 C3.89108435 3.04241164 7.54803021 6.29784652 11.17431641 9.64941406 C11.94517578 10.3390625 12.71603516 11.02871094 13.51025391 11.73925781 C18.82520883 16.71820984 22.57171264 22.34698666 26.17431641 28.64941406 C26.68865234 29.54144531 27.20298828 30.43347656 27.73291016 31.35253906 C38.59461719 51.55249292 46.06953964 80.10415194 41.51416016 102.96191406 C39.54302603 109.2422375 36.54371527 113.82386294 31.17431641 117.64941406 C23.28392592 121.55981841 15.91682085 122.21594064 7.22998047 122.11938477 C5.98450439 122.12157516 4.73902832 122.12376556 3.45581055 122.12602234 C0.07088293 122.12792489 -3.31304612 122.11215412 -6.69782543 122.08792138 C-10.2648604 122.06643023 -13.8318974 122.06721176 -17.39898682 122.06523132 C-23.39059872 122.05880381 -29.38200503 122.03764273 -35.37353516 122.00610352 C-43.02035748 121.96589907 -50.66704581 121.9484188 -58.31396103 121.93879414 C-64.93859962 121.9304322 -71.56321093 121.91321843 -78.1878252 121.89375663 C-79.59729593 121.88973104 -81.00676749 121.88598808 -82.41623974 121.88253427 C-112.46325197 121.80859171 -112.46325197 121.80859171 -124.82568359 120.64941406 C-124.71063477 121.39723145 -124.59558594 122.14504883 -124.47705078 122.91552734 C-124.20263672 124.69921875 -123.92822266 126.48291016 -123.65380859 128.26660156 C-123.07820164 130.78887782 -123.07820164 130.78887782 -120.93115234 131.66894531 C-119.88894531 132.15427734 -119.88894531 132.15427734 -118.82568359 132.64941406 C-117.29833984 134.85644531 -117.29833984 134.85644531 -115.88818359 137.46191406 C-110.20898266 147.91860437 -99.19963829 155.22666502 -88.82568359 160.64941406 C-88.82568359 161.30941406 -88.82568359 161.96941406 -88.82568359 162.64941406 C-88.06384766 162.69839844 -87.30201172 162.74738281 -86.51708984 162.79785156 C-77.06365376 163.48237003 -77.06365376 163.48237003 -72.45068359 164.71191406 C-58.5709289 168.01304491 -44.15506488 164.73715644 -31.22802734 159.41894531 C-28.63225837 158.58745509 -26.53410075 158.50940676 -23.82568359 158.64941406 C-23.61814453 158.05515625 -23.41060547 157.46089844 -23.19677734 156.84863281 C-21.29521202 153.79854371 -19.11392311 152.98289912 -15.88818359 151.46191406 C-14.82728516 150.95273438 -13.76638672 150.44355469 -12.67333984 149.91894531 C-5.37869678 146.66687536 4.368021 145.83786183 11.98291016 148.70800781 C14.29800698 150.18854634 16.1998562 151.73995666 18.17431641 153.64941406 C18.84205078 154.27589844 19.50978516 154.90238281 20.19775391 155.54785156 C25.59259126 161.11884687 27.18787199 166.14985049 27.36181641 173.77441406 C27.19806666 177.15857555 26.83795727 180.33120977 26.17431641 183.64941406 C25.18431641 183.64941406 24.19431641 183.64941406 23.17431641 183.64941406 C23.09568359 184.39578125 23.01705078 185.14214844 22.93603516 185.91113281 C20.8963467 193.24355132 10.35883213 198.09775074 4.11621094 201.63989258 C-26.76730945 218.2484542 -63.14874155 222.61183906 -96.87207031 213.00683594 C-117.42798095 206.8136771 -134.62817193 196.8244109 -149.82568359 181.64941406 C-150.54111328 180.94558594 -151.25654297 180.24175781 -151.99365234 179.51660156 C-175.49840769 154.83895423 -181.67347533 122.56414858 -181.06721497 89.71615601 C-180.54126176 70.59982766 -174.76172575 53.30540877 -165.49755859 36.73144531 C-163.75917446 33.7405337 -163.75917446 33.7405337 -162.82568359 30.64941406 C-161.83568359 30.64941406 -160.84568359 30.64941406 -159.82568359 30.64941406 C-159.74833984 29.92625 -159.67099609 29.20308594 -159.59130859 28.45800781 C-158.63351951 24.94448561 -157.07934421 23.33578355 -154.57568359 20.71191406 C-150.80602866 16.70960387 -150.80602866 16.70960387 -147.32568359 12.46191406 C-143.9339017 8.64615944 -140.08026464 5.47465649 -135.82568359 2.64941406 C-135.16568359 2.64941406 -134.50568359 2.64941406 -133.82568359 2.64941406 C-133.64521484 2.070625 -133.46474609 1.49183594 -133.27880859 0.89550781 C-131.13881616 -2.41227619 -128.03238444 -3.64843591 -124.57568359 -5.28808594 C-123.85695068 -5.63581055 -123.13821777 -5.98353516 -122.39770508 -6.34179688 C-84.18329478 -24.47459559 -35.20463634 -26.04333355 0 0 Z M-99.82568359 38.64941406 C-99.82568359 39.63941406 -99.82568359 40.62941406 -99.82568359 41.64941406 C-100.94330078 41.80603516 -100.94330078 41.80603516 -102.08349609 41.96582031 C-110.30964751 44.01649908 -115.61912716 52.86567623 -119.82568359 59.64941406 C-122.97437731 64.89723693 -123.82568359 67.22389394 -123.82568359 73.64941406 C-87.52568359 73.64941406 -51.22568359 73.64941406 -13.82568359 73.64941406 C-15.42377602 59.26658227 -22.41815785 48.46664286 -33.63427734 39.37207031 C-53.7546814 25.87284887 -78.81291325 29.15325823 -99.82568359 38.64941406 Z " fill="#FFFFFF" transform="translate(503.82568359375,921.3505859375)"/>
<path d="M0 0 C7.22546312 5.64413281 10.53615289 13.08848829 12 22 C12.71451063 29.82861859 12.51691749 37.71493091 12.4699707 45.56713867 C12.47048014 47.94016618 12.47273996 50.31319385 12.47660828 52.68621826 C12.48200414 59.09664988 12.46268295 65.50678993 12.43850732 71.91716933 C12.41746629 77.94939358 12.41809554 83.98164137 12.41647889 90.01389495 C12.41261322 101.95503552 12.39021367 113.89606704 12.35668945 125.8371582 C12.32418715 137.4237514 12.30299196 149.01028701 12.29516602 160.59692383 C12.29468052 161.31224355 12.29419503 162.02756327 12.29369483 162.76455935 C12.2917661 165.63986866 12.28985397 168.51517798 12.28797873 171.39048732 C12.28045471 182.44258095 12.2648313 193.49466516 12.24748212 204.54674723 C12.24224486 207.88463476 12.2373117 211.22252223 12.2331202 214.56041121 C12.22335482 222.16324757 12.20890562 229.7660412 12.1862812 237.36885071 C12.18014337 239.67558721 12.17570177 241.98232891 12.17303848 244.28907204 C12.16907622 247.42530791 12.15897731 250.56146291 12.14717102 253.69767761 C12.14735538 254.62070291 12.14753975 255.54372821 12.14772969 256.49472398 C12.11423811 262.77152379 12.11423811 262.77152379 11 265 C12.00506088 264.9560334 12.00506088 264.9560334 13.03042603 264.91117859 C37.53552566 263.88478898 62.03325179 263.81228128 86.55664062 263.81469727 C92.27236042 263.81479985 97.98795869 263.8010041 103.70364952 263.78392506 C108.17703802 263.77274082 112.65039733 263.77077981 117.12379837 263.77130699 C119.23097793 263.7701421 121.33815862 263.7658063 123.44532394 263.75797462 C135.78795782 263.7162808 147.78016632 264.20423439 160 266 C160 266.99 160 267.98 160 269 C160.680625 269.020625 161.36125 269.04125 162.0625 269.0625 C167.31196707 270.73786183 170.51639408 274.56202769 173.3359375 279.1953125 C177.05156958 287.17996868 177.69298762 296.07289981 174.82421875 304.421875 C170.93125553 312.67053091 166.01833055 316.92049849 158 321 C153.28672586 322.04376629 148.62708847 322.16824102 143.82006836 322.20532227 C143.01478353 322.21521053 142.20949869 322.2250988 141.37981129 322.23528671 C138.69985174 322.26691776 136.01987584 322.29174565 133.33984375 322.31640625 C131.42726289 322.33725773 129.51468561 322.35843943 127.60211182 322.37992859 C122.44985134 322.43619308 117.29754914 322.48578077 112.14519882 322.53303528 C108.94108056 322.56246711 105.73697379 322.59295911 102.53286743 322.62365723 C88.40121112 322.75780304 74.26945123 322.87272851 60.13754272 322.9766922 C57.07972682 322.99940773 54.02191884 323.02299832 50.96411133 323.04681396 C40.03560887 323.1308681 29.10726988 323.19596831 18.17849731 323.23117065 C14.86712682 323.24219674 11.55590174 323.26000046 8.24459839 323.28372192 C4.37110519 323.31096438 0.49784628 323.32334622 -3.37574005 323.32413673 C-4.77534139 323.32674052 -6.17494487 323.33433672 -7.57448578 323.34760094 C-18.39064245 323.44489718 -29.57259783 322.57742813 -38 315 C-45.34479082 305.68027654 -46.3017127 296.02890071 -46.26742554 284.51370239 C-46.27195665 283.38671334 -46.27648776 282.25972429 -46.28115618 281.09858406 C-46.29377425 277.3379787 -46.29218147 273.57751866 -46.29052734 269.81689453 C-46.29542992 267.11423195 -46.30326385 264.41157944 -46.31088257 261.70892334 C-46.32745077 255.13913864 -46.33299018 248.56938985 -46.33410732 241.999586 C-46.33505961 236.65711705 -46.33917886 231.31465989 -46.34550858 225.97219467 C-46.3631081 210.80792648 -46.37234924 195.64368652 -46.37084763 180.47940804 C-46.37076772 179.66297585 -46.3706878 178.84654366 -46.37060547 178.00537109 C-46.37052371 177.18793635 -46.37044195 176.3705016 -46.37035771 175.5282961 C-46.36954475 162.27987141 -46.38868822 149.03156038 -46.4168822 135.78316857 C-46.44563801 122.16278297 -46.45942107 108.54245277 -46.45769465 94.92203605 C-46.45703177 87.28198114 -46.46247941 79.64204546 -46.48405075 72.00201797 C-46.50229791 65.4979704 -46.50658086 58.99409615 -46.4930319 52.490034 C-46.48652034 49.17507572 -46.48850971 45.86071978 -46.5037384 42.54574966 C-46.51921162 38.94362682 -46.50986771 35.34236957 -46.49447632 31.74026489 C-46.50476344 30.7045435 -46.51505057 29.6688221 -46.52564943 28.60171521 C-46.429919 18.42490014 -43.77332652 10.15684118 -36.78125 2.65625 C-26.92519247 -6.50815437 -11.47742137 -6.57895804 0 0 Z " fill="#FFFFFF" transform="translate(1157,815)"/>
<path d="M0 0 C5.99178763 4.96537598 10.51446452 9.27449773 11.3359375 17.26953125 C11.43642353 26.38361388 10.49457807 31.72884903 4.75 38.75 C-2.58686123 44.75288646 -9.53390835 46.27978596 -19 46 C-23.48888762 45.51793598 -27.94321108 44.82437434 -32.40332031 44.12988281 C-50.88915435 41.26381024 -69.82586989 43.46913269 -85.58984375 54.15234375 C-93.1818429 59.97246627 -97.39046804 67.59291981 -99 77 C-99.07899512 78.69872233 -99.10949043 80.40016078 -99.10006714 82.10069275 C-99.09710632 83.10544647 -99.09414551 84.1102002 -99.09109497 85.145401 C-99.08278656 86.23686935 -99.07447815 87.32833771 -99.06591797 88.45288086 C-99.06124512 89.61130493 -99.05657227 90.769729 -99.05175781 91.96325684 C-99.04125924 94.47866184 -99.02859787 96.99405853 -99.01403427 99.50944328 C-98.99199295 103.5000672 -98.97763493 107.49067372 -98.96633911 111.4813385 C-98.9329974 122.8282007 -98.8916001 134.17498928 -98.82861328 145.52172852 C-98.79388883 151.79218392 -98.77020968 158.06258368 -98.75840485 164.33312517 C-98.7516865 167.64350498 -98.73768102 170.95359525 -98.71337509 174.26389885 C-98.45682011 209.84521093 -98.45682011 209.84521093 -106 218 C-115.08486089 225.86336699 -123.03963236 227.05417672 -134.76757812 226.28564453 C-141.44794207 225.43087355 -147.73653349 222.05343638 -152.0625 216.875 C-157.82984226 206.47426773 -157.42795654 194.62678378 -157.37231445 183.10522461 C-157.37474709 181.32821948 -157.37847097 179.55121572 -157.38337708 177.7742157 C-157.39272443 172.98087798 -157.3834131 168.18774666 -157.37004495 163.39442515 C-157.35866465 158.36008247 -157.36284297 153.32574897 -157.36479187 148.29139709 C-157.36567269 139.84095927 -157.35463817 131.39060198 -157.33618164 122.94018555 C-157.31501046 113.19146589 -157.31150691 103.44286407 -157.3177436 93.69412607 C-157.32345185 84.28723922 -157.31777483 74.88039356 -157.30657005 65.47351265 C-157.3019441 61.48296911 -157.30104149 57.49245092 -157.3031559 53.50190544 C-157.30504916 48.79779723 -157.29685563 44.09380778 -157.2810955 39.38972664 C-157.27687843 37.67051815 -157.27598459 35.95129756 -157.27878571 34.23208618 C-157.31278975 9.61499864 -157.31278975 9.61499864 -152 2 C-144.88368968 -5.11631032 -136.25286474 -7.07952787 -126.4375 -7.4375 C-118.69750879 -7.22607506 -112.19126522 -5.30934065 -106.375 -0.0625 C-104 3 -104 3 -103.625 5.875 C-103.810625 6.926875 -103.810625 6.926875 -104 8 C-100.32625539 7.4071708 -97.44547749 6.38318646 -94.1484375 4.671875 C-65.67631497 -9.73779677 -28.95060242 -19.02109044 0 0 Z " fill="#FFFFFF" transform="translate(1039,911)"/>
</svg>
