<?xml version="1.0" encoding="UTF-8"?>
<svg version="1.1" xmlns="http://www.w3.org/2000/svg" width="2000" height="2000">
<path d="M0 0 C10.08230955 8.26896758 18.18926081 17.57499463 25.11328125 28.60546875 C25.68820312 29.51296875 26.263125 30.42046875 26.85546875 31.35546875 C28.11328125 33.60546875 28.11328125 33.60546875 28.11328125 35.60546875 C29.5353186 35.58190308 29.5353186 35.58190308 30.98608398 35.55786133 C90.31853799 34.66751725 150.42907408 43.01088557 204.82299805 67.91381836 C205.60199463 68.26839111 206.38099121 68.62296387 207.18359375 68.98828125 C207.85148926 69.30168457 208.51938477 69.61508789 209.20751953 69.93798828 C211.40592712 70.82583879 211.40592712 70.82583879 215.11328125 70.60546875 C216.63955897 69.22756374 216.63955897 69.22756374 217.98828125 67.29296875 C233.15191856 49.10945452 257.01284702 38.63789302 280.11328125 35.60546875 C284.5341669 35.31889831 288.93402676 35.27099357 293.36328125 35.29296875 C295.15052612 35.30142822 295.15052612 35.30142822 296.97387695 35.31005859 C325.53003223 35.70334579 350.06020565 47.90351456 370.02685547 68.03369141 C390.54880546 89.5266215 397.7052258 116.56156906 397.390625 145.66796875 C396.84835064 165.54596623 389.279188 182.82847125 379.11328125 199.60546875 C378.25283203 201.04019531 378.25283203 201.04019531 377.375 202.50390625 C376.95863281 203.19742188 376.54226563 203.8909375 376.11328125 204.60546875 C376.49025146 205.16306885 376.86722168 205.72066895 377.25561523 206.29516602 C386.64286367 220.20669951 395.70312632 234.14500397 403.67578125 248.91796875 C404.02302246 249.55911621 404.37026367 250.20026367 404.72802734 250.86083984 C407.11328125 255.36088018 407.11328125 255.36088018 407.11328125 257.60546875 C407.77328125 257.93546875 408.43328125 258.26546875 409.11328125 258.60546875 C410.51750417 261.18862167 411.80552195 263.75819688 413.05078125 266.41796875 C413.6375061 267.66876221 413.6375061 267.66876221 414.23608398 268.94482422 C441.11328125 327.33958241 441.11328125 327.33958241 441.11328125 348.60546875 C441.84216553 348.5897583 442.5710498 348.57404785 443.32202148 348.55786133 C476.1624699 347.94486721 504.13383846 353.38704938 530.11328125 374.60546875 C531.31404297 375.57613281 531.31404297 375.57613281 532.5390625 376.56640625 C553.85176203 394.60306043 568.09499531 423.03553853 571.11328125 450.60546875 C571.64512518 459.11364606 571.53673648 467.64729013 571.51171875 476.16796875 C571.51374387 478.61458421 571.51665895 481.06119908 571.52041626 483.5078125 C571.52481227 488.60438861 571.51849237 493.7008058 571.50439453 498.79736328 C571.48723138 505.31823741 571.49720633 511.83874297 571.51511192 518.35960388 C571.52596144 523.39885225 571.52249925 528.43801339 571.51472855 533.4772644 C571.51273356 535.88215174 571.51516105 538.28704709 571.52216721 540.69192505 C571.52980885 544.04873641 571.51814205 547.40495167 571.50146484 550.76171875 C571.50753754 551.7457518 571.51361023 552.72978485 571.51986694 553.74363708 C571.46489696 559.73382722 570.54538938 564.12109156 568.11328125 569.60546875 C567.74203125 570.47171875 567.37078125 571.33796875 566.98828125 572.23046875 C562.59743371 577.79220897 556.04546916 581.41026394 549.11328125 582.60546875 C539.92344071 583.37595843 532.22276549 582.37553196 524.86328125 576.54296875 C520.67424773 572.61365531 518.06877042 567.98306398 516.11328125 562.60546875 C516.11328125 561.61546875 516.11328125 560.62546875 516.11328125 559.60546875 C515.21609375 560.23453125 514.31890625 560.86359375 513.39453125 561.51171875 C492.67891978 575.81635815 471.86562238 584.08824655 446.30078125 583.79296875 C445.22119141 583.79232422 444.14160156 583.79167969 443.02929688 583.79101562 C437.62373954 583.76118729 432.43756641 583.55487766 427.11328125 582.60546875 C426.9829248 583.33781738 426.85256836 584.07016602 426.71826172 584.82470703 C420.18986748 614.83213655 400.14477948 645.51353296 383.11328125 670.60546875 C382.67338867 671.25499512 382.23349609 671.90452148 381.78027344 672.57373047 C374.89076662 682.68133111 367.56381555 692.33859382 359.70166016 701.70849609 C358.21562762 703.4832383 356.74784792 705.27170135 355.28125 707.0625 C345.18482602 719.20014634 333.77214498 730.13400617 322.54248047 741.20800781 C321.16436491 742.56811784 319.79009094 743.93221832 318.4284668 745.30883789 C316.42308708 747.28592564 314.23514276 749.01719285 312.05078125 750.79296875 C310.59865234 751.97632813 310.59865234 751.97632813 309.1171875 753.18359375 C305.441059 756.14744247 301.73372984 759.07057593 298.01171875 761.9765625 C296.01689558 763.47524955 296.01689558 763.47524955 295.11328125 765.60546875 C293.45848724 766.62499539 291.78840703 767.61970438 290.11328125 768.60546875 C288.2565893 769.88762303 286.42867393 771.20637059 284.59765625 772.52490234 C213.6204781 823.60546875 213.6204781 823.60546875 188.11328125 823.60546875 C188.27441406 824.47300781 188.43554688 825.34054687 188.6015625 826.234375 C192.26438548 850.36426989 184.09412351 875.86763758 170.80078125 895.85546875 C154.19695135 918.33508321 131.18728551 934.03478401 103.4921875 939.29296875 C75.41159405 943.50067474 47.61383864 937.82535139 24.16796875 921.5625 C21.73610392 919.65283812 19.41955148 917.6643536 17.11328125 915.60546875 C16.28570313 914.9196875 15.458125 914.23390625 14.60546875 913.52734375 C-3.5841753 898.06336502 -16.49783996 873.4530691 -18.88671875 849.60546875 C-18.89565352 847.93882603 -18.89672444 846.27210538 -18.88671875 844.60546875 C-19.45849854 844.56301025 -20.03027832 844.52055176 -20.61938477 844.47680664 C-92.81206901 838.27616402 -169.64829503 798.40987813 -222.6484375 749.66015625 C-224.75711402 747.72444272 -226.90458203 745.84726899 -229.07421875 743.98046875 C-232.30320103 741.17463939 -235.31158085 738.20625843 -238.3046875 735.15234375 C-239.97215384 733.46282653 -239.97215384 733.46282653 -242.38671875 731.66796875 C-245.31235092 729.25432221 -247.61786365 726.54783335 -250.07421875 723.66796875 C-251.73353624 721.77977988 -253.45213061 720.0355351 -255.26171875 718.29296875 C-258.99315422 714.61970711 -262.23846532 710.61364502 -265.515625 706.53515625 C-267.84193971 703.66079705 -270.23450869 700.85398279 -272.63671875 698.04296875 C-310.88671875 652.10749734 -310.88671875 652.10749734 -310.88671875 639.60546875 C-311.54671875 639.27546875 -312.20671875 638.94546875 -312.88671875 638.60546875 C-314.11399353 636.43697572 -315.23525504 634.28056168 -316.32421875 632.04296875 C-316.66622314 631.34840576 -317.00822754 630.65384277 -317.3605957 629.93823242 C-336.88671875 589.9319131 -336.88671875 589.9319131 -336.88671875 583.60546875 C-338.30597656 583.56679687 -338.30597656 583.56679687 -339.75390625 583.52734375 C-366.60602544 582.49906716 -392.55607412 573.47284415 -412.88671875 555.60546875 C-414.11261719 554.59419922 -414.11261719 554.59419922 -415.36328125 553.5625 C-436.88411477 535.27312291 -448.7903348 507.77206309 -451.68823242 480.05126953 C-454.14678458 449.75634269 -448.77579187 417.19977069 -429.55078125 392.8046875 C-427.85232119 390.71301977 -427.85232119 390.71301977 -426.890625 388.51953125 C-425.66651706 386.18562895 -424.22911001 384.96394014 -422.19921875 383.29296875 C-419.55691801 381.07381225 -417.14518042 378.84241887 -414.82421875 376.29296875 C-398.06804406 359.42332109 -374.65547601 352.25615557 -351.88671875 348.60546875 C-351.69150635 347.89342285 -351.49629395 347.18137695 -351.29516602 346.44775391 C-342.80822204 315.67427713 -332.66307777 285.90268155 -317.87988281 257.51806641 C-316.85635666 255.54699859 -315.85173592 253.5669724 -314.84765625 251.5859375 C-300.12064215 222.83093347 -281.18446729 196.80481791 -259.88671875 172.60546875 C-259.06171875 171.66703125 -258.23671875 170.72859375 -257.38671875 169.76171875 C-245.16525612 156.16534157 -232.34635276 142.8237137 -217.88671875 131.60546875 C-216.56562134 130.44854655 -215.25278166 129.28211275 -213.94921875 128.10546875 C-209.6552893 124.29360207 -205.04694584 120.92204083 -200.42578125 117.5234375 C-197.88557776 115.69633963 -197.88557776 115.69633963 -195.88671875 113.60546875 C-194.67382316 112.74862604 -193.44134588 111.91935777 -192.19921875 111.10546875 C-191.40902344 110.5846875 -190.61882812 110.06390625 -189.8046875 109.52734375 C-188.84175781 108.893125 -187.87882812 108.25890625 -186.88671875 107.60546875 C-184.25978818 105.85836138 -181.63584628 104.10678246 -179.01171875 102.35546875 C-177.72270508 101.49602051 -176.43364515 100.63664165 -175.14453125 99.77734375 C-173.53191406 98.70226562 -173.53191406 98.70226562 -171.88671875 97.60546875 C-170.40171875 96.61546875 -170.40171875 96.61546875 -168.88671875 95.60546875 C-168.71399106 92.66606774 -168.70921701 89.91087278 -168.82421875 86.98046875 C-169.08778368 72.04465279 -166.8478758 58.66715315 -161.88671875 44.60546875 C-161.59023438 43.703125 -161.29375 42.80078125 -160.98828125 41.87109375 C-152.21346721 17.23721213 -130.46053938 -2.17663743 -107.44921875 -13.20703125 C-72.58362268 -29.29989657 -30.02389599 -23.24807511 0 0 Z M39.11328125 68.60546875 C39.0992627 69.69093994 39.0992627 69.69093994 39.08496094 70.79833984 C38.55843578 103.36546923 32.38266645 130.62074983 9.11328125 154.60546875 C8.21416016 155.61480469 8.21416016 155.61480469 7.296875 156.64453125 C-5.56531452 170.59014494 -25.3464683 180.3304756 -43.88671875 183.60546875 C-44.88445312 183.78722656 -45.8821875 183.96898437 -46.91015625 184.15625 C-72.96067535 187.72031424 -96.45019951 182.90548725 -119.08203125 170.12109375 C-121.63970099 168.73895467 -124.16644703 167.62183401 -126.88671875 166.60546875 C-126.88671875 165.94546875 -126.88671875 165.28546875 -126.88671875 164.60546875 C-128.30057986 163.40519091 -129.77088561 162.27118527 -131.26171875 161.16796875 C-142.81868038 152.0654392 -150.25644035 140.97928525 -157.88671875 128.60546875 C-162.98404655 130.24425461 -166.93045009 133.28960634 -171.19921875 136.41796875 C-171.9866748 136.99111816 -172.77413086 137.56426758 -173.58544922 138.15478516 C-181.58189641 144.02760147 -189.28135301 150.23782145 -196.88671875 156.60546875 C-197.80195312 157.36472656 -198.7171875 158.12398437 -199.66015625 158.90625 C-202.3677512 161.15693546 -202.3677512 161.15693546 -204.88671875 163.60546875 C-204.88671875 164.26546875 -204.88671875 164.92546875 -204.88671875 165.60546875 C-205.61648926 165.84700684 -206.34625977 166.08854492 -207.09814453 166.33740234 C-210.26514451 167.77755274 -212.06367484 169.42457218 -214.50390625 171.89453125 C-215.78587891 173.18423828 -215.78587891 173.18423828 -217.09375 174.5 C-217.97417969 175.40105469 -218.85460937 176.30210937 -219.76171875 177.23046875 C-220.63441406 178.10832031 -221.50710938 178.98617187 -222.40625 179.890625 C-227.42824671 184.97303671 -232.25120823 190.16965708 -236.88671875 195.60546875 C-237.77568498 196.62661271 -238.66498451 197.64746665 -239.5546875 198.66796875 C-261.6096579 224.38167068 -279.5380985 253.07563683 -294.26171875 283.54296875 C-294.76155273 284.57260742 -295.26138672 285.60224609 -295.77636719 286.66308594 C-298.89119843 293.19350525 -301.50194573 299.77882336 -303.88671875 306.60546875 C-304.39043793 307.95645107 -304.8990463 309.30562754 -305.4140625 310.65234375 C-313.74942129 329.70742587 -313.74942129 329.70742587 -316.88671875 349.60546875 C-316.34370117 349.76104248 -315.80068359 349.91661621 -315.24121094 350.0769043 C-301.30946048 354.09341085 -288.22871105 357.94115981 -276.1640625 366.25 C-273.89876554 367.86119772 -273.89876554 367.86119772 -270.88671875 367.60546875 C-270.63019531 368.20230469 -270.37367188 368.79914063 -270.109375 369.4140625 C-268.76694128 371.82014977 -267.47521246 372.96890099 -265.32421875 374.66796875 C-245.24996928 391.80186703 -234.36057759 419.79774571 -231.88671875 445.60546875 C-231.7638147 446.85481201 -231.7638147 446.85481201 -231.63842773 448.12939453 C-229.78246965 468.81431678 -229.78246965 468.81431678 -234.28125 475.7578125 C-237.38946387 479.33490535 -240.62276509 482.47349192 -244.88671875 484.60546875 C-244.88671875 485.26546875 -244.88671875 485.92546875 -244.88671875 486.60546875 C-295.04671875 486.93546875 -345.20671875 487.26546875 -396.88671875 487.60546875 C-395.1901763 499.48126589 -389.23869185 507.25349565 -380.88671875 515.60546875 C-380.24863281 516.24355469 -379.61054687 516.88164063 -378.953125 517.5390625 C-363.36440031 532.09069948 -345.5264826 534.5525319 -325.0546875 533.98046875 C-311.46517249 533.32208195 -301.2637245 528.58115111 -289.88671875 521.60546875 C-281.35567982 516.59010292 -273.56720965 514.1875843 -263.69921875 516.60546875 C-257.02121399 518.95179475 -251.93287106 523.2497815 -248.44921875 529.41796875 C-245.8655529 535.38116181 -244.95444561 541.67561424 -247.01171875 547.91796875 C-252.52490268 560.13967295 -268.95790222 567.72738684 -280.88671875 572.60546875 C-285.59811329 574.28590233 -290.35117369 575.82878845 -295.14404297 577.26000977 C-296.43785889 577.65724243 -296.43785889 577.65724243 -297.7578125 578.0625 C-298.9168811 578.40244995 -298.9168811 578.40244995 -300.09936523 578.74926758 C-300.68919189 579.03181396 -301.27901855 579.31436035 -301.88671875 579.60546875 C-303.12010233 583.3056195 -302.52866531 584.09618147 -301 587.59375 C-300.56220215 588.59937988 -300.1244043 589.60500977 -299.67333984 590.64111328 C-299.18687988 591.72247559 -298.70041992 592.80383789 -298.19921875 593.91796875 C-297.70244629 595.03284668 -297.20567383 596.14772461 -296.69384766 597.29638672 C-291.66652406 608.39360993 -285.95808691 619.04993388 -279.88671875 629.60546875 C-279.48211426 630.31380859 -279.07750977 631.02214844 -278.66064453 631.75195312 C-266.68372379 652.6106927 -252.30087662 672.05885587 -236.31201172 690.00097656 C-235.10796459 691.35640612 -233.91937877 692.72554662 -232.734375 694.09765625 C-222.19885401 706.15613374 -210.77967199 718.00316448 -198.13671875 727.8515625 C-196.0678591 729.46426733 -194.1367231 731.15166629 -192.19921875 732.91796875 C-181.28063216 742.54415121 -169.08111683 750.7047225 -156.88671875 758.60546875 C-155.9328125 759.23066406 -154.97890625 759.85585937 -153.99609375 760.5 C-112.35168205 787.47145377 -65.46181732 803.62758088 -16.88671875 812.60546875 C-14.71989153 807.26574016 -12.64646096 801.92692853 -10.76171875 796.48046875 C-5.33242917 782.45342881 3.49943303 771.08608875 14.11328125 760.60546875 C15.14388672 759.57679688 15.14388672 759.57679688 16.1953125 758.52734375 C34.37640439 741.53280733 61.22964784 732.67526064 85.86914062 732.59667969 C110.39574313 733.45804118 131.67796551 741.90784771 151.11328125 756.60546875 C151.83773437 757.14429688 152.5621875 757.683125 153.30859375 758.23828125 C164.50164623 767.25616564 172.11776994 780.2726414 179.11328125 792.60546875 C189.55190066 789.14260841 199.37222335 784.88106995 209.23828125 780.04296875 C209.95772919 779.69231354 210.67717712 779.34165833 211.41842651 778.9803772 C233.75912721 768.06719868 254.51724902 754.91881049 274.11328125 739.60546875 C274.78520508 739.08098145 275.45712891 738.55649414 276.14941406 738.01611328 C278.35425379 736.28556476 280.54784637 734.54170497 282.73828125 732.79296875 C283.43824219 732.24141113 284.13820313 731.68985352 284.859375 731.12158203 C285.51292969 730.59419434 286.16648437 730.06680664 286.83984375 729.5234375 C287.42330566 729.05703857 288.00676758 728.59063965 288.60791016 728.11010742 C290.2944449 726.42439324 291.06846129 724.7293927 292.11328125 722.60546875 C292.70625 722.45980469 293.29921875 722.31414063 293.91015625 722.1640625 C297.28133601 721.30931302 298.95824608 719.11871366 301.36328125 716.66796875 C302.2553125 715.77207031 303.14734375 714.87617187 304.06640625 713.953125 C306.3323385 711.87333394 306.3323385 711.87333394 306.11328125 709.60546875 C307.00273438 709.46818359 307.00273438 709.46818359 307.91015625 709.328125 C310.65895781 708.4264791 311.55829827 707.28167337 313.36328125 705.04296875 C315.78763965 702.13373867 318.2620796 699.42141815 320.98828125 696.79296875 C325.29096707 692.53964452 329.04348185 687.93377677 332.81347656 683.20849609 C334.18836016 681.51287519 335.59626903 679.84937719 337.01171875 678.1875 C350.90082625 661.73562533 362.73096465 643.45286664 373.11328125 624.60546875 C373.58185547 623.75726562 374.05042969 622.9090625 374.53320312 622.03515625 C380.51937357 611.10591918 385.98217797 600.03815135 390.80078125 588.54296875 C391.22294922 587.53806396 391.64511719 586.53315918 392.08007812 585.49780273 C393.96488007 580.88216192 395.61505205 576.61309442 396.11328125 571.60546875 C395.49582031 571.18136719 394.87835937 570.75726562 394.2421875 570.3203125 C388.37941636 566.26009809 382.68555331 562.05489126 377.11328125 557.60546875 C376.54222656 557.18265625 375.97117187 556.75984375 375.3828125 556.32421875 C368.81894758 551.21032874 363.96313185 544.28976232 359.11328125 537.60546875 C358.66484863 536.98881348 358.21641602 536.3721582 357.75439453 535.73681641 C345.23188242 518.13698645 338.92322741 496.08131381 338.11328125 474.60546875 C338.03400391 472.80529297 338.03400391 472.80529297 337.953125 470.96875 C337.17540697 437.52687486 348.03368321 407.27507868 370.91796875 382.8359375 C382.05002528 371.52560961 395.11512862 363.83707252 409.11328125 356.60546875 C405.49294205 315.64108273 380.85048801 271.03966326 358.73828125 236.98046875 C358.14273438 236.04783203 357.5471875 235.11519531 356.93359375 234.15429688 C356.36640625 233.30029297 355.79921875 232.44628906 355.21484375 231.56640625 C354.46195068 230.41857666 354.46195068 230.41857666 353.69384766 229.24755859 C352.91146729 228.43472412 352.91146729 228.43472412 352.11328125 227.60546875 C348.30825146 227.60546875 347.24446985 227.80061709 344.05859375 229.43359375 C342.89976685 230.01258423 342.89976685 230.01258423 341.7175293 230.60327148 C340.89937744 231.01649658 340.08122559 231.42972168 339.23828125 231.85546875 C314.16604727 244.08565258 287.07096219 245.7005725 260.48828125 237.41796875 C233.37754488 227.68590954 212.57298377 209.81198894 199.8137207 183.77905273 C188.50047841 159.43384241 187.1891228 131.98056461 195.30859375 106.49609375 C196.29206857 103.4633129 196.29206857 103.4633129 196.11328125 99.60546875 C164.70487015 85.27783936 131.62897286 76.54797053 97.55078125 71.60546875 C96.35130859 71.42757812 95.15183594 71.2496875 93.91601562 71.06640625 C80.50696899 69.12705142 67.32776131 68.45910749 53.80078125 68.54296875 C52.36653805 68.54800118 50.9322931 68.55256096 49.49804688 68.55664062 C46.03642127 68.56749116 42.57486303 68.58465635 39.11328125 68.60546875 Z M-376.88671875 409.60546875 C-377.89798828 410.29576172 -377.89798828 410.29576172 -378.9296875 411 C-386.90022243 417.03717863 -393.95197087 428.1239756 -396.88671875 437.60546875 C-396.88671875 438.59546875 -396.88671875 439.58546875 -396.88671875 440.60546875 C-359.59671875 440.60546875 -322.30671875 440.60546875 -283.88671875 440.60546875 C-288.80190324 424.63111915 -295.50419088 411.34880272 -310.63671875 403.16796875 C-332.73687187 393.22993811 -357.39652685 395.57363328 -376.88671875 409.60546875 Z M409.11328125 417.60546875 C406.23107135 421.14143434 403.62774701 424.80048289 401.11328125 428.60546875 C400.55253906 429.44980469 399.99179688 430.29414062 399.4140625 431.1640625 C389.92093093 446.87435831 388.76462447 466.78046907 392.61328125 484.41796875 C394.65449071 492.68625597 398.40902964 499.56691047 403.11328125 506.60546875 C403.67015625 507.45882812 404.22703125 508.3121875 404.80078125 509.19140625 C413.17063881 520.98163829 427.74727542 529.0842573 441.73046875 532.1328125 C458.39858308 534.46172917 476.07258225 532.52507763 490.11328125 522.60546875 C505.05047752 511.04554554 513.79944479 496.26491714 517.11328125 477.60546875 C518.65850061 457.23628056 515.98724814 436.86044877 502.25390625 420.76855469 C491.53954708 408.91805209 478.66334408 400.77893449 462.53662109 399.38232422 C443.05933401 398.55571145 422.86056696 402.39135107 409.11328125 417.60546875 Z M-198.88671875 736.60546875 C-197.88671875 738.60546875 -197.88671875 738.60546875 -197.88671875 738.60546875 Z " fill="#003F86" transform="translate(1045.88671875,554.39453125)"/>
<path d="M0 0 C6.04567872 4.1489952 10.47473039 9.75699507 12 17 C12.09532399 18.34753635 12.14557679 19.698777 12.15821838 21.04962158 C12.1680072 21.84605072 12.17779602 22.64247986 12.18788147 23.46304321 C12.19651466 24.75992569 12.19651466 24.75992569 12.20532227 26.08300781 C12.21522186 27.00042755 12.22512146 27.91784729 12.23532104 28.86306763 C12.26688842 31.89306057 12.2916747 34.92306919 12.31640625 37.953125 C12.33697988 40.05491542 12.35797647 42.15670174 12.37937927 44.25848389 C12.43455762 49.78878457 12.48398563 55.31912233 12.53222656 60.8494873 C12.58247249 66.49344175 12.63814243 72.13734239 12.69335938 77.78125 C12.80088915 88.85412069 12.90234566 99.92703812 13 111 C17.47521345 108.83047585 21.54687786 106.09705792 25.69140625 103.36523438 C35.45637479 97 35.45637479 97 40 97 C40.33 96.34 40.66 95.68 41 95 C43.72886448 94.06129469 46.40544799 93.24706378 49.1875 92.5 C50.00250977 92.27860352 50.81751953 92.05720703 51.65722656 91.82910156 C58.71852212 89.96912038 65.73307737 88.74619509 73 88 C74.67255859 87.79890625 74.67255859 87.79890625 76.37890625 87.59375 C88.70232012 86.36000663 101.45311186 87.30399443 113 92 C113.9796875 92.34933594 114.959375 92.69867187 115.96875 93.05859375 C124.07948605 96.00356339 131.49672448 99.76034432 139 104 C139.72445313 104.38285156 140.44890625 104.76570312 141.1953125 105.16015625 C145.16388121 107.28188021 147.86746585 109.79966208 151 113 C152.01434272 113.98444071 153.03137896 114.96611199 154.05078125 115.9453125 C160.75416385 122.45108741 167.14183647 128.94220006 172 137 C172 137.66 172 138.32 172 139 C172.66 139 173.32 139 174 139 C176.03726258 143.21485917 178.05782874 147.43634267 180.03515625 151.6796875 C180.53607788 152.75452393 180.53607788 152.75452393 181.04711914 153.85107422 C182.66667963 157.50348812 183.95758104 161.14620871 185 165 C185.32613281 166.09570312 185.65226562 167.19140625 185.98828125 168.3203125 C189.23525356 179.73211665 190.2765346 191.19028858 191 203 C191.09667969 204.29679688 191.19335938 205.59359375 191.29296875 206.9296875 C192.52600259 236.85575199 178.18824565 266.32372826 158.75 288.125 C140.44075895 307.96509258 112.88298616 321.51427769 85.86035156 323.1953125 C60.1636249 324.10198912 36.84778486 320.68465867 14.30859375 307.85546875 C11.14008877 305.94212998 11.14008877 305.94212998 8 305 C8 304.34 8 303.68 8 303 C7.30261719 302.78214844 6.60523438 302.56429688 5.88671875 302.33984375 C2.27362753 300.66286095 -0.33498375 298.27676415 -3.1875 295.5625 C-3.75122314 295.03261475 -4.31494629 294.50272949 -4.89575195 293.95678711 C-19.69779428 279.88199464 -19.69779428 279.88199464 -22 273 C-22.66 273 -23.32 273 -24 273 C-24.56267578 271.85724609 -24.56267578 271.85724609 -25.13671875 270.69140625 C-25.90435547 269.14259766 -25.90435547 269.14259766 -26.6875 267.5625 C-27.51121094 265.89960937 -27.51121094 265.89960937 -28.3515625 264.203125 C-29.66499167 261.65096406 -31.05614599 259.24953133 -32.5625 256.8125 C-40.43185162 242.90151714 -43.15107325 224.30167865 -43.14717102 208.55044556 C-43.15084771 207.7380389 -43.1545244 206.92563224 -43.1583125 206.08860719 C-43.16925983 203.38670158 -43.17317775 200.68483453 -43.17700195 197.98291016 C-43.18327313 196.0373879 -43.1899205 194.09186683 -43.19691467 192.14634705 C-43.21787102 185.77726055 -43.22830578 179.40817403 -43.23828125 173.0390625 C-43.24233127 170.84142418 -43.24644826 168.64378599 -43.25063133 166.44614792 C-43.26966058 156.12410674 -43.28389912 145.80207263 -43.2922433 135.4800173 C-43.30202239 123.58138706 -43.32836906 111.6829425 -43.36874419 99.78437769 C-43.39892183 90.57394366 -43.41371355 81.36356285 -43.41702431 72.15308034 C-43.41937187 66.65755856 -43.42829519 61.1622357 -43.45348549 55.66676712 C-43.47680153 50.49728694 -43.48098516 45.3281362 -43.47072411 40.15861702 C-43.47022958 38.26643209 -43.47652525 36.37423072 -43.49028015 34.48209572 C-43.63754806 13.01550693 -43.63754806 13.01550693 -35.8125 4.125 C-26.01319886 -4.60153554 -11.67999674 -6.15854374 0 0 Z M28.8125 156.5 C15.78034329 169.67399196 10.70291617 186.7828103 10.5 205 C10.67247988 223.26248314 15.91154764 240.67571967 29 254 C29.66 254 30.32 254 31 254 C31.23847656 254.58910156 31.47695312 255.17820312 31.72265625 255.78515625 C36.09499278 263.36654711 47.85790963 268.24261844 55.97192383 270.56420898 C73.24845603 274.83032603 91.51909146 272.85042664 106.875 263.8125 C121.40217707 253.7132763 132.35069599 238.22899153 135.65625 220.65234375 C138.44660188 199.1222423 136.00203103 180.00498644 123 162 C122.48953125 161.29230469 121.9790625 160.58460938 121.453125 159.85546875 C111.54293436 147.4186701 96.57126521 140.48052213 81.0625 138.5625 C61.19521899 136.55804257 43.19723702 142.72141227 28.8125 156.5 Z " fill="#000000" transform="translate(1737,815)"/>
<path d="M0 0 C1.72279922 -0.00135192 3.44559806 -0.0032968 5.168396 -0.00579834 C8.77245734 -0.00873434 12.37641907 -0.00450766 15.98046875 0.00488281 C20.52888869 0.01617472 25.07707206 0.00958365 29.62548351 -0.00199413 C71.22391399 -0.09206985 109.60156388 1.05606537 141.359375 31.890625 C163.0811358 53.79216668 171.68233992 84.18006838 171.67041016 114.34448242 C171.24219365 142.35972398 159.85627559 169.29536917 140.234375 189.265625 C112.42436357 215.46060744 78.71709884 218.46634621 42.32202148 218.86651611 C38.80834087 218.90709335 35.29480872 218.95793521 31.78125 219.0078125 C24.93240117 219.10357408 18.08345606 219.18828486 11.234375 219.265625 C11.23072937 220.30830536 11.22708374 221.35098572 11.22332764 222.42526245 C11.18628419 232.28214847 11.12840974 242.13872477 11.05047226 251.99537468 C11.0110702 257.06203323 10.97884612 262.12851987 10.96337891 267.1953125 C10.94816436 272.09089703 10.913634 276.98600871 10.86606598 281.88138199 C10.85130153 283.74310303 10.84333684 285.6048916 10.84249115 287.46667099 C10.82236921 309.56545288 10.82236921 309.56545288 2.796875 318.203125 C-4.06953909 324.68718657 -11.61500131 325.872771 -20.765625 326.265625 C-24.13100815 325.8029457 -26.76449896 324.82834152 -29.765625 323.265625 C-30.45011719 322.9459375 -31.13460937 322.62625 -31.83984375 322.296875 C-37.81635076 319.1094046 -41.58071876 314.17385687 -44.765625 308.265625 C-45.59181665 304.90072637 -45.89136573 301.77091888 -45.89425945 298.31269264 C-45.8974839 297.33518693 -45.90070835 296.35768121 -45.9040305 295.35055411 C-45.9024819 294.28431858 -45.9009333 293.21808305 -45.89933777 292.11953735 C-45.90160333 290.98089308 -45.90386888 289.84224881 -45.90620309 288.66910017 C-45.91254434 284.84530783 -45.91171364 281.02155093 -45.91088867 277.19775391 C-45.91333625 274.45963913 -45.91725415 271.72152686 -45.92106628 268.9834137 C-45.92937027 262.31282591 -45.93212101 255.64224696 -45.93267866 248.97165443 C-45.93315392 243.54944452 -45.93520914 238.12723752 -45.93837929 232.70502853 C-45.94718497 217.33085701 -45.95179877 201.95669247 -45.95104881 186.58251841 C-45.95098888 185.33945988 -45.95098888 185.33945988 -45.95092773 184.07128906 C-45.95088685 183.24157122 -45.95084597 182.41185338 -45.95080385 181.55699258 C-45.95039735 168.10841909 -45.95996821 154.65987359 -45.9740661 141.2113082 C-45.9884287 127.40123256 -45.99533636 113.59117058 -45.99447232 99.78108728 C-45.99414033 92.02823668 -45.99688865 84.27541543 -46.00765038 76.52257156 C-46.01675382 69.92210031 -46.01893189 63.32167172 -46.01214095 56.7211969 C-46.00887501 53.35425342 -46.00990773 49.98745863 -46.0174942 46.62051201 C-46.02518996 42.96882784 -46.02058513 39.31735932 -46.01286316 35.66567993 C-46.01800672 34.60390585 -46.02315029 33.54213176 -46.02844971 32.4481827 C-45.98347669 22.83785338 -44.09398407 15.73471832 -37.765625 8.265625 C-27.30150803 -1.30273099 -13.28560166 -0.03716691 0 0 Z M10.234375 54.265625 C10.13667299 55.6927612 10.10805805 57.1246993 10.10739136 58.55517578 C10.10457153 59.48066223 10.10175171 60.40614868 10.09884644 61.35968018 C10.10087067 62.38309509 10.1028949 63.40651001 10.10498047 64.4609375 C10.10322815 65.53237 10.10147583 66.60380249 10.09967041 67.70770264 C10.09524947 71.26869297 10.09819074 74.82963411 10.1015625 78.390625 C10.10088953 80.85302744 10.09991956 83.31542982 10.09866333 85.77783203 C10.09718603 90.94629548 10.09934195 96.11474168 10.10400391 101.28320312 C10.1097012 107.92503227 10.10642237 114.56682102 10.10043144 121.20864868 C10.0968267 126.29565742 10.09796401 131.3826565 10.10055923 136.46966553 C10.10122875 138.9194133 10.10039925 141.36916193 10.09807968 143.81890869 C10.09555458 147.2360671 10.09939174 150.65315907 10.10498047 154.0703125 C10.10295624 155.09372742 10.10093201 156.11714233 10.09884644 157.17156982 C10.10166626 158.09705627 10.10448608 159.02254272 10.10739136 159.97607422 C10.1079569 161.18951004 10.1079569 161.18951004 10.10853386 162.42745972 C10.03333663 164.28363994 10.03333663 164.28363994 11.234375 165.265625 C13.03140241 165.38041852 14.83293838 165.42527357 16.63354492 165.44262695 C17.78952682 165.45546219 18.94550873 165.46829742 20.13652039 165.48152161 C21.3998671 165.48890854 22.66321381 165.49629547 23.96484375 165.50390625 C25.26198807 165.511978 26.55913239 165.52004974 27.89558411 165.52836609 C30.65556712 165.54342539 33.4155242 165.55324166 36.17553711 165.56079102 C39.67307404 165.57173997 43.16995411 165.60598673 46.66726208 165.64596272 C50.03725935 165.67880999 53.40719903 165.68294444 56.77734375 165.69140625 C58.01437546 165.70891434 59.25140717 165.72642242 60.52592468 165.74446106 C75.89234727 165.70690299 90.12027784 161.12744022 101.546875 150.578125 C113.72128675 137.49063237 116.58421559 122.64574523 116.3828125 105.42578125 C115.70296351 90.95215396 109.45714195 77.9182184 99.515625 67.45703125 C85.39591262 54.636066 69.18273053 53.09866403 50.91796875 53.1328125 C49.78029556 53.13185577 48.64262238 53.13089905 47.47047424 53.12991333 C45.086354 53.1292371 42.70223187 53.13105225 40.31811523 53.13525391 C36.65148876 53.14065503 32.9849823 53.13526724 29.31835938 53.12890625 C26.99739556 53.12956625 24.67643182 53.1308458 22.35546875 53.1328125 C21.25456406 53.13078827 20.15365936 53.12876404 19.01939392 53.12667847 C17.50630394 53.13140671 17.50630394 53.13140671 15.96264648 53.13623047 C14.62555885 53.13742386 14.62555885 53.13742386 13.26145935 53.13864136 C11.23849631 53.04099887 11.23849631 53.04099887 10.234375 54.265625 Z " fill="#000000" transform="translate(113.765625,810.734375)"/>
<path d="M0 0 C1.64524658 0.27118652 1.64524658 0.27118652 3.32373047 0.54785156 C22.09486494 3.79963139 38.34863823 10.76453087 52.75 23.3125 C53.72324219 24.08980469 54.69648438 24.86710938 55.69921875 25.66796875 C75.0066877 41.78346481 83.99632157 68.34670697 87.75 92.3125 C87.88277344 93.10785156 88.01554688 93.90320313 88.15234375 94.72265625 C89.71562946 105.83697522 90.75042784 118.82574831 84.34375 128.41796875 C80.04352686 133.98594635 75.49948596 136.41356076 68.75 138.3125 C63.87258134 138.85340919 59.02071503 138.82056367 54.12060547 138.76660156 C52.67087333 138.76547109 51.2211389 138.76611085 49.77140808 138.76837158 C45.86489549 138.76951187 41.9588815 138.74611498 38.05248404 138.71807575 C33.95926077 138.69294667 29.8660241 138.69071108 25.7727356 138.68597412 C18.03457041 138.67357796 10.29663324 138.64080225 2.55856812 138.60057616 C-6.25645773 138.55575339 -15.07149488 138.53384508 -23.88660645 138.51379442 C-42.00786655 138.47206631 -60.1289149 138.40178017 -78.25 138.3125 C-77.80123384 139.96096769 -77.34069512 141.60623455 -76.875 143.25 C-76.61976563 144.16652344 -76.36453125 145.08304688 -76.1015625 146.02734375 C-75.48339896 148.47995087 -75.48339896 148.47995087 -73.25 149.3125 C-72.49652761 150.62085517 -71.79644677 151.96021559 -71.125 153.3125 C-67.60356849 159.8433448 -63.10188415 166.13899576 -56.25 169.3125 C-55.71375 169.910625 -55.1775 170.50875 -54.625 171.125 C-51.54792695 173.95914623 -48.17514133 175.42597822 -44.39453125 177.1640625 C-42.25 178.3125 -42.25 178.3125 -41.25 180.3125 C-38.7102544 180.934967 -38.7102544 180.934967 -35.6875 181.3125 C-32.16839633 181.81458868 -28.78349964 182.4164266 -25.359375 183.35546875 C-21.2248498 184.41661584 -17.31892196 184.65913449 -13.0625 184.625 C-11.95503418 184.61762817 -11.95503418 184.61762817 -10.82519531 184.61010742 C-0.11799352 184.38443683 9.31423154 181.33997945 19.16796875 177.30078125 C21.75 176.3125 21.75 176.3125 23.75 176.3125 C24.08 175.6525 24.41 174.9925 24.75 174.3125 C26.27473396 173.25581055 27.84529441 172.26449139 29.4375 171.3125 C30.71173828 170.5390625 30.71173828 170.5390625 32.01171875 169.75 C38.85248005 166.15884428 46.0556663 164.81609137 53.75 165.3125 C62.53489165 168.25566167 68.09849492 173.71655787 72.625 181.5625 C74.59881033 188.14186776 74.24128963 194.64980278 72.75 201.3125 C72.09 201.3125 71.43 201.3125 70.75 201.3125 C70.75 202.3025 70.75 203.2925 70.75 204.3125 C68.955676 206.01464982 67.22263449 207.46627188 65.25 208.9375 C64.66541016 209.37553955 64.08082031 209.8135791 63.47851562 210.26489258 C50.26328748 219.93435943 36.47972104 225.87583607 20.75 230.3125 C19.96254395 230.5384082 19.17508789 230.76431641 18.36376953 230.99707031 C-13.08414669 239.69955425 -48.12821623 234.11096573 -76.40673828 218.37890625 C-96.33414322 206.85004469 -110.93876877 190.80613917 -121.25 170.3125 C-121.56598145 169.68956055 -121.88196289 169.06662109 -122.20751953 168.42480469 C-135.97583261 140.49298349 -136.01836831 104.32480369 -126.5625 75 C-124.06662067 67.68540751 -120.70867103 60.9576162 -116.88671875 54.25390625 C-115.17114193 51.38418112 -115.17114193 51.38418112 -114.25 48.3125 C-113.59 48.3125 -112.93 48.3125 -112.25 48.3125 C-111.91548828 47.25675781 -111.91548828 47.25675781 -111.57421875 46.1796875 C-109.96029296 42.68522871 -107.68960377 40.18664096 -105.0625 37.4375 C-104.56854736 36.9115625 -104.07459473 36.385625 -103.56567383 35.84375 C-102.13460422 34.32599846 -100.69344227 32.81847407 -99.25 31.3125 C-98.56679688 30.58804688 -97.88359375 29.86359375 -97.1796875 29.1171875 C-93.7814922 25.59708384 -90.35856473 22.95372018 -86.25 20.3125 C-85.92 19.6525 -85.59 18.9925 -85.25 18.3125 C-69.45769695 8.04909178 -51.44099846 2.46263461 -33 -0.4375 C-31.7948877 -0.62940918 -31.7948877 -0.62940918 -30.56542969 -0.82519531 C-20.16520809 -2.33155136 -10.33907026 -1.7053147 0 0 Z M-52.25 56.3125 C-52.25 56.9725 -52.25 57.6325 -52.25 58.3125 C-52.81203125 58.39886719 -53.3740625 58.48523438 -53.953125 58.57421875 C-63.89007346 61.7682379 -70.79587395 73.82292984 -75.41015625 82.4921875 C-76.88864711 85.69673049 -77.25 87.71285138 -77.25 91.3125 C-40.29 91.3125 -3.33 91.3125 34.75 91.3125 C33.15289635 78.53567083 27.8277429 70.24665821 18.75 61.3125 C18.15058594 60.714375 17.55117188 60.11625 16.93359375 59.5 C6.3182946 49.64821424 -8.68222995 47.53461242 -22.63671875 47.95703125 C-33.02996569 48.56248433 -42.96910854 51.67205427 -52.25 56.3125 Z " fill="#000000" transform="translate(456.25,903.6875)"/>
<path d="M0 0 C7.08342416 7.08342416 10.58734966 14.59205492 10.63316262 24.58807409 C10.62442409 25.99761844 10.62442409 25.99761844 10.61550903 27.43563843 C10.61721788 28.44531886 10.61892673 29.45499929 10.62068737 30.49527609 C10.6239799 33.87631761 10.6129823 37.25716038 10.60205078 40.63818359 C10.60148662 43.06268306 10.60180333 45.48718286 10.60293579 47.91168213 C10.60339113 53.13033339 10.59772067 58.34893977 10.58646011 63.56757736 C10.57018996 71.11280033 10.56499556 78.65799912 10.56248413 86.20323773 C10.5581094 98.44556414 10.54480634 110.68786386 10.52587891 122.93017578 C10.50751435 134.82079943 10.49336066 146.71141581 10.48486328 158.60205078 C10.48407511 159.70188764 10.48407511 159.70188764 10.48327102 160.82394342 C10.4806609 164.5024011 10.47813349 168.18085883 10.47564721 171.85931659 C10.45492164 202.3645635 10.41955324 232.86977804 10.375 263.375 C11.40838643 263.37223462 11.40838643 263.37223462 12.46264935 263.36941338 C29.27443616 263.32512355 46.08620434 263.29208976 62.898036 263.27137566 C71.02831819 263.26109061 79.15856128 263.24708369 87.28881836 263.22412109 C94.38033508 263.20410191 101.47182347 263.19126345 108.56336766 263.18682301 C112.31356874 263.18422998 116.0636888 263.17819397 119.81386375 263.16353989 C123.35394019 263.14982073 126.89390333 263.14580584 130.43400383 263.14878464 C132.33161755 263.1479843 134.22921934 263.13729851 136.12680054 263.12615967 C144.04437079 263.14488974 151.58706728 263.9533638 159.375 265.375 C159.375 266.035 159.375 266.695 159.375 267.375 C160.055625 267.54 160.73625 267.705 161.4375 267.875 C166.86638183 270.64719498 170.88968452 275.57596566 173.25 281.1875 C175.79682926 289.37259279 176.11264626 296.19920723 172.578125 304.0859375 C172.18109375 304.84132813 171.7840625 305.59671875 171.375 306.375 C170.94703125 307.21804688 170.5190625 308.06109375 170.078125 308.9296875 C168.02416991 311.87871476 165.93677498 313.2648894 162.875 315.125 C161.9159375 315.71796875 160.956875 316.3109375 159.96875 316.921875 C155.60775695 319.36508195 152.27889538 319.51920496 147.3374176 319.57359314 C146.6164488 319.58276451 145.89547999 319.59193588 145.15266365 319.60138518 C142.73014166 319.63085525 140.30760762 319.65323666 137.88500977 319.67553711 C136.1503614 319.69493579 134.41571686 319.71467883 132.68107605 319.73474121 C126.97625408 319.79853299 121.27135503 319.85133613 115.56640625 319.90234375 C114.5950809 319.91115169 113.62375555 319.91995963 112.62299609 319.92903447 C103.45717747 320.01175041 94.29133153 320.09029338 85.12539768 320.15915585 C73.41374372 320.24741947 61.70267089 320.35590021 49.99147564 320.49228281 C41.75107888 320.58655307 33.51067644 320.65741099 25.26991695 320.71116835 C20.35194474 320.74387723 15.43456034 320.78672438 10.51693916 320.85474968 C5.88349785 320.91834635 1.2507203 320.95276012 -3.38313103 320.96553802 C-5.07620986 320.97514854 -6.76926922 320.99500131 -8.46208572 321.02631569 C-19.44450779 321.22183146 -29.10509769 320.31266711 -37.64319515 312.53703213 C-43.30653443 306.44195845 -45.74167263 299.67417861 -45.75922108 291.43044758 C-45.76367892 290.45479196 -45.76813676 289.47913634 -45.77272969 288.4739154 C-45.77245315 286.87763164 -45.77245315 286.87763164 -45.77217102 285.24909973 C-45.77584771 284.11257216 -45.7795244 282.97604458 -45.7833125 281.80507678 C-45.79434512 277.98829207 -45.79819247 274.17153459 -45.80200195 270.35473633 C-45.80773588 267.62148811 -45.81490099 264.88824397 -45.82191467 262.15499878 C-45.84165318 253.94784711 -45.85174129 245.74069425 -45.86064246 237.53352478 C-45.86502904 233.66608874 -45.87039483 229.79865406 -45.87563133 225.9312191 C-45.89263985 213.07122107 -45.90713385 200.21122387 -45.91438007 187.35121632 C-45.91628988 184.01596386 -45.91821022 180.68071141 -45.92016602 177.34545898 C-45.92064976 176.51652807 -45.9211335 175.68759717 -45.9216319 174.83354714 C-45.92993168 161.40636929 -45.95526941 147.97928053 -45.98774669 134.55214158 C-46.02083666 120.75900186 -46.03883052 106.96590739 -46.04202431 93.17272776 C-46.04418745 85.43147451 -46.0529075 77.69035125 -46.07848549 69.94913673 C-46.10021888 63.35640656 -46.10822993 56.76383797 -46.09851871 50.17107604 C-46.09398168 46.80968387 -46.0980178 43.44889457 -46.11528015 40.08750343 C-46.13297806 36.4366616 -46.12590199 32.78666105 -46.11274719 29.13581848 C-46.12371644 28.08278292 -46.13468568 27.02974736 -46.14598733 25.94480163 C-46.07838179 18.15526082 -44.58955854 11.20498867 -39.73828125 4.9375 C-38.84689453 4.1640625 -38.84689453 4.1640625 -37.9375 3.375 C-35.40134717 1.17005891 -35.40134717 1.17005891 -33.625 -1.625 C-23.0200308 -7.13958398 -10.02333306 -6.20492046 0 0 Z " fill="#000000" transform="translate(1157.625,816.625)"/>
<path d="M0 0 C5.58105269 4.65087725 10.01499367 9.2747197 11.0390625 16.69921875 C11.11535452 24.44285871 9.50682762 30.87713849 4.2421875 36.6796875 C-2.27827523 42.808417 -8.34963469 44.0544229 -17.1328125 43.8984375 C-20.68057341 43.64852617 -24.03357511 42.98186165 -27.5 42.2109375 C-31.62886632 41.35239546 -35.75675966 40.97087332 -39.9609375 40.69921875 C-40.77820313 40.64507813 -41.59546875 40.5909375 -42.4375 40.53515625 C-57.66048562 40.02925643 -77.0094828 43.41912316 -88.4609375 54.01171875 C-89.2859375 54.89859375 -90.1109375 55.78546875 -90.9609375 56.69921875 C-91.8065625 57.56546875 -92.6521875 58.43171875 -93.5234375 59.32421875 C-99.77163853 67.06095845 -100.53480835 76.47648487 -100.36743164 86.03271484 C-100.36319687 87.21312851 -100.3589621 88.39354218 -100.354599 89.60972595 C-100.34279136 92.15454151 -100.32169254 94.69932788 -100.29216194 97.24399948 C-100.24541645 101.28115098 -100.22287239 105.31777889 -100.2073822 109.35513306 C-100.1732593 117.20167304 -100.10951686 125.04782995 -100.0419693 132.89414215 C-99.95713976 142.87346947 -99.88422171 152.85278699 -99.84135336 162.83238852 C-99.82024444 167.47360999 -99.77440351 172.11420752 -99.72364807 176.75521851 C-99.70954169 179.20578553 -99.69623049 181.6563573 -99.68383789 184.10693359 C-99.66676788 185.19305435 -99.64969788 186.27917511 -99.6321106 187.39820862 C-99.61726123 196.69260007 -100.24277914 209.8319736 -107.0625 216.8671875 C-116.10944417 224.10754375 -121.92496062 225.37360846 -133.484375 224.296875 C-140.67652209 223.06047219 -147.28701529 219.89158141 -151.67717361 213.88805008 C-157.28526161 204.3261993 -156.37864389 192.35030482 -156.31738281 181.66503906 C-156.31817516 179.87331543 -156.32027692 178.08159198 -156.32357788 176.28987122 C-156.32867921 171.45747078 -156.31524337 166.625286 -156.29805088 161.79292011 C-156.28293369 156.72114427 -156.28418704 151.64937028 -156.28338623 146.57757568 C-156.27970298 138.06746779 -156.2647811 129.55744101 -156.2421875 121.04736328 C-156.21327868 110.13664358 -156.20295868 99.22598898 -156.1985054 88.31523514 C-156.19452054 78.91273171 -156.18202347 69.51024231 -156.16815853 60.10774899 C-156.16406933 57.0948763 -156.16113884 54.0820041 -156.15836334 51.06912994 C-156.15345428 46.33140845 -156.14322395 41.59372595 -156.12892532 36.85602379 C-156.12442062 35.12104075 -156.12156801 33.38605249 -156.12051773 31.65106392 C-156.11875839 29.27663508 -156.11084037 26.90230201 -156.10137939 24.52789307 C-156.10224588 23.8473377 -156.10311236 23.16678233 -156.1040051 22.46560407 C-156.05379979 14.02226282 -155.46248062 6.44545489 -149.9609375 -0.30078125 C-140.66574068 -7.49027005 -131.35056445 -8.32015286 -119.9609375 -7.30078125 C-113.39757017 -5.91108868 -109.11463705 -3.18478981 -104.921875 2.015625 C-103.9609375 3.69921875 -103.9609375 3.69921875 -103.9609375 6.69921875 C-103.3009375 7.02921875 -102.6409375 7.35921875 -101.9609375 7.69921875 C-101.3009375 8.02921875 -100.6409375 8.35921875 -99.9609375 8.69921875 C-99.6309375 8.03921875 -99.3009375 7.37921875 -98.9609375 6.69921875 C-97.14133392 5.73791875 -95.31394765 4.78942681 -93.45703125 3.90234375 C-91.68402856 3.04775091 -89.92753191 2.15853397 -88.18359375 1.24609375 C-63.24790218 -11.72964063 -24.35561214 -17.58032367 0 0 Z " fill="#000000" transform="translate(1038.9609375,912.30078125)"/>
</svg>
