<?xml version="1.0" encoding="UTF-8"?>
<svg version="1.1" xmlns="http://www.w3.org/2000/svg" width="1100" height="1100">
<path d="M0 0 C11.52995887 9.70601058 20.39039794 21.25527672 27.765625 34.328125 C28.91820801 34.31942383 30.07079102 34.31072266 31.25830078 34.30175781 C42.73994681 34.24179826 54.17429295 34.48736154 65.640625 35.078125 C66.48045929 35.12135895 67.32029358 35.1645929 68.18557739 35.20913696 C113.76837741 37.63406824 166.82847725 46.48570627 207.27734375 68.74609375 C210.50583374 70.70384047 210.50583374 70.70384047 212.85766602 69.55175781 C215.32196925 67.97132431 217.0389142 66.05049257 219.015625 63.890625 C238.24467364 44.35097499 264.65787353 34.34162495 291.828125 33.953125 C320.40739084 34.02249215 346.15200338 45.13038056 366.578125 65.07421875 C387.75787962 86.83313592 396.29208102 114.11625312 395.9765625 144.04296875 C395.52761816 162.72958388 388.97941398 184.62554644 376.4609375 198.96875 C374.58518541 201.1019576 374.58518541 201.1019576 374.74609375 203.234375 C376.23805233 206.29832059 378.13357009 209.04144877 380.078125 211.828125 C394.66274952 233.28465654 407.61196316 256.1569888 417.953125 279.953125 C418.44731934 281.08967529 418.94151367 282.22622559 419.45068359 283.3972168 C422.15944399 289.84811936 424.40673812 296.24494888 426.32421875 302.96484375 C429.77161277 318.10634598 429.77161277 318.10634598 438.859375 329.5859375 C442.5917335 331.22101539 446.4263808 332.02921946 450.41943359 332.77001953 C454.50463453 333.74179574 458.04092353 335.69527232 461.703125 337.703125 C462.41041748 338.0839624 463.11770996 338.4647998 463.84643555 338.85717773 C470.10168499 342.32512158 475.45843592 346.54075538 480.765625 351.328125 C481.59191406 352.01261719 482.41820312 352.69710938 483.26953125 353.40234375 C504.78182874 371.61541565 518.77038578 399.39122083 521.765625 427.328125 C522.54035937 443.64327763 522.56769171 459.61561552 517.765625 475.328125 C517.45214111 476.36018066 517.45214111 476.36018066 517.13232422 477.41308594 C507.04390511 509.34841114 484.02302788 533.51020876 454.71484375 548.93359375 C451.10839677 550.62982424 447.69686964 552.12408568 443.79052734 552.97998047 C437.52307249 554.41906849 437.52307249 554.41906849 433.11328125 558.79443359 C431.88370374 562.02524358 430.9789217 565.22447287 430.140625 568.578125 C429.42293135 571.04127986 428.69750627 573.50219358 427.96484375 575.9609375 C427.60567871 577.20004883 427.24651367 578.43916016 426.87646484 579.71582031 C411.60001628 629.39281655 380.40398445 676.99468254 345.140625 714.76953125 C343.14743731 716.91679759 341.22593433 719.09728663 339.328125 721.328125 C332.72850086 728.92721144 325.45947618 736.06610032 317.7890625 742.578125 C315.40597389 744.63917461 313.12732332 746.79892117 310.828125 748.953125 C303.53590809 755.59245748 295.67489896 761.44977283 287.765625 767.328125 C287.04455566 767.86872559 286.32348633 768.40932617 285.58056641 768.96630859 C214.24424342 822.328125 214.24424342 822.328125 186.765625 822.328125 C186.930625 823.4625 187.095625 824.596875 187.265625 825.765625 C190.16094916 849.93528755 182.6916936 876.18805593 168.328125 895.765625 C166.82880232 897.63722848 165.3086857 899.49241486 163.765625 901.328125 C163.07984375 902.17632813 162.3940625 903.02453125 161.6875 903.8984375 C142.21951722 926.89949863 114.99123066 936.87681999 85.71484375 939.61328125 C59.00016367 940.56886079 32.20552091 929.19971438 12.578125 911.515625 C-6.96893062 893.1563245 -17.17825606 869.78768108 -20.234375 843.328125 C-20.98074219 843.26496094 -21.72710937 843.20179688 -22.49609375 843.13671875 C-41.30027436 841.09977786 -60.26598476 836.15868327 -78.14306641 830.04101562 C-80.58833379 829.20746662 -83.04241213 828.40218593 -85.49609375 827.59375 C-104.36625404 821.28973419 -122.59198894 813.54607006 -140.24023438 804.35986328 C-142.34976573 803.26842358 -144.47103531 802.20226934 -146.59375 801.13671875 C-165.20959824 791.68904196 -183.02209593 780.66479566 -199.43164062 767.74560547 C-201.26711724 766.30237995 -203.11626275 764.87833612 -204.96875 763.45703125 C-211.19596149 758.65516663 -217.20447226 753.7099668 -222.99609375 748.3828125 C-225.10477027 746.44709897 -227.25223828 744.56992524 -229.421875 742.703125 C-232.62699272 739.91718767 -235.61464134 736.97320392 -238.5859375 733.94140625 C-240.39644801 732.11993025 -240.39644801 732.11993025 -243.234375 729.890625 C-246.32477852 727.25090532 -248.83052323 724.44175935 -251.45703125 721.35546875 C-253.10318011 719.47777368 -254.81172616 717.74684802 -256.609375 716.015625 C-260.34081047 712.34236336 -263.58612157 708.33630127 -266.86328125 704.2578125 C-269.18959596 701.3834533 -271.58216494 698.57663904 -273.984375 695.765625 C-304.45886791 659.19623351 -330.17784948 613.56221377 -342.77832031 567.59741211 C-343.44687526 565.35892278 -344.09580952 563.36772409 -345.234375 561.328125 C-347.94747983 559.66824199 -347.94747983 559.66824199 -351.234375 559.328125 C-352.96107422 559.01101563 -352.96107422 559.01101563 -354.72265625 558.6875 C-355.98464844 558.48640625 -357.24664062 558.2853125 -358.546875 558.078125 C-383.21917913 553.71742532 -403.14532003 541.34195642 -421.234375 524.328125 C-421.84796875 523.77898438 -422.4615625 523.22984375 -423.09375 522.6640625 C-443.40211276 503.75306415 -453.84481649 473.37171833 -455.1574707 446.36523438 C-455.83684823 423.64569751 -450.5293071 402.04033564 -439.234375 382.328125 C-438.68007813 381.34714844 -438.12578125 380.36617188 -437.5546875 379.35546875 C-428.30726725 363.97997336 -415.30478251 350.98511368 -400.234375 341.328125 C-399.35652344 340.75449219 -398.47867188 340.18085938 -397.57421875 339.58984375 C-381.65484862 329.71414096 -363.88673346 324.11778689 -345.234375 323.328125 C-345.05841797 322.65152832 -344.88246094 321.97493164 -344.70117188 321.27783203 C-332.07853256 273.74519092 -306.70282773 228.67634998 -276.234375 190.328125 C-275.54859375 189.44898438 -274.8628125 188.56984375 -274.15625 187.6640625 C-270.15780066 182.57942022 -265.97251417 177.71686685 -261.60546875 172.9453125 C-260.32509778 171.53205294 -259.05054852 170.11290351 -257.81201172 168.6628418 C-252.82348132 162.83487355 -247.478099 157.38570233 -242.05664062 151.96508789 C-240.49577173 150.40203766 -238.94309612 148.83115135 -237.390625 147.25976562 C-230.99631434 140.83007273 -224.34565827 134.97056602 -217.234375 129.328125 C-216.20668328 128.4649054 -215.18326425 127.59651615 -214.16796875 126.71875 C-200.94404832 115.37804828 -185.87691294 103.14939397 -170.234375 95.328125 C-170.21979248 94.55847412 -170.20520996 93.78882324 -170.19018555 92.99584961 C-169.41646468 56.428653 -161.93689015 29.05765781 -135.16796875 2.95703125 C-97.26255863 -31.01146543 -39.61422806 -31.14059639 0 0 Z M36.765625 66.328125 C36.78657227 67.05177246 36.80751953 67.77541992 36.82910156 68.52099609 C37.67708407 102.38125982 29.71695481 130.38464315 6.078125 155.515625 C-15.46239879 176.21734334 -42.75505208 183.82714632 -71.96484375 183.546875 C-79.34633023 183.37057438 -86.10930313 182.34021742 -93.234375 180.328125 C-94.22695313 180.06128906 -95.21953125 179.79445313 -96.2421875 179.51953125 C-124.83800823 170.94078503 -144.05962325 151.29303916 -159.234375 126.328125 C-171.91136894 134.14129269 -183.87013393 142.70267491 -195.234375 152.328125 C-195.80220703 152.80572266 -196.37003906 153.28332031 -196.95507812 153.77539062 C-206.10143365 161.46496836 -206.10143365 161.46496836 -214.6796875 169.7734375 C-216.36981542 171.46356542 -218.15382149 172.97913631 -219.984375 174.515625 C-224.97796623 178.83829227 -229.35327293 183.71225287 -233.73388672 188.640625 C-234.73709206 189.76886374 -235.74395918 190.89385675 -236.75439453 192.015625 C-267.06297184 225.70245548 -290.51953008 265.18477602 -306.859375 307.390625 C-307.28557129 308.49116211 -307.71176758 309.59169922 -308.15087891 310.72558594 C-309.99975783 315.62088711 -311.48857695 320.12902454 -312.234375 325.328125 C-311.42939575 325.56764893 -311.42939575 325.56764893 -310.6081543 325.81201172 C-291.4087616 331.62136188 -274.63808463 339.36371249 -259.234375 352.328125 C-258.54085937 352.88242187 -257.84734375 353.43671875 -257.1328125 354.0078125 C-236.57463437 370.76227485 -222.5437619 399.74460864 -219.4453125 425.83496094 C-218.18815281 440.69389004 -218.14288604 455.91606389 -222.234375 470.328125 C-222.53988281 471.55402344 -222.84539062 472.77992188 -223.16015625 474.04296875 C-227.48471431 490.35096964 -235.79527026 505.9432675 -247.234375 518.328125 C-248.25823665 519.57564575 -249.27938169 520.82540474 -250.296875 522.078125 C-264.64636105 538.53324215 -285.61526357 549.19412411 -306.234375 555.328125 C-308.23664636 555.98793848 -310.23742593 556.65237441 -312.234375 557.328125 C-310.9423214 563.73082625 -309.21018059 569.67622462 -306.859375 575.765625 C-306.51414795 576.66104004 -306.1689209 577.55645508 -305.81323242 578.47900391 C-289.49389642 619.98232502 -266.09285836 658.72373982 -235.7890625 691.52734375 C-233.8040461 693.70357732 -231.86908929 695.90345286 -229.9453125 698.1328125 C-226.12313544 702.51228298 -222.09584284 706.65836255 -217.984375 710.765625 C-216.86784546 711.88203369 -216.86784546 711.88203369 -215.72875977 713.02099609 C-210.87468006 717.82517454 -205.93236752 722.2900525 -200.5546875 726.50390625 C-198.46755942 728.14479651 -196.50815347 729.85339938 -194.546875 731.640625 C-147.66993379 772.84696848 -87.98938491 797.11290572 -27.75 810.26171875 C-26.80415039 810.46853271 -25.85830078 810.67534668 -24.88378906 810.88842773 C-22.27984211 811.32057927 -19.86829704 811.40957728 -17.234375 811.328125 C-16.8321875 809.98234375 -16.8321875 809.98234375 -16.421875 808.609375 C-11.7055571 793.59162591 -5.33597433 780.52332005 4.765625 768.328125 C5.43980469 767.47863281 6.11398437 766.62914062 6.80859375 765.75390625 C21.97074896 747.63328173 46.03118187 735.90034174 69.2578125 732.609375 C100.01879485 730.14301561 127.77838191 737.23679656 151.765625 757.328125 C162.8031551 767.15257513 170.43114427 778.5862624 177.765625 791.328125 C181.14948812 790.73539944 184.1277867 789.89071314 187.28515625 788.54296875 C188.13384277 788.18170898 188.9825293 787.82044922 189.85693359 787.44824219 C190.75492676 787.05797852 191.65291992 786.66771484 192.578125 786.265625 C193.51736816 785.85860352 194.45661133 785.45158203 195.42431641 785.03222656 C216.04197735 776.01309659 236.42134962 765.40735511 254.765625 752.328125 C255.43368164 751.85938965 256.10173828 751.3906543 256.79003906 750.90771484 C266.22819915 744.28201917 275.30520667 737.44161142 283.98046875 729.84228516 C285.34260771 728.68692605 286.73037175 727.56170945 288.12890625 726.45068359 C295.2766891 720.75964997 301.77853633 714.6247177 308.20947266 708.14501953 C309.88876928 706.45499258 311.57851469 704.77594736 313.26953125 703.09765625 C319.89450251 696.48067739 325.93125927 689.65863757 331.765625 682.328125 C332.69944092 681.23711724 333.64066365 680.15233938 334.59375 679.078125 C341.92161814 670.75744892 348.1123125 661.82209141 354.24609375 652.59716797 C355.60644427 650.56582193 356.99038913 648.5547342 358.390625 646.55078125 C375.38912387 622.04868337 394.16189714 589.87542527 399.765625 560.328125 C398.25212195 558.81462195 396.7438322 558.99166664 394.63671875 558.75 C361.48678884 554.67596656 331.42477073 540.34477252 310.296875 513.7421875 C290.72130397 487.95571281 283.11389044 456.29697964 287.015625 424.375 C290.190429 401.7629651 300.14314265 381.68351832 314.765625 364.328125 C315.72275391 363.16796875 315.72275391 363.16796875 316.69921875 361.984375 C335.87006561 339.45766561 365.92334552 326.43620856 394.953125 323.703125 C396.55714165 323.57621446 398.16128518 323.45088264 399.765625 323.328125 C397.86410174 315.6682065 395.41032053 308.46449608 392.328125 301.203125 C391.67614136 299.65939209 391.67614136 299.65939209 391.01098633 298.08447266 C379.99710699 272.31062925 367.07563445 248.142527 350.765625 225.328125 C346.07831024 225.93323114 342.31978822 227.96193748 338.203125 230.140625 C314.08814513 242.42988487 286.47091025 244.62959789 260.515625 236.640625 C249.73299308 232.64875701 238.96032111 227.24940724 229.765625 220.328125 C228.89679687 219.68488281 228.02796875 219.04164063 227.1328125 218.37890625 C206.61588001 202.46256726 193.54470519 177.89341576 189.765625 152.328125 C188.69153454 136.0767284 189.60013342 120.88189474 194.21435547 105.25830078 C194.86777884 102.97045083 195.35385252 100.67096844 195.765625 98.328125 C157.63641654 81.13636602 116.47676368 70.55152165 74.765625 67.328125 C74.07178711 67.27172852 73.37794922 67.21533203 72.66308594 67.15722656 C60.70070336 66.21385621 48.75881996 66.22261302 36.765625 66.328125 Z M-399.234375 379.328125 C-400.00394531 380.09769531 -400.77351563 380.86726563 -401.56640625 381.66015625 C-419.09723856 400.14667277 -424.98256088 422.59150359 -424.546875 447.51953125 C-423.81540225 466.15075179 -416.42896027 482.64637689 -405.234375 497.328125 C-404.68136719 498.06675781 -404.12835938 498.80539062 -403.55859375 499.56640625 C-398.43134569 505.91503351 -391.80269062 510.5847982 -385.234375 515.328125 C-384.54472656 515.83472656 -383.85507812 516.34132813 -383.14453125 516.86328125 C-364.57210601 529.50228398 -340.03179138 532.01965116 -318.359375 528.203125 C-296.26396041 523.04833496 -275.76336771 510.30851914 -263.02734375 491.27734375 C-249.9817774 469.81895029 -244.47863815 445.87558068 -250.203125 421.04296875 C-257.17911656 395.91354461 -271.72261833 376.17106516 -294.70336914 363.12963867 C-301.2657134 359.59076435 -308.05320935 357.30775437 -315.234375 355.328125 C-316.12125 355.08191406 -317.008125 354.83570313 -317.921875 354.58203125 C-347.51428607 347.87750062 -378.15409469 358.24784469 -399.234375 379.328125 Z M337.73046875 381.95703125 C320.75236199 402.44552191 314.11649543 425.94677718 315.765625 452.328125 C318.27096494 475.28689596 330.44733269 495.34892672 347.765625 510.328125 C367.76402846 525.72533797 391.93012247 531.66982485 416.89404297 529.10986328 C438.83615835 525.89951007 460.60329191 513.46586411 473.99804688 495.69287109 C488.5203819 475.13505363 494.83415456 451.04505001 490.99584961 426.04296875 C486.84233037 403.06872623 473.66060218 382.19498867 454.578125 368.703125 C417.54330209 343.43356757 368.40398722 349.72713975 337.73046875 381.95703125 Z " fill="#003F86" transform="translate(508.234375,98.671875)"/>
</svg>
